<svg width="543" height="362" viewBox="0 0 543 362" fill="none" xmlns="http://www.w3.org/2000/svg">
    <path
        d="M91.0464 114.889H452.58M447.859 314.874H95.7682C93.1604 314.874 91.0464 312.76 91.0464 310.154V95.9107C91.0464 93.3037 93.1604 91.1897 95.7682 91.1897H447.859C450.466 91.1897 452.58 93.3037 452.58 95.9107V310.154C452.58 312.76 450.466 314.874 447.859 314.874Z"
        stroke="#D5CBC6" stroke-width="2.37444" stroke-miterlimit="10" />
    <path
        d="M114.874 103.282C114.874 105.107 113.392 106.588 111.566 106.588C109.74 106.588 108.259 105.107 108.259 103.282C108.259 101.455 109.74 99.9744 111.566 99.9744C113.392 99.9744 114.874 101.455 114.874 103.282Z"
        fill="#F79395" />
    <path
        d="M127.725 103.282C127.725 105.107 126.245 106.588 124.418 106.588C122.592 106.588 121.112 105.107 121.112 103.282C121.112 101.455 122.592 99.9744 124.418 99.9744C126.245 99.9744 127.725 101.455 127.725 103.282Z"
        fill="#D5C23E" />
    <path
        d="M140.579 103.282C140.579 105.107 139.097 106.588 137.272 106.588C135.445 106.588 133.964 105.107 133.964 103.282C133.964 101.455 135.445 99.9744 137.272 99.9744C139.097 99.9744 140.579 101.455 140.579 103.282Z"
        fill="#30867A" />
    <path
        d="M499.547 194.714H414.58C412.184 194.714 410.242 192.772 410.242 190.377V111.795C410.242 109.399 412.184 107.457 414.58 107.457H499.547C501.942 107.457 503.885 109.399 503.885 111.795V190.377C503.885 192.772 501.942 194.714 499.547 194.714Z"
        fill="#E7E5E4" />
    <path
        d="M499.547 194.714H414.58C412.184 194.714 410.242 192.772 410.242 190.377V111.795C410.242 109.399 412.184 107.457 414.58 107.457H499.547C501.942 107.457 503.885 109.399 503.885 111.795V190.377C503.885 192.772 501.942 194.714 499.547 194.714Z"
        stroke="#D5CBC6" stroke-width="2.37444" stroke-miterlimit="10" />
    <path
        d="M435.121 172.016H479.282C481.69 172.016 483.643 170.064 483.643 167.656V131.463C483.643 129.056 481.69 127.104 479.282 127.104H435.121C432.714 127.104 430.762 129.056 430.762 131.463V167.656C430.762 170.064 432.714 172.016 435.121 172.016Z"
        fill="#AF61B7" />
    <path d="M469.265 157.027H444.861V140.661H469.265V144.753V157.027Z" stroke="white"
        stroke-width="1.98685" stroke-miterlimit="10" stroke-linecap="round" stroke-linejoin="round" />
    <path d="M444.861 140.661L457.063 150.277L469.265 140.661" stroke="white" stroke-width="1.98685"
        stroke-miterlimit="10" stroke-linecap="round" stroke-linejoin="round" />
    <path
        d="M125.633 260.516H44.6009C42.3164 260.516 40.4648 258.664 40.4648 256.379V185.73C40.4648 183.446 42.3164 181.594 44.6009 181.594H125.633C127.917 181.594 129.77 183.446 129.77 185.73V256.379C129.77 258.664 127.917 260.516 125.633 260.516Z"
        fill="#E7E5E4" />
    <path
        d="M125.633 260.516H44.6009C42.3164 260.516 40.4648 258.664 40.4648 256.379V185.73C40.4648 183.446 42.3164 181.594 44.6009 181.594H125.633C127.917 181.594 129.77 183.446 129.77 185.73V256.379C129.77 258.664 127.917 260.516 125.633 260.516Z"
        stroke="#D5CBC6" stroke-width="2.37444" stroke-miterlimit="10" />
    <path
        d="M105.92 245.311H63.8932C61.2385 245.311 59.0864 243.159 59.0864 240.504V199.917C59.0864 197.262 61.2385 195.111 63.8932 195.111H105.92C108.574 195.111 110.727 197.262 110.727 199.917V240.504C110.727 243.159 108.574 245.311 105.92 245.311Z"
        fill="#F79395" />
    <path
        d="M98.3655 219.826H92.0893C92.0553 217.939 91.8098 216.052 91.3429 214.166H96.6721C97.6343 215.854 98.2337 217.776 98.3655 219.826ZM96.6721 227.194H91.1742C91.6708 225.306 91.9713 223.421 92.0632 221.533H98.3655C98.2337 223.583 97.635 225.506 96.6721 227.194ZM88.8705 233.339C89.5865 231.86 90.1881 230.381 90.6703 228.901H95.5123C93.8319 231.001 91.5231 232.575 88.8705 233.339ZM85.2216 233.852C84.6366 233.852 84.0603 233.813 83.4964 233.739C82.6913 232.126 82.0057 230.514 81.454 228.901H88.9885C88.4368 230.514 87.7512 232.126 86.9476 233.739C86.3821 233.813 85.8066 233.852 85.2216 233.852ZM74.9309 228.901H79.7729C80.2551 230.38 80.8567 231.86 81.572 233.339C78.9201 232.575 76.6106 231.001 74.9309 228.901ZM73.7711 227.194C72.8082 225.506 72.2088 223.583 72.0776 221.533H78.38C78.4719 223.42 78.7717 225.306 79.269 227.194H73.7711ZM73.7711 214.166H79.1003C78.6334 216.052 78.3879 217.939 78.3539 219.826H72.0776C72.2088 217.776 72.8082 215.854 73.7711 214.166ZM81.3932 208.074C80.6518 209.535 80.0509 210.997 79.584 212.458H74.9309C76.5729 210.406 78.8158 208.855 81.3932 208.074ZM85.2216 207.507C85.9239 207.507 86.6124 207.563 87.2842 207.668C88.1791 209.265 88.8799 210.862 89.4011 212.458H81.0421C81.5633 210.862 82.2641 209.265 83.159 207.668C83.8308 207.563 84.5201 207.507 85.2216 207.507ZM90.5255 221.533C90.3966 223.42 90.0549 225.306 89.5221 227.194H80.9204C80.3883 225.307 80.0466 223.421 79.9177 221.533H90.5255ZM79.8605 219.826C79.8627 217.939 80.085 216.052 80.5519 214.166H89.8913C90.3583 216.052 90.5805 217.939 90.5827 219.826H79.8605ZM95.5123 212.458H90.8592C90.3923 210.997 89.7914 209.535 89.05 208.074C91.6274 208.855 93.8703 210.406 95.5123 212.458ZM74.8976 210.356C69.2275 216.026 69.2275 225.333 74.8976 231.004C80.5679 236.674 89.8754 236.674 95.5456 231.004C101.216 225.333 101.216 216.026 95.5456 210.356C89.8754 204.685 80.5679 204.685 74.8976 210.356Z"
        fill="white" />
    <path
        d="M120.804 70.5482H47.3935C45.8771 70.5482 44.6475 69.3189 44.6475 67.8021C44.6475 66.2861 45.8771 65.0561 47.3935 65.0561H120.804C122.321 65.0561 123.55 66.2861 123.55 67.8021C123.55 69.3189 122.321 70.5482 120.804 70.5482Z"
        fill="#AF61B7" />
    <path
        d="M502.538 249.867H466.907C465.391 249.867 464.161 248.637 464.161 247.121C464.161 245.605 465.391 244.375 466.907 244.375H502.538C504.055 244.375 505.284 245.605 505.284 247.121C505.284 248.637 504.055 249.867 502.538 249.867Z"
        fill="#62CBCF" />
    <path
        d="M477.583 281.633H473.23C472.086 281.633 471.158 280.706 471.158 279.562V275.474C471.158 274.33 472.086 273.403 473.23 273.403H477.583C478.728 273.403 479.655 274.33 479.655 275.474V279.562C479.655 280.706 478.728 281.633 477.583 281.633Z"
        fill="#AF61B7" />
    <path
        d="M64.8794 300.658H60.5254C59.3815 300.658 58.4541 299.73 58.4541 298.587V294.499C58.4541 293.356 59.3815 292.428 60.5254 292.428H64.8794C66.0234 292.428 66.951 293.356 66.951 294.499V298.587C66.951 299.73 66.0234 300.658 64.8794 300.658ZM398.11 67.7116H325.652C324.447 67.7116 323.47 66.7357 323.47 65.531V47.8398C323.47 46.6358 324.447 45.6599 325.652 45.6599H398.11C399.315 45.6599 400.29 46.6358 400.29 47.8398V65.531C400.29 66.7357 399.315 67.7116 398.11 67.7116Z"
        fill="#F79395" />
    <path d="M333.935 53.5173H385.466M333.935 58.8059H354.925" stroke="white" stroke-width="1.42421"
        stroke-miterlimit="10" />
    <path d="M331.838 65.2168V73.8112L342.647 65.2168H331.838Z" fill="#F79395" />
    <path
        d="M220.088 69.0235H185.013C181.605 69.0235 178.844 66.2615 178.844 62.8552V30.2456C178.844 27.6624 180.938 25.5687 183.52 25.5687H220.088C222.67 25.5687 224.764 27.6624 224.764 30.2456V64.3466C224.764 66.9298 222.67 69.0235 220.088 69.0235Z"
        fill="#62CBCF" />
    <path
        d="M211.447 52.9373L210.886 53.4977C210.559 53.7779 210.28 54.1051 209.952 54.4316C209.485 54.8986 208.971 55.1325 208.271 55.1325H208.038C206.637 55.0391 205.33 54.4787 204.396 54.0118C201.735 52.7042 199.4 50.8834 197.439 48.5486C195.851 46.6337 194.778 44.8128 194.03 42.8986C193.564 41.7779 193.376 40.891 193.47 40.0034C193.517 39.4901 193.703 39.0232 194.124 38.6496L195.712 37.0619C195.851 36.9222 196.085 36.7354 196.365 36.7354C196.645 36.7354 196.832 36.8751 197.019 37.0619L197.859 37.9024C198 38.0429 198.139 38.229 198.326 38.3694L199.634 39.6769C199.773 39.8166 199.96 40.0968 199.96 40.3307C199.96 40.6108 199.773 40.844 199.634 40.9837C199.493 41.1241 199.353 41.2646 199.213 41.4043C198.793 41.825 198.419 42.1978 198.046 42.5714L198 42.6184C197.533 43.0854 197.626 43.5061 197.719 43.7855V43.8326C198.046 44.6731 198.56 45.4195 199.26 46.3542C200.567 47.9882 201.968 49.2487 203.509 50.2297C203.696 50.3694 203.929 50.4628 204.116 50.5562C204.303 50.6496 204.443 50.6966 204.583 50.79L204.63 50.8363C205.096 51.0695 205.563 50.9761 205.937 50.6032L207.571 48.9685C207.711 48.8288 207.945 48.642 208.225 48.642C208.459 48.642 208.692 48.8288 208.832 48.9685L211.447 51.5835C211.867 52.0034 211.867 52.4704 211.447 52.9373ZM212.52 50.5098L209.906 47.8948C209.439 47.3808 208.832 47.1006 208.225 47.1006C207.618 47.1006 207.011 47.3808 206.544 47.8485L205.05 49.3421C204.956 49.2957 204.863 49.2487 204.769 49.2023C204.583 49.1089 204.443 49.0619 204.303 48.9685C202.902 48.0816 201.641 46.9138 200.427 45.4195C199.867 44.7194 199.447 44.0664 199.213 43.506C199.587 43.1788 199.914 42.8052 200.24 42.4787C200.381 42.3383 200.52 42.1978 200.661 42.0581C201.174 41.5448 201.454 40.9374 201.454 40.3307C201.454 39.7232 201.174 39.1165 200.661 38.6025L199.353 37.2957C199.213 37.1553 199.073 37.0155 198.933 36.8288C198.653 36.5486 198.326 36.2221 198.046 35.9412C197.579 35.4742 196.972 35.1947 196.365 35.1947C195.758 35.1947 195.198 35.4279 194.684 35.9412L193.05 37.5759C192.443 38.1826 192.069 38.9768 191.976 39.8637C191.883 41.2646 192.256 42.5714 192.583 43.4126C193.33 45.56 194.497 47.4742 196.225 49.5289C198.326 52.0034 200.801 53.9654 203.696 55.3656C204.769 55.8789 206.264 56.4863 207.899 56.626H208.225C209.346 56.626 210.28 56.2061 211.026 55.4119L211.073 55.3656C211.307 55.0854 211.586 54.8052 211.914 54.525C212.101 54.3383 212.334 54.1051 212.52 53.9184C213.501 52.891 213.501 51.4901 212.52 50.5098Z"
        fill="white" />
    <mask id="mask0_412_34232" style="mask-type:luminance" maskUnits="userSpaceOnUse" x="124" y="73"
        width="333" height="242">
        <path d="M456.854 314.29H124.349V73.4325H456.854V314.29Z" fill="white" />
    </mask>
    <g mask="url(#mask0_412_34232)">
        <path
            d="M372.666 233.553L346.239 230.034L346.446 232.659L323.851 235.667C323.851 235.667 309.287 272.206 322.123 352.564H340.502L347.117 271.081H349.467L355.873 352.564H374.253C387.088 272.206 372.666 233.553 372.666 233.553Z"
            fill="#826467" />
        <path d="M338.714 271.081H357.89" stroke="#28262C" stroke-width="1.48816"
            stroke-miterlimit="10" stroke-linecap="round" stroke-linejoin="round" />
        <path
            d="M388.098 195.007C385.837 191.398 373.137 191.526 372.467 191.447C369.034 191.045 374.669 218.365 381.811 242.247C383.18 246.825 388.218 249.21 392.618 247.344C392.665 247.324 392.712 247.304 392.76 247.284C396.241 245.81 398.221 242.114 397.521 238.4C394.124 220.38 390.713 199.179 388.098 195.007Z"
            fill="#F79395" />
        <path
            d="M391.125 204.886L374.91 211.178L373.39 203.485L390.181 199.297L391.125 204.886ZM394.188 220.277C394.188 220.277 386.507 230.593 386.873 230.119C387.238 229.645 392.896 213.448 392.896 213.448L394.188 220.277Z"
            fill="#EC767F" />
        <path
            d="M405.171 206.411L383.153 234.938C380.262 238.683 381.185 244.099 385.154 246.676C389.116 249.247 394.429 247.895 396.679 243.743L415.007 209.929L405.171 206.411Z"
            fill="#F79395" />
        <path
            d="M410.869 213.737C406.096 212.194 403.477 207.076 405.019 202.302C406.561 197.529 411.68 194.91 416.454 196.451C421.227 197.994 423.846 203.113 422.304 207.886C420.762 212.66 415.643 215.279 410.869 213.737Z"
            fill="#F79395" />
        <path
            d="M420.284 199.634C420.284 199.634 422.77 197.054 418.36 195.245C413.951 193.437 408.499 193.852 405.019 202.302L420.284 199.634Z"
            fill="#F79395" />
        <path
            d="M424.852 181.606L434.071 185.603C434.583 185.826 434.77 186.434 434.487 186.962L422.36 209.616C422.077 210.143 421.432 210.391 420.92 210.168L411.7 206.172C411.187 205.949 411.001 205.341 411.283 204.813L423.411 182.159C423.694 181.632 424.339 181.384 424.852 181.606Z"
            fill="#3B3261" />
        <path
            d="M423.971 181.205L433.19 185.202C433.703 185.425 433.89 186.033 433.607 186.56L421.479 209.214C421.197 209.742 420.552 209.989 420.039 209.767L410.82 205.77C410.307 205.548 410.12 204.94 410.403 204.412L422.531 181.758C422.813 181.23 423.458 180.983 423.971 181.205Z"
            fill="#2D2446" />
        <path d="M422.931 183.51L431.031 187.022L421.147 205.485L413.047 201.973L422.931 183.51Z"
            fill="#DFDCDA" />
        <path d="M431.031 187.022L413.047 201.973L422.931 183.51L431.031 187.022Z" fill="white" />
        <path
            d="M415.713 194.493C415.713 194.493 417.765 194.893 419.618 195.943C420.434 196.405 420.852 197.347 420.626 198.258C420.525 198.663 420.304 199.029 419.992 199.306C419.679 199.584 419.29 199.76 418.876 199.812L414.083 200.417C414.083 200.417 411.582 204.727 408.315 205.211L411.312 197.643L415.713 194.493Z"
            fill="#F79395" />
        <path
            d="M354.505 159.083C353.975 159.08 388.493 163.859 394.188 203.213L376.277 205.957L372.666 235.667H322.699L312.779 180.775C312.779 180.775 323.85 164.91 344.404 159.083H354.505Z"
            fill="#62CBCF" />
        <path d="M376.277 205.957L377.831 188.774" stroke="#28262C" stroke-width="1.48816"
            stroke-miterlimit="10" stroke-linecap="round" stroke-linejoin="round" />
        <path
            d="M357.785 159.646V145.976H341.766V159.806C340.946 160.051 339.581 160.545 337.462 161.551L349.955 168.994L362.729 161.551C362.729 161.551 360.701 160.372 357.785 159.646Z"
            fill="#F79395" />
        <path
            d="M341.618 147.646C341.618 147.646 344.494 155.285 352.174 154.626C359.233 154.02 358.109 143.433 358.109 143.433L341.618 147.646Z"
            fill="#28262C" />
        <path
            d="M334.631 137.487C332.12 139.764 326.506 131.126 328.932 128.701C331.358 126.276 333.209 130.08 333.209 130.08L334.292 132.659L335.109 136.151L335.303 137.066L334.631 137.487Z"
            fill="#EC767F" />
        <path d="M330.104 131.761C330.104 131.761 332.004 130.906 333.693 133.661" stroke="#28262C"
            stroke-width="1.19799" stroke-miterlimit="10" stroke-linecap="round"
            stroke-linejoin="round" />
        <path
            d="M364.324 137.225C366.633 139.707 372.958 131.574 370.745 128.953C368.534 126.33 366.367 129.965 366.367 129.965L365.07 132.443L363.96 135.854L363.689 136.748L364.324 137.225Z"
            fill="#EC767F" />
        <path d="M369.318 131.902C369.318 131.902 367.497 130.889 365.581 133.492" stroke="#28262C"
            stroke-width="1.19799" stroke-miterlimit="10" stroke-linecap="round"
            stroke-linejoin="round" />
        <path
            d="M330.227 120.461C330.227 131.895 338.945 137.317 349.7 137.317C360.454 137.317 369.171 131.895 369.171 120.461C369.171 109.026 360.454 101.246 349.7 101.246C338.945 101.246 330.227 109.026 330.227 120.461Z"
            fill="#28262C" />
        <path
            d="M332.874 121.256C332.874 128.276 333.865 134.333 334.855 138.633C335.825 142.842 338.552 145.784 342.407 148.151L343.109 148.583C347.187 151.088 352.457 151.146 356.598 148.732C360.774 146.297 363.699 143.087 364.598 138.57C366.235 130.355 366.414 121.256 366.414 121.256C366.414 121.256 367.972 103.536 349.884 103.88C331.794 104.224 332.874 121.256 332.874 121.256Z"
            fill="#F79395" />
        <path
            d="M348.546 131.369V133.821C348.546 133.966 348.574 134.106 348.625 134.233C348.827 134.734 349.405 134.975 349.928 134.836L351.052 134.537"
            stroke="#28262C" stroke-width="1.48613" stroke-miterlimit="10" stroke-linecap="round"
            stroke-linejoin="round" />
        <path
            d="M345.67 121.86L336.681 123.967C336.681 123.967 337.09 121.679 340.767 120.848C344.445 120.016 345.67 121.86 345.67 121.86ZM353.649 121.86L362.329 123.967C362.329 123.967 361.935 121.679 358.383 120.848C354.833 120.016 353.649 121.86 353.649 121.86ZM343.771 128.464C343.771 129.299 343.092 129.975 342.255 129.975C341.418 129.975 340.739 129.299 340.739 128.464C340.739 127.628 341.418 126.951 342.255 126.951C343.092 126.951 343.771 127.628 343.771 128.464ZM358.144 128.464C358.144 129.299 357.465 129.975 356.628 129.975C355.79 129.975 355.111 129.299 355.111 128.464C355.111 127.628 355.79 126.951 356.628 126.951C357.465 126.951 358.144 127.628 358.144 128.464Z"
            fill="#28262C" />
        <path d="M343.771 137.69H355.462C355.462 137.69 350.281 143.993 343.771 137.69Z"
            fill="white" />
        <path
            d="M348.064 129.051C348.064 132.612 345.178 135.498 341.617 135.498C338.057 135.498 335.17 132.612 335.17 129.051M348.064 129.051C348.064 125.49 345.178 122.604 341.617 122.604C338.057 122.604 335.17 125.49 335.17 129.051M348.064 129.051C348.064 129.051 349.591 127.625 351.007 129.051M335.17 129.051L333.14 129M363.902 129.051C363.902 132.612 361.016 135.498 357.455 135.498C353.895 135.498 351.007 132.612 351.007 129.051M363.902 129.051C363.902 125.49 361.016 122.604 357.455 122.604C353.895 122.604 351.007 125.49 351.007 129.051M363.902 129.051L365.945 129"
            stroke="#AF61B7" stroke-width="1.61967" stroke-miterlimit="10" />
        <path
            d="M366.181 127.131C366.181 127.131 358.95 117.354 360.618 107.45C360.618 107.45 365.986 110.151 367.384 117.123C368.782 124.095 366.181 127.131 366.181 127.131ZM332.862 127.793C332.862 127.793 341.263 116.689 339.595 106.784C339.595 106.784 333.767 110.151 332.369 117.123C330.972 124.095 332.862 127.793 332.862 127.793Z"
            fill="#28262C" />
        <path
            d="M365.575 111.35C365.575 111.35 356.289 121.517 330.882 119.776C330.882 119.776 334.773 104.858 347.086 103.269C347.086 103.269 361.303 101.572 365.575 111.35Z"
            fill="#28262C" />
        <path
            d="M377.054 99.4655C377.054 106.165 371.623 111.597 364.923 111.597C358.223 111.597 352.792 106.165 352.792 99.4655C352.792 92.7665 358.223 87.3352 364.923 87.3352C371.623 87.3352 377.054 92.7665 377.054 99.4655ZM216.837 233.525L194.243 230.516L194.449 227.893L168.023 231.411C168.023 231.411 153.6 270.064 166.436 350.423H184.815L191.222 268.939H193.571L200.186 350.423H218.565C231.401 270.064 216.837 233.525 216.837 233.525ZM215.035 123.593C211.977 119.995 209.529 115.798 207.448 109.909C205.214 103.586 197.899 106.157 197.899 106.157C197.899 106.157 191.804 98.3151 182.632 101.047C173.46 103.778 170.273 110.304 170.086 118.064C169.898 125.824 163.795 127.038 159.095 136.014C150.798 151.862 164.768 165.211 190.197 161.508L190.231 161.261C192.735 162.021 195.804 162.353 199.551 162.131C230.1 160.317 227.152 137.847 215.035 123.593Z"
            fill="#28262C" />
        <path
            d="M205.034 135.345C207.545 137.622 213.159 128.984 210.733 126.559C208.308 124.134 206.456 127.939 206.456 127.939L205.373 130.517L204.556 134.01L204.362 134.924L205.034 135.345Z"
            fill="#EC767F" />
        <path d="M209.561 129.619C209.561 129.619 207.66 128.764 205.971 131.519" stroke="#28262C"
            stroke-width="1.19799" stroke-miterlimit="10" stroke-linecap="round"
            stroke-linejoin="round" />
        <path
            d="M175.341 135.083C173.031 137.565 166.707 129.432 168.919 126.811C171.132 124.189 173.297 127.823 173.297 127.823L174.595 130.301L175.704 133.712L175.975 134.607L175.341 135.083Z"
            fill="#EC767F" />
        <path d="M170.346 129.76C170.346 129.76 172.167 128.748 174.083 131.35" stroke="#28262C"
            stroke-width="1.19799" stroke-miterlimit="10" stroke-linecap="round"
            stroke-linejoin="round" />
        <path
            d="M209.438 118.319C209.438 129.753 200.719 135.176 189.965 135.176C179.211 135.176 170.493 129.753 170.493 118.319C170.493 106.884 179.211 99.1049 189.965 99.1049C200.719 99.1049 209.438 106.884 209.438 118.319Z"
            fill="#28262C" />
        <path d="M197.899 164.577H181.88V143.835H197.899V164.577Z" fill="#F79395" />
        <path
            d="M179.542 142.541C179.542 142.541 184.001 151.44 189.487 152.829C190.952 153.201 192.518 153.073 193.931 152.573C195.996 151.84 198.614 148.762 199.059 145.356L199.265 143.41C199.265 143.41 189.504 148.725 179.542 142.541Z"
            fill="#28262C" />
        <path
            d="M206.79 119.114C206.79 126.134 205.799 132.192 204.808 136.491C203.839 140.7 201.112 143.641 197.257 146.009L196.555 146.44C192.476 148.946 187.207 149.004 183.066 146.59C178.889 144.155 175.965 140.945 175.065 136.428C173.428 128.213 173.249 119.114 173.249 119.114C173.249 119.114 171.692 101.393 189.781 101.738C207.869 102.082 206.79 119.114 206.79 119.114Z"
            fill="#F79395" />
        <path
            d="M188.756 130.187V131.644C188.756 131.788 188.785 131.927 188.835 132.055C189.037 132.554 189.615 132.793 190.138 132.655L191.263 132.358"
            stroke="#28262C" stroke-width="1.48387" stroke-miterlimit="10" stroke-linecap="round"
            stroke-linejoin="round" />
        <path
            d="M192.526 120.581L202.149 122.859C202.149 122.859 201.712 120.386 197.775 119.486C193.838 118.588 192.526 120.581 192.526 120.581ZM187.473 120.581L177.726 122.859C177.726 122.859 178.169 120.386 182.156 119.486C186.144 118.588 187.473 120.581 187.473 120.581ZM183.982 126.555C183.982 127.387 183.302 128.062 182.465 128.062C181.628 128.062 180.949 127.387 180.949 126.555C180.949 125.722 181.628 125.047 182.465 125.047C183.302 125.047 183.982 125.722 183.982 126.555ZM198.354 126.555C198.354 127.387 197.675 128.062 196.838 128.062C196 128.062 195.322 127.387 195.322 126.555C195.322 125.722 196 125.047 196.838 125.047C197.675 125.047 198.354 125.722 198.354 126.555Z"
            fill="#28262C" />
        <path
            d="M182.98 135.176H196.286C196.286 135.176 195.347 138.832 189.313 138.832C184.718 138.832 182.98 135.176 182.98 135.176Z"
            fill="white" />
        <path
            d="M173.482 124.989C173.482 124.989 180.715 115.212 179.047 105.307C179.047 105.307 173.678 108.008 172.28 114.981C170.883 121.953 173.482 124.989 173.482 124.989ZM206.803 124.664C206.803 124.664 198.402 114.547 200.07 104.643C200.07 104.643 205.897 108.008 207.295 114.981C208.693 121.953 206.803 124.664 206.803 124.664Z"
            fill="#28262C" />
        <path
            d="M174.089 109.209C174.089 109.209 182.388 120.362 207.795 118.622C207.795 118.622 204.892 102.716 192.579 101.128C192.579 101.128 178.362 99.43 174.089 109.209Z"
            fill="#28262C" />
        <path
            d="M150.929 282.589C150.559 283.169 172.075 188.974 165.688 190.398C165.105 190.527 153.917 191.567 152.254 194.948C147.435 204.748 143.978 281.873 143.978 281.873L150.929 282.589Z"
            fill="#F79395" />
        <path
            d="M143.978 281.873C143.978 281.873 140.51 297.964 153.62 299.723C154.483 299.84 155.318 299.329 155.603 298.505L155.64 298.396C155.954 297.487 155.498 296.512 154.62 296.12C152.483 295.164 149.168 292.75 150.812 287.266C150.812 287.266 152.707 287.033 153.753 290.568C154.022 291.478 155.043 291.934 155.89 291.508C156.468 291.216 156.794 290.594 156.712 289.952C156.398 287.476 155.152 281.517 150.374 279.918L143.978 281.873Z"
            fill="#F79395" />
        <path
            d="M148.389 217.581C148.389 217.581 160.786 235.039 160.852 234.701C160.917 234.363 165.186 210.19 165.186 210.19L150.144 203.674L148.389 217.581Z"
            fill="#EC767F" />
        <path
            d="M182.834 161.162C183.362 161.16 152.196 161.718 146.5 201.071L164.411 203.816L168.023 233.525H217.99L227.909 178.633C227.909 178.633 220.857 166.74 200.302 160.913L182.834 161.162Z"
            fill="#30867A" />
        <path
            d="M167.601 165.92C167.601 165.92 172.005 171.767 190.051 171.767C207.931 171.767 212.503 165.613 212.503 165.613C212.503 165.613 201.963 159.725 189.733 157.82C189.733 157.82 178.811 159.765 167.601 165.92Z"
            fill="#F79395" />
        <path
            d="M228.92 290.591L228.963 369.075H267.79L270.773 290.591H228.92ZM313.222 290.591L313.18 369.075H274.353L271.369 290.591H313.222Z"
            fill="#315384" />
        <path d="M292.017 317.857H251.872V290.591H292.017V317.857Z" fill="#315384" />
        <path
            d="M337.75 222.1C340.157 248.695 337.617 268.072 338.32 317.007L315.147 317.978L311.694 226.379L337.75 222.1Z"
            fill="#F79395" />
        <path
            d="M314.551 242.853C314.551 242.853 328.902 241.539 338.714 235.067L338.455 229.372L314.543 232.629L314.551 242.853Z"
            fill="#EC767F" />
        <path
            d="M291.53 160.869C291.53 160.869 337.112 172.332 345.37 230.189C345.37 230.189 323.061 239.861 300.705 235.701L305.734 216.349L291.53 160.869Z"
            fill="#AF61B7" />
        <path
            d="M155.378 184.926L189.316 225.007L178.931 254.255C178.931 254.255 153.135 218.391 141.544 190.67L155.378 184.926Z"
            fill="#F79395" />
        <path
            d="M156.493 186.373C156.493 186.373 144.576 193.106 141.544 190.67C136.247 186.414 131.869 170.834 131.869 170.834C131.869 170.834 154.155 162.432 153.946 162.76C153.736 163.089 156.493 186.373 156.493 186.373Z"
            fill="#F79395" />
        <path
            d="M156.493 186.373C156.282 185.173 160.912 172.23 162.5 167.376C162.882 166.206 162.076 164.922 160.804 164.679C159.978 164.52 158.667 164.622 158.048 165.809L152.458 175.363L156.493 186.373Z"
            fill="#F79395" />
        <path
            d="M156.085 172.381L152.247 153.287C152.019 152.016 150.743 151.141 149.469 151.381C148.367 151.59 147.64 152.572 147.769 153.677L149.443 167.895L156.085 172.381ZM148.453 165.338L143.241 151.704C142.81 150.51 141.466 149.848 140.281 150.246C139.252 150.59 138.674 151.627 138.918 152.691L142.786 168.446L148.453 165.338ZM142.852 169.359L136.258 155.961C135.653 154.718 134.147 154.141 132.911 154.678C131.75 155.183 131.236 156.499 131.733 157.694L136.99 170.342L142.852 169.359ZM131.869 170.834L126.695 162.626C126.267 161.661 126.662 160.578 127.6 160.15C128.497 159.741 129.605 160.063 130.185 160.903L136.99 170.342L131.869 170.834Z"
            fill="#F79395" />
        <path d="M155.042 170.946C155.042 170.946 147.271 170.131 146.474 180.487" stroke="#28262C"
            stroke-width="1.84824" stroke-miterlimit="10" stroke-linecap="round"
            stroke-linejoin="round" />
        <path
            d="M172.048 240.575C172.048 240.575 178.43 262.666 191.151 259.729C203.871 256.792 223.696 229.624 223.696 229.624L219.259 183.236L183.557 227.177L172.048 240.575Z"
            fill="#F79395" />
        <path
            d="M194.63 213.528C194.63 213.528 206.684 231.709 216.966 238.12L223.696 229.624L197.733 209.54L194.63 213.528Z"
            fill="#EC767F" />
        <path
            d="M247.367 159.867C247.367 159.867 211.978 167.843 193.12 208.971C193.12 208.971 204.514 226.14 222.78 233.771L235.01 218.788L247.367 159.867Z"
            fill="#AF61B7" />
        <path
            d="M247.366 159.739C233.542 166.83 224.852 176.234 224.852 176.234L227.579 296.458H314.694L314.412 176.854C314.412 176.854 303.431 166.108 291.529 160.869C281.421 156.42 257.193 154.699 247.366 159.739Z"
            fill="#AF61B7" />
        <path
            d="M314.551 236.147L315.682 196.819M226.191 229.592L224.309 195.501M288.588 218.322C281.896 218.322 276.471 212.897 276.471 206.205V194.088H300.705V206.205C300.705 212.897 295.28 218.322 288.588 218.322Z"
            stroke="#28262C" stroke-width="1.68544" stroke-miterlimit="10" stroke-linecap="round"
            stroke-linejoin="round" />
        <path
            d="M248.387 115.827L244.756 97.8618C244.552 96.3987 243.983 94.1406 244.679 92.0186C245.829 88.508 250.056 81.7663 257.282 84.8526L258.843 91.9657C258.843 91.9657 251.34 93.4803 248.33 103.296L248.387 115.827Z"
            fill="#28262C" />
        <path
            d="M256.749 88.5609C256.618 90.9218 254.535 101.25 247.209 105.013C247.209 105.013 240.793 91.2533 256.749 88.5609Z"
            fill="#28262C" />
        <path
            d="M282.445 156.431V125.925H254.323V156.431L245.952 160.247C245.952 160.247 247.915 172.891 268.68 173.171C289.443 173.451 291.529 160.869 291.529 160.869L282.445 156.431Z"
            fill="#F79395" />
        <path
            d="M257.282 84.8526C257.282 84.8526 262.443 71.2374 278.358 78.4758C287.992 82.8566 290.689 88.731 291.837 92.8924C292.218 94.276 292.37 96.4537 292.267 97.7467L288.417 115.827L273.387 90.8124L258.843 91.9657L257.282 84.8526Z"
            fill="#28262C" />
        <path
            d="M288.416 115.827C288.416 115.827 290.313 112.812 294.223 114.295C298.134 115.778 296.365 125.275 290.499 126.485C290.499 126.485 288.396 126.944 286.748 125.504C286.748 125.504 288.19 118.49 288.416 115.827Z"
            fill="#EC767F" />
        <path d="M293.448 117.645C293.448 117.645 290.172 116.552 287.847 121.376" stroke="#28262C"
            stroke-width="1.68544" stroke-miterlimit="10" stroke-linecap="round"
            stroke-linejoin="round" />
        <path
            d="M248.387 115.827C248.387 115.827 246.491 112.812 242.58 114.295C238.67 115.778 240.439 125.275 246.304 126.485C246.304 126.485 248.408 126.944 250.056 125.504C250.056 125.504 248.614 118.49 248.387 115.827Z"
            fill="#EC767F" />
        <path d="M243.356 117.645C243.356 117.645 246.632 116.552 248.956 121.376" stroke="#28262C"
            stroke-width="1.68544" stroke-miterlimit="10" stroke-linecap="round"
            stroke-linejoin="round" />
        <path
            d="M288.808 106.815C288.81 112.541 288.249 124.519 284.729 131.628C281.424 138.303 275.958 141.894 268.793 142.109C261.627 142.322 256.289 139.561 252.011 130.898C247.733 122.235 247.938 106.922 247.938 106.922C247.938 106.922 247.938 86.47 268.151 86.47C289.44 86.47 288.808 106.815 288.808 106.815Z"
            fill="#F79395" />
        <path
            d="M254.535 135.167C254.535 135.167 256.89 147.117 267.289 148.49C279.258 150.07 282.446 135.471 282.446 135.471C282.446 135.471 277.157 142.099 268.793 142.109C259.464 142.12 254.535 135.167 254.535 135.167Z"
            fill="#28262C" />
        <path
            d="M266.932 115.306V120.04C266.932 120.243 266.971 120.438 267.042 120.616C267.323 121.317 268.129 121.653 268.859 121.459L270.428 121.042"
            stroke="#28262C" stroke-width="1.68544" stroke-miterlimit="10" stroke-linecap="round"
            stroke-linejoin="round" />
        <path
            d="M260.961 113.046C260.961 114.062 260.138 114.886 259.122 114.886C258.105 114.886 257.281 114.062 257.281 113.046C257.281 112.03 258.105 111.206 259.122 111.206C260.138 111.206 260.961 112.03 260.961 113.046ZM278.215 113.046C278.215 114.062 277.39 114.886 276.374 114.886C275.358 114.886 274.534 114.062 274.534 113.046C274.534 112.03 275.358 111.206 276.374 111.206C277.39 111.206 278.215 112.03 278.215 113.046ZM271.664 103.891L284.036 107.088C284.036 107.088 283.474 103.617 278.412 102.356C273.351 101.095 271.664 103.891 271.664 103.891ZM263.976 103.891L251.604 107.088C251.604 107.088 252.167 103.617 257.227 102.356C262.289 101.095 263.976 103.891 263.976 103.891Z"
            fill="#28262C" />
        <path
            d="M261.516 124.808C261.516 124.808 263.341 126.207 268.14 126.207C272.505 126.207 275.231 124.808 275.231 124.808"
            stroke="#28262C" stroke-width="1.68544" stroke-miterlimit="10" stroke-linecap="round"
            stroke-linejoin="round" />
        <path
            d="M266.446 113.583C266.446 117.902 262.945 121.403 258.626 121.403C254.308 121.403 250.807 117.902 250.807 113.583C250.807 109.265 254.308 105.764 258.626 105.764C262.945 105.764 266.446 109.265 266.446 113.583ZM285.655 113.583C285.655 117.902 282.154 121.403 277.836 121.403C273.517 121.403 270.016 117.902 270.016 113.583C270.016 109.265 273.517 105.764 277.836 105.764C282.154 105.764 285.655 109.265 285.655 113.583Z"
            stroke="white" stroke-width="2.35467" stroke-miterlimit="10" />
        <path
            d="M266.446 113.583C266.446 113.583 268.298 111.855 270.016 113.583M250.807 113.583L248.186 113.517M285.654 113.583L288.582 113.536"
            stroke="white" stroke-width="2.35467" stroke-miterlimit="10" />
        <path
            d="M254.535 89.0286C254.535 89.0286 258.29 99.6964 275.233 99.3692C286.747 99.1469 289.499 107.479 289.499 107.479C289.499 107.479 287.495 88.8527 286.968 89.0286C286.441 89.2038 269.448 84.4943 269.448 84.4943L254.535 89.0286Z"
            fill="#28262C" />
    </g>
</svg>