<svg width="347" height="283" viewBox="0 0 347 283" fill="none" xmlns="http://www.w3.org/2000/svg">
    <path d="M0 168.586L138.518 248.78L346.5 127.368L207.982 47.1745L0 168.586Z" fill="#88C443" />
    <path d="M346.5 127.368V160.666L138.518 282.078V248.78L346.5 127.368Z" fill="#AB644E" />
    <path d="M0 168.586V201.884L138.518 282.078V248.78L0 168.586Z" fill="#98503D" />
    <path
        d="M210.783 206.594L190.945 218.177L165.884 203.709L167.844 199.495L183.396 190.639L210.783 206.594Z"
        fill="#C78159" />
    <path d="M115.338 153.109L229.64 88.4361V21.5951L115.338 86.2706V153.109Z" fill="#EAEAF7" />
    <path d="M165.884 182.406L280.185 117.73V50.8917L165.884 115.564V182.406Z" fill="#EAEAF7" />
    <path d="M165.884 182.406L280.185 117.73V67.981L165.884 132.654V182.406Z" fill="#EAEAF7" />
    <path d="M165.884 115.564L140.612 64.0701L115.338 86.2704V153.109L165.884 182.406V115.564Z"
        fill="#DDBF99" />
    <path d="M165.884 146.751L115.338 117.457V153.109L165.884 182.406V146.751Z" fill="#C3A583" />
    <path d="M30.0637 96.0534L136.216 151.069V228.383L30.02 169.726L30.0637 96.0534Z" fill="#EAEAF7" />
    <path d="M30.0637 121.096L136.216 179.88V228.383L30.02 169.726L30.0637 121.096Z" fill="#EAEAF7" />
    <path d="M136.216 226.937L199.929 189.409V121.439L136.216 154.912V226.937Z" fill="white" />
    <path d="M199.853 111.681V142.851L136.23 179.957V145.791L170.681 102.059L199.853 111.681Z"
        fill="white" />
    <path d="M170.681 102.059L132.938 152.943L18.4563 89.2243L56.4887 38.5099L170.681 102.059Z"
        fill="#7E80C8" />
    <path d="M170.681 102.059L205.04 111.801L90.5555 48.0855L56.4886 38.5099L170.681 102.059Z"
        fill="#505BB2" />
    <path
        d="M170.681 102.059L205.04 111.801L203.234 114.233L171.316 106.008L134.901 154.306L132.938 152.94L170.681 102.059Z"
        fill="#6269BB" />
    <path d="M125.779 72.3859L254.914 0.000205994L280.185 51.4946L188.34 102.978L125.779 72.3859Z"
        fill="#7E80C8" />
    <path d="M125.778 72.3857L254.914 5.34058e-05L211.809 12.7666L119.961 64.2501L125.778 72.3857Z"
        fill="#6269BB" />
    <path d="M145.042 208.773L164.894 197.313V170.845L145.042 182.307V208.773Z" fill="#8E483E" />
    <path d="M163.424 173.206V196.282L146.637 205.972V182.899L163.424 173.206Z" fill="#9793D1" />
    <path d="M145.576 195.314L164.324 184.492V186.033L145.576 196.858V195.314Z" fill="#8E483E" />
    <path d="M157.476 200.359H158.806V174.903L157.476 175.732V200.359Z" fill="#8E483E" />
    <path d="M151.516 203.709H152.845V178.637L151.516 179.187V203.709Z" fill="#8E483E" />
    <path d="M90.3753 190.181L70.5232 178.718V152.25L90.3753 163.713V190.181Z" fill="#8E483E" />
    <path d="M71.993 154.612V177.687L88.7797 187.38V164.304L71.993 154.612Z" fill="#9793D1" />
    <path d="M89.8407 176.719L71.0931 165.897V167.438L89.8407 178.263V176.719Z" fill="#8E483E" />
    <path d="M77.9439 181.765H76.6102V156.308L77.9439 157.137V181.765Z" fill="#8E483E" />
    <path d="M83.9004 185.114H82.5695V160.042L83.9004 160.593V185.114Z" fill="#8E483E" />
    <path d="M107.135 172.972L120.905 180.919V207.391L107.135 199.44V172.972Z" fill="#8E483E" />
    <path d="M108.332 175.176L119.312 181.514V204.587L108.332 198.249V175.176Z" fill="#9793D1" />
    <path d="M107.533 186.518L120.37 193.928V195.472L107.533 188.062V186.518Z" fill="#8E483E" />
    <path d="M114.43 202.323H113.102V177.254L114.43 177.805V202.323Z" fill="#8E483E" />
    <path d="M41.4666 136.368L55.234 144.319V170.787L41.4666 162.837V136.368Z" fill="#8E483E" />
    <path d="M42.661 138.572L53.6385 144.91V167.986L42.661 161.645V138.572Z" fill="#9793D1" />
    <path d="M41.8644 149.915L54.6991 157.325V158.869L41.8644 151.456V149.915Z" fill="#8E483E" />
    <path d="M48.7595 165.72H47.4313V140.65L48.7595 141.201V165.72Z" fill="#8E483E" />
    <path d="M90.3753 149.026L70.5232 137.566V124.412L90.3753 135.875V149.026Z" fill="#8E483E" />
    <path d="M71.993 126.776V136.535L88.7797 146.225V136.467L71.993 126.776Z" fill="#9793D1" />
    <path d="M77.9439 140.61H76.6102V129.068L77.9439 129.897V140.61Z" fill="#8E483E" />
    <path d="M83.9004 143.959H82.5695V132.141L83.9004 132.695V143.959Z" fill="#8E483E" />
    <path d="M145.022 167.948L164.877 156.488V143.337L145.022 154.797V167.948Z" fill="#8E483E" />
    <path d="M163.404 145.699V155.457L146.618 165.15V155.392L163.404 145.699Z" fill="#9793D1" />
    <path d="M157.457 159.532H158.788V147.99L157.457 148.819V159.532Z" fill="#8E483E" />
    <path d="M151.497 162.881H152.828V151.066L151.497 151.617V162.881Z" fill="#8E483E" />
    <path d="M107.135 145.05L120.905 153V166.235L107.135 158.285V145.05Z" fill="#8E483E" />
    <path d="M108.332 147.24L119.312 153.578V163.432L108.332 157.094V147.24Z" fill="#9793D1" />
    <path d="M114.43 161.168H113.102V149.64L114.43 150.191V161.168Z" fill="#8E483E" />
    <path d="M187.419 130.017L173.649 137.967V151.202L187.419 143.252V130.017Z" fill="#8E483E" />
    <path d="M186.224 132.204L175.243 138.545V148.399L186.224 142.06V132.204Z" fill="#9793D1" />
    <path d="M180.123 146.135H181.454V134.607L180.123 135.158V146.135Z" fill="#8E483E" />
    <path d="M41.4666 108.296L55.234 116.246V129.479L41.4666 121.532V108.296Z" fill="#8E483E" />
    <path d="M42.661 110.483L53.6385 116.822V126.681L42.661 120.34V110.483Z" fill="#9793D1" />
    <path d="M48.7595 124.412H47.4313V112.884L48.7595 113.435V124.412Z" fill="#8E483E" />
    <path d="M247.692 121.025L267.544 109.562V83.0932L247.692 94.5561V121.025Z" fill="#8E483E" />
    <path d="M266.075 85.4578V108.531L249.285 118.224V95.148L266.075 85.4578Z" fill="#9793D1" />
    <path d="M248.227 107.565L266.974 96.7408V98.2844L248.227 109.109V107.565Z" fill="#8E483E" />
    <path d="M260.123 112.608H261.454V87.1515L260.123 87.9833V112.608Z" fill="#8E483E" />
    <path d="M254.164 115.957H255.495V90.8879L254.164 91.4415V115.957Z" fill="#8E483E" />
    <path d="M211.34 142.202L231.192 130.742V104.274L211.34 115.734V142.202Z" fill="#8E483E" />
    <path d="M229.722 106.635V129.711L212.935 139.401V116.328L229.722 106.635Z" fill="#9793D1" />
    <path d="M211.875 128.743L230.622 117.918V119.462L211.875 130.286V128.743Z" fill="#8E483E" />
    <path d="M223.773 133.789H225.104V108.332L223.773 109.161V133.789Z" fill="#8E483E" />
    <path d="M217.814 137.138H219.145V112.066L217.814 112.619V137.138Z" fill="#8E483E" />
    <path
        d="M174.186 204.543L187.474 196.871V166.085C187.474 161.195 184.498 158.945 180.83 161.064C177.159 163.183 174.186 168.864 174.186 173.757V204.543Z"
        fill="#8E483E" />
    <path
        d="M179.158 177.444L182.499 175.516V167.776C182.499 166.546 181.751 165.979 180.83 166.513C179.905 167.045 179.158 168.474 179.158 169.704V177.444Z"
        fill="#9793D1" />
    <path d="M179.223 208.648L199.392 197.002L190.85 192.068L170.681 203.714L179.223 208.648Z"
        fill="#A5564D" />
    <path d="M179.223 211.337V208.648L170.681 203.714V206.403L179.223 211.337Z" fill="#98503D" />
    <path d="M199.392 197.002V199.691L179.223 211.337V208.648L199.392 197.002Z" fill="#8E483E" />
    <path d="M222.388 75.2029L215.543 63.4482H222.388V75.2029Z" fill="#D2DAF1" />
    <path d="M222.388 75.2029L246.528 61.2691V49.4844L235.204 40.0724L222.388 50.1307V75.2029Z"
        fill="#EAEAF7" />
    <path
        d="M248.799 52.9701L235.095 43.0644L220.583 69.3285L218.605 67.943L234.459 38.4307L250.021 51.0909L248.799 52.9701Z"
        fill="#505BB2" />
    <path d="M214.716 26.5777L234.459 38.4306L218.605 67.9429L212.289 64.6101L214.716 26.5777Z"
        fill="#6269BB" />
    <path d="M240.776 62.4721L229.512 68.974V57.6502L240.776 51.1482V62.4721Z" fill="#723231" />
    <path d="M239.673 61.6839L230.613 66.9149V58.5011L239.673 53.2674V61.6839Z" fill="#9793D1" />
    <path d="M235.973 64.9073H234.787V55.2663L235.973 54.6036V64.9073Z" fill="#723231" />
    <path d="M240.217 58.1301L230.033 64.0103L229.888 62.5347L240.124 56.6247L240.217 58.1301Z"
        fill="#723231" />
    <path d="M76.1634 88.4796L67.3079 83.3659V64.5338L76.1634 69.6475V88.4796Z" fill="#D2DAF1" />
    <path d="M82.0406 80.3222L76.1632 88.4796V69.6475L82.0406 66.2765V80.3222Z" fill="#EAEAF7" />
    <path d="M82.0408 66.2765L76.2071 69.7047L67.3079 64.5664L73.1416 61.1382L82.0408 66.2765Z"
        fill="#EAEAF7" />
    <path d="M80.453 66.2766L76.1629 68.7993L68.8237 64.5557L73.1165 62.0356L80.453 66.2766Z"
        fill="#D2DAF1" />
    <path
        d="M279.22 252.697C279.61 253.801 280.532 256.049 281.699 258.02C283.188 260.543 281.527 262.436 279.561 263.091C277.45 263.791 274.496 263.333 269.574 260.71C264.654 258.086 262.496 255.49 262.322 253.801C262.147 252.113 264.624 249.659 268.875 250.989C273.127 252.318 275.287 253.321 275.287 253.321L279.22 252.697Z"
        fill="#F4689C" />
    <path
        d="M308.154 229.277C308.154 229.277 312.491 231.874 314.045 232.844C314.075 233.537 313.205 235.542 310.811 239.815C308.416 244.086 304.145 246.312 300.646 244.035C297.152 241.757 294.777 238.097 297.711 237.11C300.646 236.123 303.172 237.11 303.172 237.11C303.172 237.11 304.153 234.765 305.217 232.239C306.281 229.714 308.154 229.277 308.154 229.277Z"
        fill="#F4689C" />
    <path
        d="M314.045 232.845C314.045 232.845 310.213 233.142 309.049 237.11C307.884 241.076 305.672 244.037 304.698 244.839C308.154 244.427 309.223 243.236 311.38 239.183C313.2 235.76 315.016 233.502 314.045 232.845Z"
        fill="#723231" />
    <path
        d="M303.812 235.58C304.014 235.588 303.452 237.036 303.804 238.381C304.197 239.878 303.992 240.808 303.043 239.862C302.097 238.913 302.642 236.949 302.642 236.949C302.642 236.949 302.909 235.55 303.812 235.58Z"
        fill="#723231" />
    <path
        d="M272.287 252.132C271.832 252.487 269.819 253.313 268.605 254.849C267.389 256.384 266.061 255.124 266.933 253.569C267.809 252.018 270.064 251.368 270.064 251.368C270.064 251.368 271.867 251.69 272.287 252.132Z"
        fill="#723231" />
    <path
        d="M295.273 176.858C295.273 176.858 299.271 178.642 300.651 186.213C301.273 189.616 300.138 194.607 298.698 199.069C296.942 204.527 294.733 209.193 294.733 209.193C294.733 209.193 299.077 211.086 302.841 216.505C305.236 219.947 310.142 230.551 310.142 230.551C310.142 230.551 309.602 231.903 307.979 233.253C306.359 234.606 304.096 234.606 304.096 234.606C304.096 234.606 294.733 223.421 290.407 217.929C286.079 212.436 284.222 212.842 284.393 208.923C284.541 205.566 284.222 188.916 284.222 188.916L295.273 176.858Z"
        fill="#723231" />
    <path
        d="M274.884 186.366C274.884 186.366 269.841 193.31 266.263 201.772C263.715 207.797 261.411 215.264 260.292 219.069C259.84 220.61 260.033 222.527 260.756 224.095C262.461 227.799 265.682 234.814 268.065 240.138C271.461 247.717 272.115 251.794 273.1 254.71C274.559 256.556 278.65 256.422 279.711 254.71C279.692 249.672 280.567 248.535 279.711 239.218C278.519 226.277 271.614 222.726 271.614 222.726C271.614 222.726 275.042 218.894 275.988 213.129C281.396 210.696 284.407 205.602 286.235 202.138C294.106 199.637 304.251 194.523 300.719 183.308C300.002 181.026 297.441 175.276 295.51 174.769C287.966 172.792 274.884 186.366 274.884 186.366Z"
        fill="#8E483E" />
    <path
        d="M264.269 122.797C266.317 120.523 269.44 119.986 272.426 120.924C275.263 121.816 276.749 123.452 277.349 125.44C277.548 126.103 278.091 129.016 277.982 129.91C277.654 132.597 275.718 135.973 274.881 137.787C273.82 140.089 271.641 141.611 268.78 141.199C264.918 140.64 264.034 135.818 262.992 132.649C261.798 129.021 261.574 125.787 264.269 122.797Z"
        fill="#FAB5A6" />
    <path
        d="M280.327 138.155C280.327 138.155 286.297 130.54 293.045 136.636C298.344 141.42 297.059 148.407 296.759 153.363C296.389 159.48 292.546 167.566 291.488 168.303C289.377 169.773 284.527 171.074 284.527 171.074C284.527 171.074 277.933 140.871 280.327 138.155Z"
        fill="#F24B98" />
    <path
        d="M275.282 141.321C282.376 137.045 284.309 135.149 290.089 138.55C293.678 140.664 296.129 149.272 296.593 153.935C297.059 158.599 299.811 168.183 299.1 170.397C298.51 172.23 296.307 172.811 299.23 174.769C301.554 176.329 299.762 177.445 299.1 179.4C297.85 183.066 292.42 188.657 285.97 189.857C279.523 191.057 274.412 190.642 273.018 189.137C271.625 187.626 271.417 186.191 272.991 183.805C274.046 182.204 272.14 180.066 271.057 178.105C269.931 176.065 263.86 163.437 262.104 156.42C260.353 149.4 267.204 146.19 275.282 141.321Z"
        fill="#F4689C" />
    <path
        d="M276.092 128.105C276.092 128.105 277.112 132.13 277.995 133.936C279.264 136.524 281.74 138.035 281.74 138.035C281.74 138.035 284.707 141.313 280.949 143.637C277.191 145.96 271.881 143.143 271.881 143.143C271.881 143.143 271.521 140.937 269.421 137.375C267.896 134.781 276.092 128.105 276.092 128.105Z"
        fill="#FAB5A6" />
    <path
        d="M262.144 122.167C261.828 118.805 265.856 117.324 267.76 119.293C268.793 115.494 274.393 114.708 277.474 116.162C278.743 116.762 279.727 118.275 279.757 119.593C281.186 119.197 283.226 120.326 283.491 121.968C283.668 123.076 283.071 124.385 282.433 125.184C283.06 125.675 283.952 126.403 283.75 128.004C283.218 132.291 278.492 134.836 278.653 138.897C276.97 138.766 274.251 138.068 271.998 137.402C269.369 136.622 265.305 133.611 264.582 131.309C262.671 131.59 261.828 130.128 261.825 128.669C259.068 128.105 258.55 123.629 262.144 122.167Z"
        fill="#723231" />
    <path
        d="M270.506 133.153C272.17 136.038 269.189 137.719 269.189 137.719L266.552 134.792C266.552 134.792 268.619 129.886 270.506 133.153Z"
        fill="#FAB5A6" />
    <path
        d="M292.496 177.829C292.496 177.829 288.653 183.633 284.222 184.865C279.787 186.095 277.995 186.035 277.995 186.035C277.995 186.035 280.51 183.218 283.78 181.934C287.047 180.649 292.496 177.829 292.496 177.829Z"
        fill="#F24B98" />
    <path
        d="M282.035 136.802C283.644 137.127 286.063 139.925 282.853 143.312C279.643 146.705 273.874 145.066 272.293 144.556C270.711 144.046 270.711 144.046 270.711 144.046C270.711 144.046 270.648 141.575 274.24 141.06C276.411 140.749 279.572 139.628 280.327 138.155C281.115 136.614 281.115 136.614 282.035 136.802Z"
        fill="#F24B98" />
    <path
        d="M260.284 204.415C253.332 194.152 241.266 174.731 235.572 165.51L241.13 162.706C241.13 162.706 259.848 186.996 268.739 198.56C275.017 206.728 282.332 217.812 283.589 225.35C274.81 230.308 268.796 216.98 260.284 204.415Z"
        fill="#A0534B" />
    <path
        d="M281.519 232.441C272.879 238.43 265.226 223.61 254.017 205.722C242.808 187.833 232.427 167.097 232.427 167.097L235.572 165.51C241.267 174.731 253.332 194.152 260.284 204.415C268.796 216.98 274.81 230.308 283.589 225.35C284.113 228.478 283.597 231.001 281.519 232.441Z"
        fill="#723231" />
    <path
        d="M261.823 166.873C261.823 166.873 259.616 172.535 256.112 175.126C252.607 177.717 247.226 180.799 246.162 179.198C245.268 177.854 246.291 177.843 247.633 177.172C248.833 176.572 250.33 175.241 250.33 175.241L248.492 172.263C248.492 172.263 251.527 171.843 254.017 171.057C256.128 170.389 261.823 166.873 261.823 166.873Z"
        fill="#FAB5A6" />
    <path
        d="M187.49 122.116L187.716 121.608C191.845 112.851 200.084 107.377 200.084 107.377L198.374 110.085C211.364 101.729 229.891 103.376 243.345 115.202C256.725 126.965 260.762 145.003 254.284 158.926L256.493 157.369C256.493 157.369 251.985 165.425 245.104 170.46L244.763 170.692C231.735 180.45 212.057 179.209 197.965 166.819C184.269 154.778 180.349 136.161 187.49 122.116Z"
        fill="#723231" />
    <path
        d="M195.104 111.932C182.572 126.185 185.321 149.088 201.246 163.088C217.168 177.087 240.233 176.88 252.765 162.627C253.005 162.357 253.237 162.081 253.463 161.803C265.188 147.504 262.245 125.205 246.623 111.471C230.701 97.4741 207.633 97.6786 195.104 111.932Z"
        fill="#A0534B" />
    <path
        d="M241.062 116.427C228.156 105.081 210.194 103.799 198.115 112.475C209.911 100.224 230.578 100.325 244.976 112.982C259.744 125.961 262.291 147.204 250.673 160.421C249.206 162.087 247.583 163.544 245.838 164.798C246.14 164.482 246.465 164.198 246.757 163.865C258.378 150.649 255.828 129.409 241.062 116.427Z"
        fill="#723231" />
    <path
        d="M237.268 113.511H197.117L197.199 113.407C197.488 113.077 197.812 112.791 198.115 112.474C198.51 112.191 198.928 111.948 199.337 111.684H234.345C235.337 112.245 236.311 112.854 237.268 113.511Z"
        fill="#9793D1" />
    <path
        d="M246.757 163.865C246.465 164.198 246.14 164.482 245.838 164.798C233.758 173.474 215.796 172.195 202.893 160.849C195.082 153.982 190.73 144.804 190.042 135.728H252.967C255.465 145.682 253.548 156.142 246.757 163.865Z"
        fill="#9793D1" />
    <path
        d="M251.527 131.228H189.988C190.088 129.605 190.331 128.004 190.678 126.428H249.206C250.1 127.99 250.878 129.591 251.527 131.228Z"
        fill="#9793D1" />
    <path d="M229.64 109.434H203.529C211.476 105.975 220.91 105.973 229.64 109.434Z" fill="#9793D1" />
    <path
        d="M241.062 116.426C244.43 119.391 247.133 122.797 249.206 126.427H190.678C191.714 121.726 193.822 117.291 197.117 113.511H237.268C238.567 114.403 239.843 115.355 241.062 116.426Z"
        fill="#9793D1" />
    <path
        d="M249.206 126.427H190.678C191.714 121.726 193.822 117.291 197.117 113.511H237.268C238.567 114.403 239.843 115.355 241.062 116.426C244.43 119.391 247.133 122.797 249.206 126.427Z"
        fill="#CBC5E8" />
    <path
        d="M252.967 135.728H190.042C189.928 134.222 189.895 132.717 189.988 131.228H251.527C252.11 132.709 252.585 134.211 252.967 135.728Z"
        fill="#9793D1" />
    <path
        d="M252.967 135.728H190.042C189.971 134.811 189.933 133.892 189.933 132.979C189.936 132.395 189.952 131.811 189.988 131.228H251.527C252.11 132.709 252.585 134.211 252.967 135.728Z"
        fill="#CBC5E8" />
    <path
        d="M229.64 109.434C231.238 110.066 232.809 110.819 234.345 111.684H199.337C200.679 110.819 202.072 110.066 203.529 109.434H229.64Z"
        fill="#9793D1" />
    <path
        d="M234.345 111.684H199.337C200.679 110.819 202.072 110.066 203.529 109.434H229.64C231.238 110.066 232.809 110.819 234.345 111.684Z"
        fill="#CBC5E8" />
    <path
        d="M239.218 180.955C241.136 180.349 242.546 182.038 243.95 181.391C244.209 181.274 246.391 186.292 246.391 186.292C244.894 187.721 244.438 188.49 243.29 188.766C239.769 189.611 238.711 186.03 238.204 184.653C237.628 183.104 238.531 181.17 239.218 180.955Z"
        fill="#FAB5A6" />
    <path
        d="M266.999 178.5C266.622 179.864 265.758 180.475 264.312 179.91C260.341 182.002 251.794 185.507 246.435 187.462C243.672 187.459 243.339 181.825 244.215 181.151C246.691 179.25 249.004 177.248 252.077 175.053C254.21 173.534 256.818 169.808 257.865 170.171C257.112 168.96 258.176 168.45 258.991 168.772C259.646 164.741 261.184 152.457 262.19 151.115C267.113 144.57 270.904 144.155 273.901 146.782C276.591 149.138 277.251 155.994 274.755 163.069C272.991 168.066 272.685 170.245 269.794 174.606L266.999 178.5Z"
        fill="#F24B98" />
</svg>