<svg width="200" height="200" viewBox="0 0 200 200" fill="none" xmlns="http://www.w3.org/2000/svg">
    <circle cx="100" cy="100" r="100" fill="#87BBD8" />
    <mask id="mask0_862_1263" style="mask-type:alpha" maskUnits="userSpaceOnUse" x="0" y="0"
        width="200" height="200">
        <circle cx="100" cy="100" r="100" fill="#D9D9D9" />
    </mask>
    <g mask="url(#mask0_862_1263)">
        <path
            d="M59.3365 215.691C29.9263 215.691 22.2 202.554 21.9259 201.459C21.9091 201.391 21.7505 201.36 21.4637 201.36C20.2098 201.36 16.5151 201.944 11.581 202.528C6.64518 203.112 0.472206 203.695 -5.74116 203.695C-16.3595 203.695 -27.091 201.989 -31.927 195.662C-33.7504 193.278 -1.0546 192.812 24.7775 192.812C41.3403 192.812 55.0861 193.003 55.0861 193.003C55.0861 193.003 38.7951 179.367 110.611 179.367C133.57 179.367 165.548 180.762 209.924 184.442C231.457 186.228 238.423 189.178 226.813 198.418C220.272 203.624 201.406 205.112 180.395 205.111C166.365 205.111 151.375 204.447 138.47 203.783C125.565 203.119 114.739 202.456 109.03 202.456C106.922 202.456 105.512 202.546 104.951 202.76C99.0765 205.005 100.364 213.45 65.6895 215.499C63.4651 215.63 61.3526 215.691 59.3365 215.691Z"
            fill="#ECE3DA" />
        <path
            d="M11.2406 5.27472C11.2406 5.27472 25.3321 -19.0681 62.5604 -14.4069C99.7881 -9.74573 95.6918 11.4898 121.466 10.4541C147.24 9.41832 175.301 -5.60213 198.196 23.8969C224.754 58.1178 179.37 87.2245 197.395 108.137C229.691 145.606 197.395 189.771 125.269 181.388C65.4541 174.436 64.9181 164.682 30.1981 176.496C-4.52245 188.309 -36.0919 144.683 -23.4793 110.526C-10.8674 76.369 21.1902 89.3924 6.17033 61.5003C-8.84955 33.6082 11.2406 5.27472 11.2406 5.27472Z"
            fill="#FDE2CB" />
        <path d="M-11.8685 114.008V152.209H36.0825V114.008H-11.8685Z" fill="#F79D59" />
        <path d="M17.9595 114.008V152.209H39.3387V114.008H17.9595Z" fill="#F57F56" />
        <path d="M6.6163 126.608H-1.29639V114.007H6.6163V126.608Z" fill="#F9BB76" />
        <path
            d="M-1.29639 126.609V127.73L0.0226767 126.609L-1.29639 125.487V126.609ZM0.0226767 126.609L1.34118 127.73L2.65968 126.609L1.34118 125.487L0.0226767 126.609ZM2.65968 126.609L3.97874 127.73L5.29724 126.609L3.97874 125.487L2.65968 126.609ZM5.29724 126.609L6.6163 127.73V125.487L5.29724 126.609Z"
            fill="#F9BB76" />
        <path
            d="M-2.07532 153.117C-2.07532 153.117 -5.18489 148.103 -5.8854 142.908C-6.5859 137.714 -9.08729 128.188 -10.692 126.059C-12.2967 123.93 -1.01071 129.297 -0.758553 139.5C-0.599295 145.922 3.80684 149.116 2.09828 151.838C0.390298 154.56 -2.07532 153.117 -2.07532 153.117Z"
            fill="#1B6A72" />
        <path
            d="M-0.17876 146.877C-0.17876 146.877 -3.35353 137.102 0.979904 126.824C3.64228 120.509 0.574834 114.752 1.786 116.061C2.99717 117.372 7.06633 118.915 6.63414 126.582C6.20195 134.248 5.15697 141.536 5.88979 145.064C6.62318 148.59 7.53026 150.405 4.70862 150.405C1.88699 150.405 -0.17876 146.877 -0.17876 146.877Z"
            fill="#1B6A72" />
        <path
            d="M5.10038 148.8C5.03979 148.378 3.75304 139.146 7.07438 133.744C10.3957 128.343 8.08993 121.301 9.02932 122.101C9.96871 122.901 13.8815 128.193 12.9992 134.972C12.117 141.751 9.71252 147.49 8.94392 149.203C8.17533 150.916 5.39004 150.811 5.10038 148.8Z"
            fill="#1B6A72" />
        <path
            d="M10.4582 145.43H-5.64824C-6.88307 145.43 -7.80054 146.574 -7.53222 147.78L-5.50514 156.887C-5.30895 157.77 -4.52536 158.398 -3.62117 158.398H8.43109C9.33528 158.398 10.1189 157.77 10.3151 156.887L12.3421 147.78C12.6104 146.574 11.693 145.43 10.4582 145.43Z"
            fill="#F04C47" />
        <path d="M4.6084 152.209V194.321H57.5876V152.209H4.6084Z" fill="#DA4B4D" />
        <path d="M99.7229 118.206V155.154H151.171V118.206H99.7229Z" fill="#F79D59" />
        <path d="M127.737 118.206V155.154H151.015V118.206H127.737Z" fill="#F57F56" />
        <path
            d="M135.42 118.206V131.928L136.738 130.807L138.057 131.928L139.376 130.807L140.695 131.928L142.013 130.807L143.332 131.928V118.206H135.42ZM5.7884 167.292H-1.73828V155.305H5.7884V167.292Z"
            fill="#F9BB76" />
        <path
            d="M-1.73828 167.292V168.358L-0.483823 167.292L-1.73828 166.225V167.292ZM-0.483823 167.292L0.770622 168.358L2.02507 167.292L0.770622 166.225L-0.483823 167.292ZM2.02507 167.292L3.27951 168.358L4.53396 167.292L3.27951 166.225L2.02507 167.292ZM4.53396 167.292L5.7884 168.358V166.225L4.53396 167.292Z"
            fill="#F9BB76" />
        <path
            d="M196.393 112.711H165.239C155.22 112.711 147.023 120.908 147.023 130.927V167.321C147.023 177.34 155.22 185.537 165.239 185.537H196.393C206.412 185.537 214.609 177.34 214.609 167.321V130.927C214.609 120.908 206.412 112.711 196.393 112.711Z"
            fill="#1B6A72" />
        <path
            d="M198.513 156.034H163.119C154.266 156.034 147.023 163.278 147.023 172.131V188.759C147.023 192.576 150.146 195.699 153.963 195.699H207.102C211.248 195.699 214.609 192.338 214.609 188.192V172.131C214.609 163.278 207.366 156.034 198.513 156.034Z"
            fill="#17545B" />
        <path
            d="M146.103 147.098H141.743C137.935 147.098 134.819 150.214 134.819 154.022V189.107C134.819 192.916 137.935 196.032 141.743 196.032H146.103C149.912 196.032 153.028 192.916 153.028 189.107V154.022C153.028 150.214 149.912 147.098 146.103 147.098ZM219.889 147.098H215.529C211.721 147.098 208.605 150.214 208.605 154.022V189.107C208.605 192.916 211.721 196.032 215.529 196.032H219.889C223.697 196.032 226.813 192.916 226.813 189.107V154.022C226.813 150.214 223.697 147.098 219.889 147.098Z"
            fill="#185E65" />
        <path d="M144.473 165.992L144.572 196.096L187.094 196.039L186.994 165.935L144.473 165.992Z"
            fill="#F79D59" />
        <path d="M177.947 165.947L178.047 196.05L189.847 196.035L189.747 165.931L177.947 165.947Z"
            fill="#F57F56" />
        <path
            d="M156.797 165.935V177.272L157.887 176.346L158.976 177.272L160.066 176.346L161.155 177.272L162.245 176.346L163.334 177.272V165.935H156.797Z"
            fill="#F9BB76" />
        <path d="M95.3784 153.984V196.096H144.571V153.984H95.3784Z" fill="#F47855" />
        <path d="M135.468 153.984V196.096H144.687V153.984H135.468Z" fill="#DA4B4D" />
        <path
            d="M111.211 153.984V167.706L112.529 166.585L113.848 167.706L115.167 166.585L116.486 167.706L117.804 166.585L119.123 167.706V153.984H111.211Z"
            fill="#F9BB76" />
        <path
            d="M163.335 161.428H176.107C177.175 161.428 178.048 162.301 178.048 163.368V165.508H161.394V163.368C161.394 162.301 162.267 161.428 163.335 161.428Z"
            fill="#2C2549" />
        <path
            d="M169.838 148.972H169.604C168.346 148.972 167.317 150.001 167.317 151.259V161.181C167.317 162.439 168.346 163.468 169.604 163.468H169.838C171.096 163.468 172.125 162.439 172.125 161.181V151.259C172.125 150.001 171.096 148.972 169.838 148.972Z"
            fill="#2C2549" />
        <path
            d="M157.465 154.037H181.977C183.857 154.037 185.253 152.296 184.845 150.461L181.76 136.6C181.461 135.256 180.269 134.3 178.892 134.3H160.549C159.173 134.3 157.981 135.256 157.682 136.6L154.597 150.461C154.189 152.296 155.585 154.037 157.465 154.037Z"
            fill="#FBC180" />
        <path
            d="M78.0944 73.7441C78.0944 73.7441 88.3296 89.446 88.4963 95.1303C88.6637 100.814 78.5012 107.248 73.9669 104.345C69.4327 101.442 64.8425 88.5718 63.8241 83.1732C62.8062 77.774 72.6306 64.5914 78.0944 73.7441Z"
            fill="#F47684" />
        <path d="M63.824 85.739V112.491H95.0749V85.739H63.824Z" fill="#F79D59" />
        <path d="M62.1021 85.739V112.491H78.6834V85.739H62.1021Z" fill="#F57F56" />
        <path
            d="M45.6272 42.4322C45.6272 42.4322 48.0218 53.6726 46.6831 54.8116C45.3438 55.9501 35.9661 57.9604 35.0532 56.9853C34.1404 56.0101 31.5178 47.7639 31.2293 46.1125C30.9402 44.4616 45.6272 42.4322 45.6272 42.4322Z"
            fill="#F47684" />
        <path
            d="M44.0564 52.3029C44.0564 52.3029 44.5844 59.3177 46.0287 61.2311C47.473 63.1439 54.6298 63.1266 55.1081 64.0828C55.5865 65.0395 50.957 77.2227 46.1712 77.727C36.3013 78.768 25.927 67.7249 26.5265 66.6263C27.126 65.5276 35.2615 64.2599 36.3451 62.8254C37.4288 61.3904 35.4375 51.6653 35.4375 51.6653L44.0564 52.3029Z"
            fill="#F47684" />
        <path
            d="M30.7971 38.4625C30.7971 38.4625 36.483 34.3898 42.7247 38.2945C48.9663 42.1987 48.0454 55.4834 40.4535 56.2855C33.8737 56.9808 27.3805 45.8807 30.7971 38.4625Z"
            fill="#F47684" />
        <path
            d="M33.191 50.0686C33.191 50.0686 30.8558 45.4594 29.3665 49.1806C28.5344 51.2585 30.048 52.4956 31.3699 53.1915C33.7651 54.4523 34.7259 51.2233 33.191 50.0686ZM45.3286 47.1206C45.3286 47.1206 44.3598 43.0007 47.2836 44.4813C48.916 45.3082 48.6136 46.8991 48.1445 48.0514C47.2951 50.139 44.9686 48.6723 45.3286 47.1206Z"
            fill="#F47684" />
        <path
            d="M31.8363 51.855C31.666 51.2583 31.4075 50.8804 31.0688 50.7304C30.6886 50.5619 30.3129 50.7379 30.3095 50.7396L30.0498 50.2145C30.0752 50.2024 30.6724 49.9145 31.306 50.1949C31.8109 50.4182 32.1784 50.9225 32.3994 51.6934L31.8363 51.855Z"
            fill="#F2557C" />
        <path
            d="M29.5149 44.1528C29.5149 44.1528 27.2783 37.1288 30.8963 34.9724C33.3544 33.5079 40.3738 31.6471 41.9808 32.9217C43.5884 34.1969 44.7771 39.5574 44.765 40.2025C44.7523 40.8477 29.5149 44.1528 29.5149 44.1528Z"
            fill="#1B6A72" />
        <path
            d="M32.7324 43.4745C32.7324 43.4745 33.3545 46.2188 32.7324 46.9764C32.1104 47.734 33.5778 50.6428 33.5778 50.963C33.5778 51.2839 31.8738 50.9527 30.785 48.0652C29.6962 45.1778 29.0683 43.9695 29.8554 43.8397C30.643 43.7105 32.4076 43.0486 32.7324 43.4745ZM42.5337 41.0614C42.5337 41.0614 43.5885 43.6712 44.5314 43.9384C45.4742 44.2055 45.9283 47.4317 46.1113 47.6948C46.2942 47.9585 47.5048 46.7144 46.7518 43.7214C45.9993 40.729 45.8256 39.3782 45.1055 39.7209C44.3848 40.0637 42.558 40.527 42.5337 41.0614Z"
            fill="#2C2549" />
        <path
            d="M29.8552 43.8401C29.8552 43.8401 38.0507 41.5124 40.6807 38.6861C43.3108 35.8593 46.4884 33.3873 48.2749 34.917C50.0608 36.4467 48.9414 38.9175 43.6876 40.6861C38.4338 42.4547 34.5545 43.3554 29.8552 43.8401Z"
            fill="#2C2549" />
        <path
            d="M38.2839 57.0715C38.2839 57.0715 43.6657 56.6116 44.4586 55.7703C44.4586 55.7703 45.4955 60.2896 45.6824 60.6415C45.8694 60.9935 42.012 60.8568 40.2036 60.1349C38.3958 59.4136 37.5539 57.4097 38.2839 57.0715Z"
            fill="#F2557C" />
        <path
            d="M36.3452 62.8255C36.3452 62.8255 40.1662 70.1093 44.7651 67.9789C49.3639 65.8491 46.6571 61.9271 49.091 61.8036C51.5243 61.6796 57.9304 60.4095 62.9003 63.2756C67.8707 66.1411 70.6243 82.3652 70.3421 94.0614C70.2752 96.8565 70.9509 115.557 68.8211 116.385C66.6907 117.212 32.6522 116.113 28.1059 116.467C23.5589 116.821 25.7199 97.3251 25.1267 92.8987C24.1827 85.8608 15.0761 68.7677 16.0225 67.2836C16.9693 65.7989 32.5264 62.0771 36.3452 62.8255ZM36.7422 195.377C36.7422 195.377 49.2658 202.151 46.4015 202.56C43.5377 202.969 32.9632 202.637 31.0008 202.56C29.2161 202.489 29.2161 201.742 29.2161 201.742L29.8641 194.857L36.7422 195.377ZM84.901 188.517C85.0042 187.435 96.9878 188.581 96.884 189.664C96.6087 192.544 85.4197 196.676 83.7071 197.636C81.7648 198.724 81.253 196.385 81.253 196.385L79.4573 191.117L84.901 188.517Z"
            fill="#2C2549" />
        <path
            d="M20.046 67.2836C20.046 67.2836 -10.2384 81.2556 -2.56685 97.1231C-2.56685 97.1231 2.80233 100.421 8.11093 98.328C13.4195 96.2345 26.4568 87.102 27.9847 83.6214C29.5132 80.1408 20.046 67.2836 20.046 67.2836Z"
            fill="#F47684" />
        <path
            d="M81.1763 78.7336C81.1763 78.7336 74.9716 81.917 63.8241 85.7392C61.2892 86.6082 55.661 61.4633 57.9546 60.8275C62.1542 59.6636 76.3755 64.731 81.1763 78.7336ZM5.58936 73.7441C5.58936 73.7441 13.7052 92.3992 17.457 90.9226C21.2093 89.4466 30.7994 82.7889 29.1284 78.8282C27.4573 74.8676 22.9502 64.6422 20.7471 65.3369C18.5435 66.0316 12.254 67.6225 5.58936 73.7441Z"
            fill="#2C2549" />
        <path
            d="M31.2246 63.0635C31.2246 63.0635 36.352 76.8722 40.0329 77.7966C43.7143 78.721 59.3227 75.7009 59.3227 75.7009C58.0959 69.1419 52.2796 61.4029 52.2796 61.4029C52.2796 61.4029 56.4826 60.3129 57.9546 60.8276C59.4265 61.3429 66.9082 70.6998 69.6895 82.6257C71.4078 89.9954 73.4724 116.701 73.4724 116.701C70.2469 120.709 27.0695 124.947 26.5017 122.561C21.466 101.415 32.7324 98.6017 31.2246 83.1739C30.4283 75.02 24.9524 64.2239 24.9524 64.2239C28.2905 62.8933 31.2246 63.0635 31.2246 63.0635Z"
            fill="#1B6A72" />
        <path
            d="M32.4261 76.8446C32.4261 76.8446 37.4814 72.6526 37.9955 70.1956C38.5096 67.7386 40.7173 72.4748 37.7509 75.6479C37.7509 75.6479 41.131 77.8596 40.9222 80.3397C40.7133 82.8197 39.7774 89.149 36.4387 87.7555C33.0995 86.362 27.9848 83.6217 27.9848 83.6217C27.9848 83.6217 27.1013 78.0419 32.4261 76.8446Z"
            fill="#F47684" />
        <path
            d="M32.426 76.8443C32.426 76.8443 4.48956 84.0225 -0.245483 88.9387C-4.9811 93.8549 -4.15826 100.256 5.58937 101.885C13.9971 103.29 28.8537 88.3553 31.8294 85.6029C34.8051 82.8505 32.426 76.8443 32.426 76.8443Z"
            fill="#F47684" />
        <path
            d="M24.9524 195.303C24.9524 195.303 35.5632 196.061 40.8216 195.377C46.0806 194.693 52.3355 169.605 53.2316 160.138C54.1277 150.671 55.1421 128.574 55.1421 128.574C55.1421 128.574 62.7236 142.989 65.015 153.956C66.5245 161.181 72.301 191.282 75.9022 191.379C79.9887 191.489 90.6913 187.701 90.577 184.783C90.5176 183.255 89.7911 152.564 85.8426 142.151C81.8946 131.736 73.9698 113.276 72.5688 112.329C71.1683 111.382 26.3303 119.066 26.5017 122.561C26.6731 126.056 29.8553 144.044 29.1283 152.117C28.8271 155.463 21.0771 195.607 24.9524 195.303Z"
            fill="#1B6A72" />
        <path
            d="M90.4991 182.372C90.4991 182.372 84.2719 188.668 81.7439 172.036C79.2154 155.404 80.9493 142.958 74.3852 131.124C67.821 119.29 67.8308 104.912 66.4228 96.5502C65.0149 88.1874 65.9907 72.778 66.4228 73.744C71.6645 85.4575 70.6414 87.7194 72.5687 96.5502C74.4965 105.38 75.0568 116.095 78.7157 124.754C82.3746 133.414 89.0023 138.336 90.4991 182.372ZM44.08 192.301C44.08 192.301 40.9104 192.045 39.6277 187.162C38.345 182.278 47.4094 158.221 46.8272 148.094C46.2455 137.969 55.2125 127.161 55.0844 129.798C54.9568 132.435 54.8807 152.128 53.025 161.917C51.1687 171.706 47.7106 187.122 44.08 192.301Z"
            fill="#467D7B" />
        <path
            d="M10.9416 84.5951C10.9416 84.5951 6.56372 86.4652 5.58913 86.9343C4.61397 87.4029 8.26535 79.3921 8.26535 79.3921C8.26535 79.3921 10.8314 83.1329 10.9416 84.5951Z"
            fill="#F2557C" />
        <path
            d="M82.0981 85.7612V99.4834L83.4166 98.3622L84.7357 99.4834L86.0542 98.3622L87.3733 99.4834L88.6918 98.3622L90.0103 99.4834V85.7612H82.0981Z"
            fill="#F9BB76" />
        <path
            d="M95.8429 96.1988C95.8429 96.1988 92.6953 95.9102 90.9278 97.4561C90.0888 98.1906 94.2971 98.5178 94.2971 98.5178C94.2971 98.5178 87.2943 99.4278 87.4576 100.683C87.6215 101.939 92.4743 101.334 92.4743 101.334C92.4743 101.334 86.8968 101.334 87.5044 102.494C88.449 104.298 92.184 103.394 92.184 103.394C92.184 103.394 87.5626 104.538 89.1679 105.25C90.7726 105.963 94.9751 105.717 96.6161 104.869C98.327 103.985 99.8925 97.7325 95.8429 96.1988Z"
            fill="#F47684" />
    </g>
</svg>