<svg width="200" height="201" viewBox="0 0 200 201" fill="none" xmlns="http://www.w3.org/2000/svg">
    <circle cx="100" cy="100.25" r="100" fill="#87BBD8" />
    <mask id="mask0_862_1395" style="mask-type:alpha" maskUnits="userSpaceOnUse" x="0" y="0"
        width="200" height="201">
        <circle cx="100" cy="100.25" r="100" fill="#D9D9D9" />
    </mask>
    <g mask="url(#mask0_862_1395)">
        <path
            d="M103.537 166.998C52.9825 166.998 12 163.926 12 160.137C12 159.524 13.0713 158.93 15.0813 158.365L15.0814 158.365C15.0814 158.365 16.9242 157.93 20.5492 157.336C20.5411 157.304 20.533 157.273 20.525 157.241C21.6036 157.068 22.7748 156.899 24.0364 156.734C24.0425 156.757 24.0475 156.776 24.0537 156.8C25.548 156.586 27.2269 156.365 29.0868 156.144C33.1254 155.722 37.7873 155.335 42.9726 154.992C43.1009 156.876 44.6706 158.365 46.5878 158.365H109.119C110.937 160.549 113.144 163.656 114.925 166.945C111.194 166.98 107.394 166.998 103.537 166.998ZM138.602 166.477C137.877 163.817 137.046 160.705 136.473 158.365H163.161C164.802 158.365 166.189 157.273 166.634 155.776C166.654 155.71 166.672 155.643 166.688 155.575C169.299 155.743 171.816 155.929 174.217 156.134C177.856 156.445 181.229 156.799 184.277 157.204C184.303 157.109 184.329 157.007 184.354 156.912C187.723 157.385 190.373 157.892 192.195 158.423C192.185 158.459 192.176 158.494 192.166 158.531C192.195 158.537 192.225 158.544 192.254 158.55C192.264 158.516 192.272 158.482 192.281 158.448C194.105 158.988 195.075 159.554 195.075 160.137C195.075 162.995 171.756 165.445 138.602 166.477ZM122.36 162.637C121.974 162.637 121.526 162.44 120.97 162.015C122.343 160.687 121.384 158.866 121.077 158.365H123.742C123.941 159.035 124.268 159.548 124.422 159.763C122.754 161.088 122.447 162.633 122.447 162.633C122.418 162.636 122.389 162.637 122.36 162.637Z"
            fill="#87BBD8" />
        <path
            d="M163.161 158.365H46.5878C44.5863 158.365 42.9639 156.743 42.9639 154.741C42.9639 152.74 44.5863 151.118 46.5878 151.118H163.161C165.162 151.118 166.784 152.74 166.784 154.741C166.784 156.743 165.162 158.365 163.161 158.365Z"
            fill="#ACACAD" />
        <path
            d="M81.8845 151.118H70.5403V149.557H81.8845V151.118ZM124.339 151.118H135.684V149.556H124.339V151.118Z"
            fill="#868687" />
        <path
            d="M152.011 86.2543H57.7374C53.9063 86.2543 50.8005 89.2604 50.8005 92.9686V143.623C50.8005 147.331 53.9063 150.337 57.7374 150.337H152.011C155.843 150.337 158.949 147.331 158.949 143.623V92.9686C158.949 89.2604 155.843 86.2543 152.011 86.2543Z"
            fill="#494948" />
        <path
            d="M57.7372 144.854C56.505 144.854 55.5024 143.951 55.5024 142.843V92.1878C55.5024 91.0789 56.505 90.1764 57.7372 90.1764H152.011C153.244 90.1764 154.245 91.0789 154.245 92.1878V142.843C154.245 143.951 153.244 144.854 152.011 144.854H57.7372Z"
            fill="#B5E3EE" />
        <path
            d="M57.7372 144.854C56.505 144.854 55.5024 143.951 55.5024 142.843V92.1878C55.5024 91.0789 56.505 90.1764 57.7372 90.1764H152.011C153.244 90.1764 154.245 91.0789 154.245 92.1878V142.843C154.245 143.951 153.244 144.854 152.011 144.854H57.7372Z"
            fill="#B5E3EE" />
        <path
            d="M58.8906 123.998V106.966L63.158 104.908V109.129C63.158 107.95 62.2028 106.995 61.0245 106.995C59.8459 106.995 58.8906 107.95 58.8906 109.129V123.998Z"
            fill="#C7EAF2" />
        <path
            d="M58.8906 123.998V109.129C58.8906 107.95 59.8459 106.995 61.0245 106.995C62.2028 106.995 63.158 107.95 63.158 109.129V120.773C63.158 119.594 62.2028 118.639 61.0245 118.639C59.8459 118.639 58.8906 119.594 58.8906 120.773V123.998Z"
            fill="#D4EFF5" />
        <path
            d="M61.0245 126.131C59.8459 126.131 58.8906 125.176 58.8906 123.998V120.773C58.8906 119.595 59.8459 118.639 61.0245 118.639C62.2028 118.639 63.158 119.595 63.158 120.773V123.998C63.158 125.176 62.2028 126.131 61.0245 126.131Z"
            fill="#DEF3F7" />
        <path
            d="M61.0245 139.025C59.8459 139.025 58.8906 138.07 58.8906 136.891V133.667C58.8906 132.488 59.8459 131.533 61.0245 131.533C62.2028 131.533 63.158 132.488 63.158 133.667V136.891C63.158 138.07 62.2028 139.025 61.0245 139.025Z"
            fill="#DEF3F8" />
        <path
            d="M146.671 122.574V99.4879C146.671 98.3097 147.627 97.3544 148.805 97.3544C149.984 97.3544 150.939 98.3097 150.939 99.4879V107.706C150.939 106.527 149.984 105.572 148.805 105.572C147.627 105.572 146.671 106.527 146.671 107.706V122.574Z"
            fill="#C7EAF2" />
        <path
            d="M146.671 122.574V107.706C146.671 106.527 147.627 105.572 148.805 105.572C149.984 105.572 150.939 106.527 150.939 107.706V119.35C150.939 118.171 149.984 117.216 148.805 117.216C147.627 117.216 146.671 118.171 146.671 119.35V122.574Z"
            fill="#D4EFF5" />
        <path
            d="M148.805 124.708C147.627 124.708 146.671 123.753 146.671 122.575V119.35C146.671 118.172 147.627 117.216 148.805 117.216C149.984 117.216 150.939 118.172 150.939 119.35V122.575C150.939 123.753 149.984 124.708 148.805 124.708Z"
            fill="#DEF3F7" />
        <path
            d="M148.805 137.602C147.627 137.602 146.671 136.647 146.671 135.468V132.244C146.671 131.065 147.627 130.11 148.805 130.11C149.984 130.11 150.939 131.065 150.939 132.244V135.468C150.939 136.647 149.984 137.602 148.805 137.602Z"
            fill="#DEF3F8" />
        <path d="M134.001 142.63L75.9683 142.791L75.7474 63.4117L133.78 63.2502L134.001 142.63Z"
            fill="white" />
        <path
            d="M100.076 134.735L86.4131 134.773C85.0975 134.777 84.028 133.713 84.0243 132.397C84.0206 131.082 85.0842 130.012 86.4003 130.009L100.063 129.97C101.379 129.967 102.448 131.03 102.452 132.346C102.456 133.662 101.392 134.731 100.076 134.735Z"
            fill="#9ECC9F" />
        <path
            d="M82.3379 75.6919C81.9879 75.6919 81.704 75.4088 81.7031 75.0588C81.7019 74.708 81.9854 74.4228 82.3362 74.4215L88.1921 74.4053L85.484 74.4128C85.1332 74.414 84.8496 74.6993 84.8509 75.0501C84.8517 75.3996 85.1352 75.6828 85.4848 75.6832L82.34 75.6919H82.3379ZM88.224 75.6757L90.9603 75.6678C91.3107 75.667 91.5947 75.3818 91.5935 75.031C91.5926 74.6814 91.3091 74.3983 90.9595 74.3978L94.1043 74.3891H94.106C94.456 74.3891 94.7404 74.6723 94.7412 75.0222C94.7424 75.3731 94.4585 75.6583 94.1081 75.6591L88.224 75.6757ZM85.4856 75.6832H85.4848L88.224 75.6757L85.4877 75.6832H85.4856ZM88.1921 74.4053L90.9566 74.3978H90.9595L88.1921 74.4053Z"
            fill="#E5E5E5" />
        <path
            d="M85.4848 75.6826C85.1352 75.6822 84.8517 75.3991 84.8508 75.0495C84.8496 74.6987 85.1331 74.4135 85.484 74.4122L88.192 74.4048L90.9595 74.3973C91.309 74.3977 91.5926 74.6808 91.5934 75.0304C91.5947 75.3812 91.3107 75.6664 90.9603 75.6673L88.224 75.6751L85.4848 75.6826Z"
            fill="#CECECE" />
        <path
            d="M82.3491 79.7183C81.9992 79.7183 81.7152 79.4351 81.7144 79.0847C81.7131 78.7339 81.9967 78.4491 82.3475 78.4479L83.6685 78.4441C83.3202 78.4479 83.0395 78.7323 83.0404 79.081C83.0412 79.4314 83.3256 79.7145 83.6756 79.7145H83.6772L89.1499 79.6992C89.5007 79.6983 89.7842 79.4131 89.7834 79.0623C89.7821 78.714 89.5007 78.4317 89.1532 78.4292L91.7222 78.4221C91.3734 78.4255 91.0924 78.7094 91.0936 79.059C91.0944 79.409 91.3784 79.6921 91.7284 79.6921H91.7305L93.6398 79.6867C93.9906 79.6859 94.2742 79.4007 94.2733 79.0499C94.2721 78.7003 93.9885 78.4172 93.639 78.4167L94.1156 78.4151H94.1172C94.4672 78.4151 94.7516 78.6986 94.7524 79.0486C94.7532 79.3994 94.4697 79.6846 94.1189 79.6855L82.3512 79.7183H82.3491Z"
            fill="#E5E5E5" />
        <path d="M83.6686 78.4441H83.674L89.1462 78.4291H89.1532L83.6686 78.4441Z" fill="#E5E5E5" />
        <path
            d="M83.6756 79.7146C83.3256 79.7146 83.0412 79.4315 83.0404 79.0811C83.0396 78.7323 83.3202 78.448 83.6685 78.4442L89.1532 78.4293C89.5007 78.4318 89.7822 78.7141 89.7834 79.0624C89.7842 79.4132 89.5007 79.6984 89.1499 79.6992L83.6773 79.7146H83.6756Z"
            fill="#CECECE" />
        <path
            d="M82.3553 81.8914C82.0053 81.8914 81.7213 81.6082 81.7201 81.2582C81.7193 80.9074 82.0028 80.6222 82.3536 80.6214L83.6747 80.6176C83.3263 80.6214 83.0453 80.9054 83.0465 81.2545C83.0474 81.6045 83.3313 81.8876 83.6813 81.8876H83.6834L87.7607 81.8764L82.3569 81.8914H82.3553ZM91.3256 81.8664C91.6744 81.8631 91.9554 81.5787 91.9542 81.2296C91.9533 80.8813 91.6723 80.5994 91.3248 80.5961L94.1217 80.5886H94.1234C94.4733 80.5886 94.7573 80.8717 94.7586 81.2217C94.7594 81.5725 94.4758 81.8577 94.125 81.8586L91.3256 81.8664Z"
            fill="#E5E5E5" />
        <path
            d="M87.7608 81.8762L91.3258 81.8663H91.3212L87.7608 81.8762ZM83.6748 80.6175H83.6798L91.3175 80.5959H91.3249L83.6748 80.6175Z"
            fill="#E5E5E5" />
        <path
            d="M83.6814 81.8875C83.3314 81.8875 83.0475 81.6043 83.0466 81.2543C83.0454 80.9052 83.3265 80.6212 83.6748 80.6175L91.3249 80.5959C91.6724 80.5992 91.9534 80.8811 91.9543 81.2294C91.9555 81.5786 91.6745 81.863 91.3257 81.8663L87.7608 81.8762L83.6835 81.8875H83.6814Z"
            fill="#CECECE" />
        <path
            d="M91.722 78.4221C91.7237 78.4217 91.7249 78.4217 91.7266 78.4217L93.6359 78.4167H93.6388L91.722 78.4221Z"
            fill="#E5E5E5" />
        <path
            d="M91.7284 79.6921C91.3784 79.6921 91.0945 79.409 91.0936 79.059C91.0924 78.7095 91.3735 78.4255 91.7222 78.4222L93.639 78.4168C93.9885 78.4172 94.2721 78.7003 94.2733 79.0499C94.2742 79.4007 93.9906 79.6859 93.6398 79.6867L91.7305 79.6921H91.7284Z"
            fill="#CECECE" />
        <path
            d="M82.3455 77.6328L85.2453 77.6249C85.5961 77.6241 85.8797 77.3389 85.8789 76.9881C85.878 76.6389 85.5953 76.3562 85.2466 76.3545L89.0129 76.3442H89.0146C89.3645 76.3442 89.6485 76.6273 89.6498 76.9777C89.6506 77.3281 89.367 77.6133 89.0162 77.6145L82.3455 77.6328Z"
            fill="#E5E5E5" />
        <path d="M82.3417 76.363L85.242 76.3547H85.2465L82.3417 76.363Z" fill="#E5E5E5" />
        <path
            d="M82.3433 77.6328C81.9933 77.6328 81.7093 77.3497 81.7085 76.9997C81.7073 76.6489 81.9908 76.3637 82.3416 76.3628L85.2465 76.3545C85.5952 76.3562 85.8779 76.6389 85.8788 76.9881C85.8796 77.3389 85.596 77.6241 85.2452 77.6249L82.3454 77.6328H82.3433Z"
            fill="#CECECE" />
        <path
            d="M93.6107 77.6016L93.8507 77.6007H93.8498L93.6107 77.6016ZM92.3312 76.3349H92.3362L93.607 76.3312L92.3312 76.3349Z"
            fill="#E5E5E5" />
        <path
            d="M90.8442 77.6091C90.4942 77.6091 90.2098 77.326 90.209 76.976C90.2077 76.6252 90.4913 76.34 90.8421 76.3392L92.3313 76.335C91.983 76.3387 91.7019 76.6227 91.7027 76.9719C91.704 77.3218 91.9879 77.605 92.3379 77.605H92.34L93.6108 77.6017L90.8458 77.6091H90.8442ZM93.8508 77.6008C94.2012 77.5992 94.4839 77.3144 94.483 76.964C94.4822 76.614 94.1978 76.3309 93.8478 76.3309H93.8462L93.6071 76.3313L94.9887 76.3275H94.9904C95.3403 76.3275 95.6247 76.6107 95.6256 76.9611C95.6264 77.3115 95.3428 77.5967 94.992 77.5979L93.8508 77.6008Z"
            fill="#E5E5E5" />
        <path
            d="M92.3377 77.605C91.9877 77.605 91.7038 77.3218 91.7025 76.9719C91.7017 76.6227 91.9827 76.3387 92.3311 76.335L93.6068 76.3313L93.846 76.3309H93.8476C94.1976 76.3309 94.482 76.614 94.4828 76.964C94.4837 77.3144 94.2009 77.5992 93.8505 77.6008L93.6106 77.6017L92.3398 77.605H92.3377Z"
            fill="#CECECE" />
        <path
            d="M112.789 77.5482C112.439 77.5482 112.155 77.2651 112.154 76.9151C112.153 76.5643 112.436 76.2791 112.787 76.2782L126.524 76.24H126.526C126.876 76.24 127.16 76.5232 127.161 76.8732C127.162 77.224 126.879 77.5092 126.528 77.51L125.817 77.5121C126.164 77.5067 126.443 77.2231 126.442 76.8752C126.441 76.5253 126.157 76.2421 125.807 76.2421H125.805L121.959 76.2525C121.608 76.2537 121.324 76.539 121.325 76.8894C121.326 77.2389 121.609 77.5216 121.958 77.5229L119.903 77.5287C120.251 77.5245 120.531 77.2406 120.53 76.8918C120.53 76.5414 120.245 76.2583 119.895 76.2583H119.894L118.347 76.2629C117.997 76.2637 117.713 76.5489 117.714 76.8997C117.715 77.2481 117.997 77.5304 118.345 77.5328L115.78 77.5399C116.128 77.5366 116.409 77.2522 116.408 76.903C116.407 76.5531 116.123 76.2699 115.773 76.2699H115.771L114.225 76.2741C113.874 76.2753 113.591 76.5601 113.592 76.9109C113.593 77.2601 113.875 77.5424 114.223 77.5445L112.791 77.5482H112.789ZM112.795 79.6335C112.445 79.6335 112.16 79.3504 112.16 79C112.159 78.6496 112.442 78.3644 112.793 78.3632L113.863 78.3603C113.512 78.3615 113.229 78.6467 113.23 78.9971C113.231 79.3475 113.515 79.6306 113.865 79.6306H113.867L120.222 79.6128C120.573 79.612 120.857 79.3267 120.856 78.9759C120.855 78.626 120.571 78.3428 120.221 78.3428H120.219L114.102 78.3594L126.53 78.325H126.532C126.882 78.325 127.166 78.6081 127.167 78.9585C127.168 79.3093 126.884 79.5945 126.534 79.5954L125.967 79.597C126.314 79.5916 126.593 79.3081 126.592 78.9602C126.591 78.6098 126.307 78.3266 125.957 78.3266H125.955L122.656 78.3358C122.305 78.337 122.021 78.6222 122.022 78.9726C122.023 79.3222 122.306 79.6049 122.655 79.6061L112.796 79.6335H112.795ZM112.784 75.6069C112.434 75.6069 112.149 75.3238 112.148 74.9738C112.147 74.623 112.431 74.3378 112.782 74.337L115.269 74.3299C114.921 74.3336 114.64 74.6176 114.641 74.9668C114.642 75.3167 114.926 75.6003 115.276 75.6003H115.278L121.633 75.5824C121.984 75.5816 122.267 75.2964 122.267 74.9456C122.266 74.5964 121.983 74.3141 121.635 74.312L124.139 74.3054C123.791 74.31 123.512 74.5939 123.513 74.9423C123.514 75.2914 123.796 75.5737 124.145 75.5754L112.785 75.6069H112.784ZM125.188 75.5725L125.803 75.5708C126.154 75.57 126.438 75.2848 126.437 74.934C126.436 74.5844 126.153 74.3017 125.804 74.3004L126.519 74.2988H126.521C126.871 74.2988 127.155 74.5819 127.156 74.9319C127.157 75.2827 126.873 75.5679 126.522 75.5687L125.188 75.5725Z"
            fill="#E5E5E5" />
        <path d="M115.27 74.3298H115.275L121.63 74.312H121.635L115.27 74.3298Z" fill="#E5E5E5" />
        <path
            d="M115.276 75.6003C114.926 75.6003 114.642 75.3168 114.641 74.9668C114.64 74.6177 114.921 74.3337 115.27 74.33L121.635 74.3121C121.983 74.3142 122.266 74.5965 122.267 74.9456C122.267 75.2964 121.984 75.5817 121.633 75.5825L115.278 75.6003H115.276Z"
            fill="#CECECE" />
        <path d="M113.863 78.3601H113.863L114.102 78.3593L113.863 78.3601Z" fill="#E5E5E5" />
        <path
            d="M113.865 79.6306C113.515 79.6306 113.231 79.3475 113.23 78.9971C113.229 78.6467 113.512 78.3615 113.863 78.3602L114.102 78.3594L120.219 78.3428H120.221C120.571 78.3428 120.855 78.6259 120.856 78.9759C120.857 79.3267 120.573 79.6119 120.222 79.6128L113.867 79.6306H113.865Z"
            fill="#CECECE" />
        <path
            d="M115.901 81.5662L123.426 81.5454H123.423L115.901 81.5662ZM113.868 80.3016H113.869L115.77 80.2966L113.868 80.3016ZM122.657 79.6062H122.655L125.967 79.5971H125.959L122.659 79.6062H122.657Z"
            fill="#E5E5E5" />
        <path
            d="M122.655 79.6062C122.306 79.605 122.023 79.3222 122.022 78.9727C122.021 78.6223 122.305 78.3371 122.656 78.3358L125.955 78.3267H125.957C126.307 78.3267 126.591 78.6098 126.592 78.9602C126.593 79.3081 126.314 79.5917 125.967 79.5971L122.655 79.6062Z"
            fill="#CECECE" />
        <path
            d="M124.148 75.5754H124.145L125.189 75.5725L124.15 75.5754H124.148ZM124.139 74.3055C124.142 74.3051 124.144 74.3051 124.147 74.3051L125.8 74.3005H125.804L124.139 74.3055Z"
            fill="#E5E5E5" />
        <path
            d="M124.145 75.5754C123.796 75.5738 123.514 75.2915 123.513 74.9423C123.512 74.594 123.792 74.31 124.139 74.3055L125.804 74.3005C126.153 74.3017 126.436 74.5845 126.437 74.934C126.438 75.2848 126.154 75.57 125.803 75.5709L125.189 75.5725L124.145 75.5754Z"
            fill="#CECECE" />
        <path
            d="M112.8 81.575C112.45 81.575 112.166 81.2918 112.165 80.9418C112.164 80.591 112.448 80.3058 112.798 80.305L113.868 80.3017C113.518 80.3029 113.234 80.5881 113.236 80.9385C113.236 81.2889 113.52 81.5721 113.87 81.5721H113.872L115.901 81.5662L112.802 81.575H112.8ZM123.426 81.5455C123.776 81.543 124.058 81.2586 124.057 80.9086C124.056 80.5582 123.772 80.2751 123.422 80.2751H123.42L115.77 80.2967L126.536 80.2664H126.537C126.887 80.2664 127.172 80.5499 127.172 80.8999C127.173 81.2507 126.89 81.5359 126.539 81.5368L123.426 81.5455Z"
            fill="#E5E5E5" />
        <path
            d="M113.871 81.572C113.521 81.572 113.237 81.2889 113.236 80.9385C113.234 80.5881 113.518 80.3029 113.868 80.3016L115.77 80.2966L123.42 80.2751H123.422C123.772 80.2751 124.056 80.5582 124.057 80.9086C124.058 81.2586 123.776 81.543 123.426 81.5454L115.901 81.5662L113.873 81.572H113.871Z"
            fill="#CECECE" />
        <path d="M114.227 77.5442H114.223L115.78 77.5396H115.775L114.229 77.5442H114.227Z"
            fill="#E5E5E5" />
        <path
            d="M114.223 77.5442C113.875 77.5421 113.593 77.2598 113.592 76.9107C113.591 76.5598 113.874 76.275 114.225 76.2738L115.771 76.2696H115.773C116.123 76.2696 116.407 76.5528 116.408 76.9028C116.409 77.2519 116.128 77.5363 115.78 77.5396L114.223 77.5442Z"
            fill="#CECECE" />
        <path d="M118.349 77.533H118.345L119.903 77.5288H119.897L118.351 77.533H118.349Z"
            fill="#E5E5E5" />
        <path
            d="M118.344 77.533C117.997 77.5305 117.715 77.2482 117.714 76.8998C117.713 76.549 117.997 76.2638 118.347 76.263L119.893 76.2584H119.895C120.245 76.2584 120.529 76.5416 120.53 76.8919C120.531 77.2407 120.251 77.5247 119.903 77.5288L118.344 77.533Z"
            fill="#CECECE" />
        <path d="M121.96 77.5227H121.958L125.817 77.5119H125.809L121.962 77.5227H121.96Z"
            fill="#E5E5E5" />
        <path
            d="M121.958 77.5227C121.609 77.5215 121.326 77.2387 121.325 76.8892C121.324 76.5388 121.608 76.2536 121.959 76.2523L125.805 76.2419H125.807C126.157 76.2419 126.441 76.5251 126.442 76.8751C126.443 77.223 126.164 77.5065 125.817 77.5119L121.958 77.5227Z"
            fill="#CECECE" />
        <path
            d="M84.6675 92.1103C84.6687 92.5304 84.6695 92.7941 84.6708 93.2279C83.8234 93.2304 82.9906 93.2329 82.1437 93.235C82.1425 92.8007 82.1416 92.5375 82.1404 92.1173L82.7739 92.1157L82.7664 89.3611L82.1827 89.3628C82.1815 88.9356 82.1811 88.6724 82.1798 88.2522C82.991 88.2497 83.7956 88.2477 84.6068 88.2456L84.6102 89.3557L84.0264 89.3574L84.0339 92.1124L84.6675 92.1103ZM86.8134 90.7735L86.82 93.2221L85.5032 93.2258L85.4895 88.2215L85.952 88.2203L88.479 90.6763L88.472 88.2348L89.7747 88.2311L89.7884 93.2208L89.333 93.2221L86.8134 90.7735ZM92.9071 91.0483H92.9432L94.0741 88.219L95.2984 88.2157L95.2988 88.4079L93.1981 93.2611L92.6572 93.2628L90.5083 88.4212L90.5079 88.229L91.7322 88.2256L92.9071 91.0483ZM99.5476 90.7025C99.5426 88.9086 97.0442 88.9156 97.0491 90.7095C97.0541 92.5176 99.5525 92.5105 99.5476 90.7025ZM95.7393 90.7129C95.7298 87.2679 100.841 87.2538 100.85 90.6988C100.86 94.1512 95.7489 94.1653 95.7393 90.7129ZM103.929 92.0567C103.93 92.4769 103.931 92.7401 103.932 93.1743C103.085 93.1768 102.252 93.1793 101.405 93.1814C101.404 92.7471 101.403 92.4839 101.402 92.0638L102.036 92.0621L102.028 89.3076L101.444 89.3092L101.441 88.1987C102.252 88.1962 103.057 88.1941 103.869 88.192C103.87 88.6118 103.87 88.8754 103.871 89.3022L103.288 89.3038L103.296 92.0588L103.929 92.0567ZM107.007 88.126C108.04 88.1235 109.158 88.6827 109.354 90.0129C108.92 90.0142 108.536 90.0154 108.102 90.0166C107.922 89.5118 107.544 89.2851 107.01 89.2864C106.263 89.2885 105.774 89.8522 105.776 90.678C105.778 91.4112 106.264 92.0505 107.018 92.0555C107.559 92.0538 107.993 91.7823 108.126 91.248C108.554 91.2468 108.945 91.2459 109.379 91.2447C109.198 92.6546 108.082 93.213 107.021 93.2159C105.755 93.2262 104.471 92.3756 104.459 90.6817C104.461 88.9875 105.74 88.1298 107.007 88.126ZM113.46 89.3042C112.719 89.3063 112.349 89.3071 111.616 89.3092L111.618 90.0137L113.312 90.0092C113.313 90.3866 113.314 90.7639 113.315 91.1409L111.621 91.1459L111.624 92.0215L113.531 92.016C113.532 92.3864 113.533 92.7704 113.534 93.1478C112.367 93.1511 111.513 93.1536 110.36 93.1565L110.346 88.1738C111.499 88.1708 112.289 88.1684 113.457 88.165C113.457 88.5354 113.459 88.9198 113.46 89.3042Z"
            fill="#508C84" />
        <path
            d="M127.536 98.7123L82.3578 98.838C82.1262 98.8385 81.9381 98.6512 81.9373 98.4196C81.9364 98.1879 82.1237 97.9998 82.3553 97.999L127.534 97.8732C127.765 97.8728 127.954 98.06 127.955 98.2917C127.955 98.5234 127.768 98.7114 127.536 98.7123ZM127.619 128.528L82.4408 128.653C82.2092 128.654 82.0207 128.467 82.0203 128.235C82.0195 128.003 82.2067 127.815 82.4384 127.814L127.617 127.689C127.848 127.688 128.037 127.875 128.037 128.107C128.038 128.339 127.851 128.527 127.619 128.528ZM92.0335 103.373L82.9258 103.398C82.3873 103.4 81.9497 102.964 81.9485 102.426C81.9468 101.888 82.3819 101.45 82.9204 101.449L92.0281 101.424C92.5661 101.422 93.0037 101.857 93.0054 102.396C93.0066 102.934 92.5715 103.371 92.0335 103.373ZM107.548 103.33L101.916 103.345C101.377 103.347 100.94 102.912 100.939 102.374V102.373C100.937 101.835 101.372 101.398 101.911 101.396L107.543 101.38C108.081 101.379 108.519 101.814 108.52 102.352C108.522 102.89 108.086 103.328 107.548 103.33ZM117.57 103.302L111.938 103.318C111.4 103.319 110.962 102.884 110.961 102.345C110.959 101.807 111.394 101.37 111.933 101.368L117.565 101.352C118.103 101.351 118.541 101.786 118.543 102.325C118.544 102.863 118.109 103.3 117.57 103.302ZM126.87 103.276L121.237 103.291C120.699 103.293 120.262 102.858 120.26 102.32C120.258 101.782 120.694 101.344 121.232 101.342L126.864 101.327C127.403 101.325 127.841 101.76 127.842 102.298C127.843 102.837 127.408 103.274 126.87 103.276Z"
            fill="#D97A75" />
        <path
            d="M81.9722 111.038L81.9626 107.491L127.98 107.363L127.99 110.91L81.9722 111.038ZM94.0869 108.632H94.0853L83.7312 108.661C83.4003 108.662 83.133 108.931 83.1338 109.261C83.1346 109.592 83.4028 109.859 83.7329 109.859H83.7345L94.0886 109.83C94.4195 109.829 94.6868 109.56 94.686 109.229C94.6852 108.899 94.417 108.632 94.0869 108.632ZM104.721 109.249H104.72L101.669 109.258C101.601 109.258 101.536 109.285 101.488 109.333C101.44 109.381 101.413 109.446 101.413 109.514C101.414 109.582 101.441 109.647 101.489 109.695C101.537 109.742 101.602 109.769 101.669 109.769H101.67L104.722 109.761C104.863 109.76 104.977 109.645 104.977 109.504C104.977 109.437 104.95 109.372 104.902 109.324C104.854 109.276 104.789 109.249 104.721 109.249ZM108.285 109.239H108.284L105.695 109.247C105.662 109.247 105.628 109.254 105.597 109.267C105.566 109.279 105.538 109.298 105.515 109.322C105.491 109.346 105.472 109.374 105.459 109.405C105.447 109.436 105.44 109.469 105.44 109.503C105.441 109.644 105.555 109.758 105.696 109.758H105.697L108.285 109.751C108.426 109.75 108.541 109.636 108.54 109.495C108.54 109.427 108.513 109.362 108.465 109.314C108.417 109.266 108.352 109.239 108.285 109.239ZM116.226 109.217H116.225L113.317 109.226C113.249 109.226 113.184 109.253 113.136 109.301C113.088 109.349 113.061 109.414 113.062 109.482C113.062 109.549 113.089 109.614 113.137 109.662C113.185 109.71 113.25 109.737 113.318 109.737H113.318L116.226 109.729C116.368 109.728 116.482 109.613 116.481 109.472C116.481 109.405 116.454 109.34 116.406 109.292C116.358 109.244 116.293 109.217 116.226 109.217ZM126.263 109.05H126.263L121.877 109.062C121.736 109.062 121.622 109.177 121.622 109.318C121.622 109.459 121.736 109.573 121.878 109.573H121.878L126.264 109.561C126.405 109.561 126.52 109.446 126.519 109.305C126.519 109.237 126.492 109.172 126.444 109.124C126.396 109.076 126.331 109.05 126.263 109.05ZM116.962 108.225H116.961L112.575 108.237C112.507 108.237 112.442 108.264 112.395 108.312C112.347 108.36 112.32 108.426 112.32 108.493C112.32 108.561 112.347 108.626 112.395 108.674C112.443 108.721 112.508 108.748 112.576 108.748H112.576L116.963 108.736C117.104 108.736 117.218 108.621 117.217 108.48C117.217 108.412 117.19 108.347 117.142 108.299C117.094 108.252 117.029 108.225 116.962 108.225ZM126.261 108.127H126.26L121.874 108.139C121.841 108.139 121.808 108.146 121.777 108.159C121.746 108.172 121.717 108.191 121.694 108.215C121.67 108.238 121.651 108.267 121.639 108.298C121.626 108.329 121.619 108.362 121.619 108.395C121.619 108.537 121.734 108.65 121.875 108.65H121.876L126.262 108.638C126.403 108.638 126.517 108.523 126.517 108.382C126.517 108.314 126.49 108.249 126.442 108.202C126.394 108.154 126.329 108.127 126.261 108.127ZM108.281 107.993H108.28L101.665 108.012C101.632 108.012 101.598 108.019 101.567 108.031C101.537 108.044 101.508 108.063 101.485 108.087C101.461 108.111 101.442 108.139 101.43 108.17C101.417 108.201 101.41 108.234 101.41 108.268C101.411 108.409 101.525 108.523 101.666 108.523H101.666L108.282 108.505C108.423 108.504 108.537 108.389 108.537 108.248C108.536 108.18 108.509 108.115 108.461 108.068C108.413 108.02 108.348 107.993 108.281 107.993ZM81.9913 117.845L81.9813 114.298L127.999 114.17L128.009 117.717L81.9913 117.845ZM104.741 116.348H104.74L101.688 116.356C101.547 116.356 101.433 116.471 101.434 116.613C101.434 116.754 101.548 116.868 101.689 116.868H101.69L104.742 116.859C104.883 116.859 104.997 116.744 104.996 116.603C104.996 116.462 104.882 116.348 104.741 116.348ZM108.304 116.338H108.304L105.715 116.345C105.682 116.345 105.648 116.352 105.617 116.365C105.586 116.378 105.558 116.397 105.535 116.421C105.511 116.444 105.492 116.473 105.479 116.504C105.467 116.535 105.46 116.568 105.46 116.601C105.46 116.669 105.487 116.734 105.535 116.782C105.583 116.829 105.648 116.856 105.716 116.856H105.716L108.305 116.849C108.446 116.849 108.56 116.734 108.56 116.593C108.56 116.525 108.533 116.46 108.485 116.412C108.437 116.365 108.372 116.338 108.304 116.338ZM116.984 116.23H116.983L112.597 116.242C112.529 116.242 112.464 116.269 112.417 116.317C112.369 116.366 112.342 116.431 112.342 116.498C112.343 116.64 112.457 116.753 112.598 116.753H112.599L116.985 116.741C117.126 116.741 117.24 116.626 117.24 116.485C117.24 116.344 117.125 116.23 116.984 116.23ZM87.0753 115.458H87.0737L83.7503 115.468C83.4194 115.468 83.1517 115.737 83.1529 116.068C83.1537 116.399 83.4219 116.666 83.752 116.666H83.7536L87.077 116.657C87.4079 116.656 87.6756 116.387 87.6748 116.055C87.6736 115.725 87.4058 115.458 87.0753 115.458ZM93.9142 115.439H93.9126L89.2466 115.452C88.9157 115.453 88.6484 115.722 88.6492 116.053C88.6504 116.383 88.9182 116.65 89.2483 116.65H89.2499L93.9159 116.638C94.2468 116.637 94.5141 116.368 94.5133 116.037C94.5125 115.706 94.2443 115.439 93.9142 115.439ZM126.282 115.553H126.281L121.895 115.565C121.827 115.565 121.762 115.592 121.714 115.64C121.666 115.688 121.639 115.753 121.64 115.821C121.64 115.889 121.667 115.954 121.715 116.002C121.763 116.05 121.828 116.076 121.896 116.076H121.896L126.282 116.064C126.424 116.064 126.538 115.949 126.537 115.808C126.537 115.74 126.51 115.675 126.462 115.627C126.414 115.58 126.349 115.553 126.282 115.553ZM103.124 115.106H103.123L101.685 115.11C101.652 115.11 101.618 115.117 101.587 115.13C101.556 115.143 101.528 115.162 101.505 115.185C101.481 115.209 101.462 115.237 101.449 115.268C101.437 115.3 101.43 115.333 101.43 115.366C101.43 115.507 101.545 115.621 101.686 115.621H101.686L103.125 115.617C103.266 115.617 103.38 115.502 103.379 115.361C103.379 115.293 103.352 115.228 103.304 115.181C103.256 115.133 103.191 115.106 103.124 115.106ZM108.301 115.091H108.3L103.914 115.104C103.846 115.104 103.781 115.131 103.733 115.179C103.686 115.227 103.659 115.292 103.659 115.36C103.659 115.501 103.774 115.615 103.915 115.615H103.915L108.302 115.603C108.443 115.603 108.557 115.488 108.556 115.346C108.556 115.279 108.529 115.214 108.481 115.166C108.433 115.118 108.368 115.092 108.301 115.091ZM116.981 115.067H116.98L112.594 115.08C112.453 115.08 112.339 115.195 112.339 115.336C112.339 115.477 112.454 115.591 112.595 115.591H112.596L116.982 115.579C117.123 115.578 117.237 115.463 117.237 115.322C117.236 115.255 117.209 115.19 117.161 115.142C117.113 115.094 117.049 115.067 116.981 115.067ZM82.0112 124.939L82.0013 121.392L128.019 121.264L128.028 124.812L82.0112 124.939ZM104.761 123.402H104.76L101.708 123.411C101.64 123.411 101.575 123.438 101.527 123.486C101.48 123.534 101.453 123.599 101.453 123.667C101.453 123.735 101.48 123.8 101.528 123.847C101.576 123.895 101.641 123.922 101.709 123.922H101.71L104.762 123.914C104.903 123.913 105.017 123.798 105.016 123.657C105.016 123.589 104.989 123.525 104.941 123.477C104.893 123.429 104.828 123.402 104.761 123.402ZM108.324 123.392H108.323L105.735 123.399C105.667 123.399 105.602 123.427 105.554 123.475C105.506 123.523 105.48 123.588 105.48 123.656C105.48 123.797 105.594 123.911 105.735 123.911H105.736L108.324 123.904C108.466 123.903 108.58 123.788 108.579 123.647C108.579 123.579 108.552 123.515 108.504 123.467C108.456 123.419 108.392 123.392 108.324 123.392ZM94.1255 122.533H94.1239L83.7698 122.562C83.439 122.563 83.1716 122.832 83.1724 123.163C83.1732 123.493 83.4414 123.76 83.7715 123.76H83.7736L94.1272 123.731C94.4581 123.731 94.7255 123.461 94.7246 123.131C94.7238 122.8 94.4556 122.533 94.1255 122.533ZM117.003 123.112H117.002L112.616 123.125C112.549 123.125 112.484 123.152 112.436 123.2C112.388 123.248 112.361 123.313 112.361 123.381C112.361 123.449 112.388 123.513 112.436 123.561C112.484 123.609 112.549 123.636 112.617 123.636H112.618L117.004 123.624C117.145 123.623 117.259 123.508 117.259 123.367C117.259 123.3 117.232 123.235 117.184 123.187C117.136 123.139 117.071 123.112 117.003 123.112ZM122.331 122.798H122.331L121.915 122.799C121.881 122.799 121.848 122.806 121.817 122.819C121.786 122.832 121.758 122.851 121.735 122.875C121.711 122.898 121.692 122.927 121.679 122.958C121.667 122.989 121.66 123.022 121.66 123.055C121.661 123.197 121.775 123.31 121.916 123.31H121.916L122.332 123.31C122.473 123.309 122.587 123.194 122.587 123.053C122.587 122.985 122.56 122.92 122.512 122.873C122.464 122.825 122.399 122.798 122.331 122.798ZM123.638 122.794H123.637L123.221 122.796C123.188 122.796 123.154 122.802 123.123 122.815C123.092 122.828 123.064 122.847 123.04 122.871C123.017 122.895 122.998 122.923 122.985 122.954C122.973 122.985 122.966 123.019 122.966 123.052C122.966 123.12 122.994 123.185 123.041 123.232C123.089 123.28 123.154 123.307 123.222 123.307H123.223L123.638 123.306C123.779 123.305 123.893 123.19 123.893 123.049C123.893 122.982 123.866 122.917 123.818 122.869C123.77 122.821 123.705 122.794 123.638 122.794ZM124.942 122.791H124.942L124.526 122.792C124.459 122.792 124.394 122.819 124.346 122.867C124.298 122.915 124.271 122.981 124.271 123.048C124.272 123.116 124.299 123.181 124.346 123.229C124.394 123.276 124.459 123.303 124.527 123.303H124.528L124.943 123.302C125.084 123.302 125.199 123.187 125.198 123.046C125.198 122.978 125.171 122.913 125.123 122.865C125.075 122.818 125.01 122.791 124.942 122.791ZM126.249 122.787H126.248L125.832 122.788C125.765 122.788 125.7 122.816 125.652 122.864C125.604 122.912 125.577 122.977 125.578 123.045C125.578 123.112 125.605 123.177 125.653 123.225C125.701 123.273 125.766 123.3 125.833 123.3H125.834L126.249 123.298C126.39 123.298 126.505 123.183 126.504 123.042C126.504 122.975 126.477 122.91 126.429 122.862C126.381 122.814 126.317 122.787 126.249 122.787ZM103.143 122.16H103.143L101.705 122.164C101.637 122.164 101.572 122.192 101.524 122.24C101.476 122.288 101.45 122.353 101.45 122.421C101.45 122.562 101.564 122.676 101.706 122.676H101.706L103.144 122.672C103.285 122.671 103.399 122.556 103.399 122.415C103.399 122.348 103.372 122.283 103.324 122.235C103.276 122.187 103.211 122.16 103.143 122.16ZM108.32 122.146H108.32L103.934 122.158C103.9 122.158 103.867 122.165 103.836 122.178C103.805 122.191 103.777 122.21 103.753 122.234C103.729 122.257 103.711 122.286 103.698 122.317C103.685 122.348 103.679 122.381 103.679 122.414C103.679 122.482 103.706 122.547 103.754 122.595C103.802 122.643 103.866 122.669 103.934 122.669H103.935L108.321 122.657C108.462 122.657 108.576 122.542 108.576 122.401C108.576 122.333 108.549 122.268 108.501 122.22C108.453 122.173 108.388 122.146 108.32 122.146ZM117 122.046H117L112.613 122.058C112.546 122.058 112.481 122.085 112.433 122.133C112.385 122.181 112.358 122.246 112.358 122.314C112.358 122.382 112.385 122.447 112.433 122.495C112.481 122.543 112.546 122.569 112.614 122.569H112.615L117.001 122.557C117.142 122.557 117.257 122.442 117.256 122.301C117.256 122.233 117.229 122.168 117.181 122.12C117.133 122.073 117.068 122.046 117 122.046Z"
            fill="#E5E5E5" />
        <path
            d="M83.7225 106C83.3921 106 83.1239 105.733 83.123 105.403C83.1222 105.072 83.3896 104.803 83.7209 104.802L90.8629 104.782H90.8645C91.195 104.782 91.4628 105.049 91.4636 105.38C91.4648 105.711 91.197 105.98 90.8662 105.98L83.7242 106H83.7225ZM83.7429 113.334C83.4124 113.334 83.1446 113.067 83.1434 112.737C83.1426 112.406 83.4103 112.137 83.7412 112.136L90.8832 112.116H90.8849C91.2153 112.116 91.4831 112.383 91.4843 112.713C91.4852 113.045 91.2178 113.314 90.8865 113.315L83.7445 113.334H83.7429Z"
            fill="#858585" />
        <path
            d="M83.7521 116.666C83.422 116.666 83.1538 116.399 83.153 116.068C83.1518 115.737 83.4195 115.468 83.7504 115.467L87.0738 115.458H87.0754C87.4059 115.458 87.6737 115.725 87.6749 116.055C87.6757 116.387 87.408 116.656 87.0771 116.656L83.7537 116.666H83.7521ZM89.2484 116.65C88.9183 116.65 88.6505 116.383 88.6493 116.053C88.6485 115.722 88.9158 115.453 89.2467 115.452L93.9127 115.439H93.9143C94.2444 115.439 94.5126 115.706 94.5134 116.037C94.5142 116.367 94.2469 116.636 93.916 116.637L89.25 116.65H89.2484ZM83.733 109.859C83.4029 109.859 83.1347 109.592 83.1339 109.261C83.1331 108.93 83.4004 108.661 83.7313 108.66L94.0854 108.632H94.087C94.4171 108.632 94.6853 108.899 94.6861 109.229C94.6869 109.56 94.4196 109.829 94.0887 109.83L83.7346 109.859H83.733ZM101.666 108.523C101.525 108.523 101.411 108.409 101.41 108.268C101.41 108.234 101.417 108.201 101.43 108.17C101.442 108.139 101.461 108.111 101.485 108.087C101.509 108.063 101.537 108.044 101.568 108.031C101.599 108.018 101.632 108.012 101.665 108.012L108.28 107.993H108.281C108.422 107.993 108.536 108.107 108.537 108.248C108.537 108.389 108.423 108.504 108.282 108.504L101.667 108.523H101.666ZM101.669 109.769C101.602 109.769 101.537 109.742 101.489 109.694C101.441 109.647 101.414 109.582 101.414 109.514C101.413 109.446 101.44 109.381 101.488 109.333C101.536 109.285 101.601 109.258 101.669 109.258L104.72 109.249H104.721C104.862 109.249 104.977 109.363 104.977 109.504C104.977 109.645 104.863 109.76 104.722 109.761L101.67 109.769H101.669ZM105.696 109.758C105.555 109.758 105.441 109.644 105.44 109.503C105.44 109.469 105.447 109.436 105.46 109.405C105.472 109.374 105.491 109.346 105.515 109.322C105.538 109.298 105.567 109.279 105.598 109.266C105.629 109.253 105.662 109.247 105.695 109.247L108.284 109.239H108.285C108.425 109.239 108.54 109.353 108.54 109.494C108.541 109.636 108.426 109.75 108.285 109.751L105.697 109.758H105.696Z"
            fill="#777777" />
        <path
            d="M101.675 112.038C101.535 112.038 101.42 111.924 101.42 111.783C101.42 111.642 101.533 111.527 101.675 111.527L103.113 111.523H103.114C103.255 111.523 103.369 111.637 103.369 111.777C103.37 111.919 103.256 112.034 103.114 112.034L101.676 112.038H101.675ZM103.904 112.032C103.764 112.032 103.649 111.918 103.649 111.777C103.648 111.635 103.762 111.521 103.904 111.52L108.29 111.508H108.291C108.358 111.508 108.423 111.535 108.471 111.583C108.519 111.631 108.546 111.696 108.547 111.764C108.547 111.831 108.52 111.896 108.472 111.944C108.424 111.992 108.359 112.019 108.291 112.019L103.905 112.032H103.904ZM101.679 113.284C101.538 113.284 101.424 113.17 101.423 113.029C101.423 112.996 101.43 112.962 101.443 112.931C101.455 112.9 101.474 112.872 101.498 112.848C101.522 112.824 101.55 112.806 101.581 112.793C101.612 112.78 101.645 112.773 101.678 112.773L104.73 112.764H104.731C104.872 112.764 104.986 112.878 104.987 113.019C104.987 113.161 104.873 113.275 104.731 113.276L101.68 113.284H101.679ZM105.705 113.273C105.638 113.273 105.573 113.246 105.525 113.198C105.477 113.15 105.45 113.086 105.45 113.018C105.45 112.984 105.457 112.951 105.469 112.92C105.482 112.889 105.501 112.861 105.524 112.837C105.548 112.813 105.576 112.794 105.607 112.781C105.638 112.769 105.671 112.762 105.705 112.762L108.294 112.755H108.294C108.435 112.755 108.549 112.868 108.55 113.01C108.55 113.151 108.436 113.265 108.295 113.266L105.706 113.273H105.705ZM101.656 104.983C101.588 104.983 101.523 104.957 101.475 104.909C101.427 104.861 101.4 104.796 101.4 104.728C101.4 104.66 101.427 104.595 101.475 104.547C101.522 104.499 101.587 104.472 101.655 104.472L103.093 104.468H103.094C103.235 104.468 103.349 104.582 103.35 104.723C103.35 104.864 103.236 104.979 103.095 104.98L101.657 104.983H101.656ZM103.885 104.977C103.817 104.977 103.752 104.95 103.704 104.903C103.656 104.855 103.629 104.79 103.629 104.722C103.629 104.654 103.656 104.589 103.704 104.541C103.751 104.493 103.816 104.466 103.884 104.466L108.27 104.454C108.271 104.454 108.271 104.454 108.271 104.454C108.412 104.454 108.526 104.568 108.527 104.709C108.527 104.85 108.413 104.965 108.272 104.965L103.886 104.977H103.885ZM101.659 106.23C101.592 106.23 101.527 106.203 101.479 106.155C101.431 106.107 101.404 106.042 101.404 105.975C101.404 105.941 101.41 105.908 101.423 105.877C101.436 105.846 101.455 105.818 101.478 105.794C101.502 105.77 101.53 105.751 101.561 105.738C101.592 105.725 101.625 105.719 101.659 105.719L104.711 105.71H104.711C104.745 105.71 104.778 105.716 104.809 105.729C104.84 105.742 104.868 105.761 104.892 105.784C104.916 105.808 104.935 105.836 104.948 105.867C104.961 105.898 104.967 105.932 104.967 105.965C104.967 105.999 104.961 106.032 104.948 106.063C104.935 106.094 104.916 106.122 104.893 106.146C104.869 106.17 104.841 106.189 104.81 106.202C104.779 106.215 104.746 106.221 104.712 106.221L101.66 106.23H101.659ZM105.686 106.218C105.618 106.219 105.553 106.192 105.505 106.144C105.457 106.096 105.43 106.031 105.43 105.963C105.43 105.896 105.457 105.831 105.505 105.783C105.552 105.735 105.617 105.707 105.685 105.707L108.274 105.7H108.274C108.415 105.7 108.53 105.814 108.53 105.955C108.531 106.096 108.416 106.211 108.275 106.211L105.687 106.218H105.686ZM101.695 119.16C101.555 119.16 101.44 119.046 101.44 118.905C101.439 118.837 101.466 118.772 101.514 118.724C101.562 118.676 101.627 118.649 101.695 118.649L108.31 118.63H108.311C108.451 118.63 108.565 118.745 108.566 118.885C108.566 119.027 108.453 119.142 108.311 119.142L101.696 119.16H101.695ZM101.699 120.406C101.558 120.406 101.444 120.292 101.443 120.152C101.443 120.084 101.47 120.019 101.518 119.971C101.566 119.922 101.631 119.895 101.698 119.895L104.75 119.887H104.751C104.892 119.887 105.006 120 105.006 120.142C105.007 120.283 104.893 120.398 104.751 120.398L101.7 120.406H101.699ZM105.725 120.395C105.585 120.395 105.47 120.281 105.47 120.14C105.469 120.073 105.496 120.007 105.544 119.959C105.592 119.911 105.657 119.884 105.725 119.884L108.313 119.877H108.314C108.455 119.877 108.569 119.991 108.57 120.132C108.57 120.273 108.456 120.388 108.315 120.388L105.726 120.395H105.725Z"
            fill="#858585" />
        <path
            d="M101.705 122.676C101.564 122.676 101.45 122.562 101.45 122.421C101.45 122.353 101.476 122.288 101.524 122.24C101.572 122.192 101.637 122.164 101.705 122.164L103.143 122.16H103.143C103.284 122.16 103.398 122.275 103.399 122.415C103.399 122.556 103.285 122.671 103.144 122.672L101.706 122.676H101.705ZM103.934 122.669C103.866 122.669 103.801 122.642 103.754 122.595C103.706 122.547 103.679 122.482 103.679 122.414C103.679 122.381 103.685 122.348 103.698 122.317C103.711 122.286 103.729 122.257 103.753 122.234C103.777 122.21 103.805 122.191 103.836 122.178C103.867 122.165 103.9 122.158 103.934 122.158L108.32 122.146H108.32C108.461 122.146 108.575 122.26 108.576 122.401C108.576 122.542 108.462 122.657 108.321 122.657L103.935 122.669H103.934ZM101.709 123.922C101.641 123.922 101.576 123.895 101.528 123.847C101.48 123.799 101.453 123.735 101.453 123.667C101.453 123.599 101.48 123.534 101.527 123.486C101.575 123.438 101.64 123.411 101.708 123.411L104.76 123.402H104.761C104.901 123.402 105.016 123.516 105.016 123.657C105.017 123.798 104.903 123.913 104.761 123.914L101.71 123.922H101.709ZM105.735 123.911C105.594 123.911 105.48 123.797 105.48 123.656C105.479 123.588 105.506 123.523 105.554 123.475C105.602 123.427 105.667 123.399 105.735 123.399L108.323 123.392H108.324C108.465 123.392 108.579 123.506 108.579 123.647C108.58 123.788 108.465 123.903 108.324 123.904L105.736 123.911H105.735ZM101.686 115.621C101.545 115.621 101.43 115.507 101.43 115.366C101.43 115.333 101.437 115.299 101.449 115.268C101.462 115.237 101.481 115.209 101.505 115.185C101.528 115.162 101.556 115.143 101.587 115.13C101.618 115.117 101.652 115.11 101.685 115.11L103.123 115.106H103.124C103.264 115.106 103.379 115.22 103.379 115.361C103.38 115.502 103.266 115.617 103.124 115.617L101.686 115.621H101.686ZM103.914 115.615C103.774 115.615 103.659 115.501 103.659 115.36C103.659 115.219 103.773 115.104 103.914 115.104L108.3 115.091H108.301C108.441 115.091 108.556 115.206 108.556 115.346C108.557 115.488 108.443 115.603 108.301 115.603L103.915 115.615H103.914ZM101.689 116.868C101.548 116.868 101.434 116.754 101.434 116.613C101.433 116.471 101.547 116.356 101.688 116.356L104.74 116.348H104.741C104.882 116.348 104.996 116.462 104.996 116.603C104.997 116.744 104.883 116.859 104.741 116.859L101.69 116.868H101.689ZM105.715 116.856C105.648 116.856 105.583 116.829 105.535 116.782C105.487 116.734 105.46 116.669 105.46 116.601C105.46 116.568 105.467 116.535 105.479 116.504C105.492 116.473 105.511 116.444 105.535 116.42C105.558 116.397 105.586 116.378 105.617 116.365C105.648 116.352 105.681 116.345 105.715 116.345L108.304 116.338H108.304C108.445 116.338 108.559 116.452 108.56 116.593C108.56 116.734 108.446 116.849 108.305 116.849L105.716 116.856H105.715Z"
            fill="#777777" />
        <path
            d="M83.7614 120.165C83.4314 120.165 83.1632 119.898 83.1624 119.568C83.1615 119.236 83.4289 118.967 83.7598 118.966L94.1138 118.938H94.1155C94.4455 118.938 94.7137 119.205 94.7146 119.535C94.7158 119.866 94.448 120.135 94.1171 120.136L83.7631 120.165H83.7614Z"
            fill="#858585" />
        <path
            d="M83.7714 123.76C83.4414 123.76 83.1732 123.493 83.1724 123.162C83.1715 122.831 83.4389 122.562 83.7698 122.562L94.1238 122.533H94.1255C94.4555 122.533 94.7237 122.8 94.7246 123.13C94.7254 123.461 94.458 123.73 94.1272 123.731L83.7735 123.76H83.7714Z"
            fill="#777777" />
        <path
            d="M112.567 105.593C112.426 105.593 112.312 105.478 112.312 105.338C112.312 105.304 112.318 105.271 112.331 105.24C112.343 105.209 112.362 105.18 112.386 105.157C112.41 105.133 112.438 105.114 112.469 105.101C112.5 105.088 112.533 105.081 112.567 105.081L116.952 105.069H116.953C117.021 105.069 117.086 105.096 117.134 105.144C117.182 105.191 117.209 105.256 117.209 105.324C117.209 105.392 117.182 105.457 117.135 105.505C117.087 105.553 117.022 105.58 116.954 105.58L112.568 105.593H112.567ZM121.867 105.567C121.799 105.567 121.734 105.54 121.686 105.492C121.638 105.444 121.611 105.379 121.611 105.311C121.611 105.278 121.617 105.245 121.63 105.214C121.643 105.183 121.662 105.154 121.685 105.131C121.709 105.107 121.737 105.088 121.768 105.075C121.799 105.062 121.832 105.055 121.866 105.055L126.252 105.043H126.253C126.32 105.043 126.385 105.07 126.433 105.118C126.481 105.166 126.508 105.231 126.508 105.298C126.508 105.439 126.394 105.554 126.253 105.554L121.867 105.567H121.867Z"
            fill="#858585" />
        <path
            d="M121.875 108.651C121.734 108.651 121.62 108.537 121.62 108.396C121.619 108.362 121.626 108.329 121.639 108.298C121.651 108.267 121.67 108.239 121.694 108.215C121.718 108.191 121.746 108.172 121.777 108.159C121.808 108.146 121.841 108.14 121.874 108.14L126.26 108.127H126.261C126.402 108.127 126.516 108.241 126.517 108.382C126.517 108.524 126.403 108.638 126.262 108.639L121.876 108.651H121.875ZM121.878 109.573C121.737 109.573 121.622 109.46 121.622 109.319C121.622 109.177 121.736 109.062 121.877 109.062L126.263 109.05H126.263C126.405 109.05 126.519 109.164 126.519 109.305C126.52 109.446 126.405 109.561 126.264 109.561L121.878 109.573H121.878Z"
            fill="#777777" />
        <path
            d="M121.886 112.605C121.745 112.605 121.631 112.491 121.63 112.35C121.63 112.282 121.657 112.217 121.705 112.169C121.753 112.121 121.817 112.094 121.885 112.094L126.271 112.081H126.272C126.413 112.081 126.528 112.196 126.528 112.336C126.528 112.478 126.414 112.593 126.273 112.593L121.887 112.605H121.886Z"
            fill="#858585" />
        <path
            d="M121.895 116.076C121.828 116.076 121.763 116.049 121.715 116.002C121.667 115.954 121.64 115.889 121.639 115.821C121.639 115.753 121.666 115.688 121.714 115.64C121.762 115.592 121.827 115.565 121.895 115.565L126.281 115.553H126.281C126.422 115.553 126.537 115.667 126.537 115.808C126.538 115.949 126.423 116.064 126.282 116.064L121.896 116.076H121.895Z"
            fill="#777777" />
        <path
            d="M121.905 119.615C121.764 119.615 121.65 119.501 121.65 119.36C121.649 119.219 121.763 119.104 121.905 119.104L122.32 119.103H122.321C122.389 119.103 122.454 119.13 122.501 119.178C122.549 119.225 122.576 119.29 122.576 119.358C122.577 119.499 122.463 119.614 122.321 119.614L121.906 119.615H121.905ZM123.211 119.611C123.071 119.611 122.956 119.498 122.956 119.357C122.955 119.215 123.07 119.101 123.211 119.1L123.626 119.099H123.627C123.768 119.099 123.882 119.213 123.883 119.354C123.883 119.495 123.769 119.61 123.628 119.611L123.212 119.611H123.211ZM124.517 119.608C124.376 119.608 124.261 119.494 124.261 119.353C124.261 119.285 124.288 119.22 124.335 119.172C124.383 119.124 124.448 119.097 124.516 119.097L124.931 119.095H124.932C125.073 119.095 125.187 119.21 125.188 119.35C125.188 119.492 125.074 119.607 124.933 119.607L124.517 119.608H124.517ZM125.823 119.604C125.682 119.604 125.568 119.49 125.567 119.35C125.567 119.282 125.594 119.217 125.641 119.168C125.689 119.12 125.754 119.093 125.822 119.093L126.238 119.092H126.238C126.379 119.092 126.494 119.206 126.494 119.347C126.494 119.488 126.38 119.603 126.239 119.603L125.824 119.604H125.823Z"
            fill="#858585" />
        <path
            d="M121.916 123.31C121.775 123.31 121.66 123.196 121.66 123.055C121.66 123.022 121.666 122.988 121.679 122.957C121.692 122.926 121.711 122.898 121.734 122.874C121.758 122.85 121.786 122.832 121.817 122.819C121.848 122.806 121.881 122.799 121.915 122.799L122.33 122.798H122.331C122.472 122.798 122.586 122.912 122.587 123.053C122.587 123.194 122.473 123.309 122.332 123.309L121.916 123.31H121.916ZM123.222 123.307C123.081 123.307 122.967 123.193 122.966 123.052C122.966 123.018 122.972 122.985 122.985 122.954C122.998 122.923 123.017 122.895 123.04 122.871C123.064 122.847 123.092 122.828 123.123 122.815C123.154 122.802 123.187 122.795 123.221 122.795L123.637 122.794H123.637C123.778 122.794 123.892 122.908 123.893 123.049C123.893 123.19 123.779 123.305 123.638 123.305L123.223 123.307H123.222ZM124.527 123.303C124.386 123.303 124.272 123.189 124.271 123.048C124.271 122.98 124.298 122.915 124.346 122.867C124.394 122.819 124.458 122.792 124.526 122.792L124.942 122.791H124.942C125.083 122.791 125.198 122.904 125.198 123.045C125.198 123.079 125.192 123.112 125.179 123.143C125.166 123.174 125.147 123.202 125.124 123.226C125.1 123.25 125.072 123.269 125.041 123.282C125.01 123.295 124.977 123.302 124.943 123.302L124.528 123.303H124.527ZM125.833 123.299C125.692 123.299 125.578 123.185 125.577 123.044C125.577 122.977 125.604 122.911 125.652 122.863C125.7 122.815 125.765 122.788 125.832 122.788L126.248 122.787H126.249C126.316 122.787 126.381 122.814 126.429 122.862C126.477 122.909 126.504 122.974 126.504 123.042C126.505 123.183 126.39 123.298 126.249 123.298L125.834 123.299H125.833ZM112.576 108.748C112.435 108.748 112.321 108.634 112.32 108.493C112.32 108.425 112.347 108.36 112.395 108.312C112.442 108.264 112.507 108.237 112.575 108.236L116.961 108.224H116.962C117.102 108.224 117.217 108.339 117.217 108.479C117.218 108.621 117.104 108.735 116.962 108.736L112.576 108.748H112.576Z"
            fill="#777777" />
        <path
            d="M112.586 112.631C112.519 112.631 112.454 112.604 112.406 112.556C112.358 112.508 112.331 112.443 112.331 112.376C112.331 112.342 112.337 112.309 112.35 112.278C112.363 112.247 112.382 112.219 112.405 112.195C112.429 112.171 112.457 112.152 112.488 112.139C112.519 112.126 112.552 112.12 112.586 112.12L116.972 112.107H116.972C117.113 112.107 117.228 112.221 117.228 112.362C117.228 112.43 117.201 112.495 117.154 112.543C117.106 112.591 117.041 112.618 116.973 112.619L112.587 112.631H112.586Z"
            fill="#858585" />
        <path
            d="M112.595 115.591C112.454 115.591 112.339 115.477 112.339 115.336C112.339 115.194 112.453 115.079 112.594 115.079L116.98 115.067H116.981C117.122 115.067 117.236 115.181 117.237 115.322C117.237 115.463 117.123 115.578 116.982 115.579L112.596 115.591H112.595ZM112.598 116.753C112.457 116.753 112.343 116.639 112.342 116.498C112.342 116.43 112.369 116.365 112.417 116.317C112.465 116.269 112.529 116.242 112.597 116.242L116.983 116.229H116.984C117.125 116.229 117.24 116.344 117.24 116.484C117.24 116.626 117.126 116.741 116.985 116.741L112.599 116.753H112.598ZM112.614 122.569C112.547 122.569 112.482 122.542 112.434 122.494C112.386 122.447 112.358 122.382 112.358 122.314C112.358 122.246 112.385 122.181 112.433 122.133C112.481 122.085 112.546 122.058 112.613 122.058L117 122.045H117C117.141 122.045 117.256 122.16 117.256 122.3C117.256 122.334 117.25 122.367 117.237 122.398C117.224 122.429 117.205 122.458 117.182 122.482C117.158 122.505 117.13 122.524 117.099 122.537C117.068 122.55 117.035 122.557 117.001 122.557L112.615 122.569H112.614ZM112.617 123.635C112.549 123.636 112.484 123.609 112.436 123.561C112.388 123.513 112.361 123.448 112.361 123.38C112.361 123.313 112.388 123.248 112.436 123.2C112.484 123.152 112.549 123.125 112.616 123.124L117.003 123.112H117.003C117.144 123.112 117.259 123.226 117.259 123.367C117.26 123.508 117.145 123.623 117.004 123.623L112.618 123.635H112.617Z"
            fill="#777777" />
        <path
            d="M112.605 119.13C112.464 119.13 112.349 119.016 112.349 118.875C112.349 118.807 112.375 118.742 112.423 118.694C112.471 118.646 112.536 118.619 112.604 118.619L114.541 118.613H114.542C114.683 118.613 114.797 118.727 114.797 118.868C114.798 118.902 114.791 118.935 114.778 118.966C114.766 118.997 114.747 119.025 114.723 119.049C114.7 119.073 114.671 119.092 114.64 119.105C114.609 119.118 114.576 119.125 114.543 119.125L112.605 119.13H112.605ZM112.608 120.212C112.467 120.212 112.352 120.099 112.352 119.957C112.352 119.924 112.359 119.891 112.371 119.86C112.384 119.829 112.403 119.8 112.427 119.777C112.45 119.753 112.478 119.734 112.509 119.721C112.54 119.708 112.574 119.701 112.607 119.701L116.993 119.689H116.994C117.134 119.689 117.249 119.803 117.249 119.944C117.25 120.085 117.136 120.2 116.995 120.2L112.608 120.212H112.608ZM115.345 119.123C115.204 119.123 115.09 119.008 115.089 118.868C115.089 118.834 115.096 118.801 115.108 118.77C115.121 118.739 115.14 118.71 115.164 118.687C115.187 118.663 115.215 118.644 115.246 118.631C115.277 118.618 115.311 118.611 115.344 118.611L116.99 118.607H116.991C117.132 118.607 117.246 118.721 117.246 118.861C117.247 119.003 117.133 119.118 116.991 119.118L115.345 119.123H115.345Z"
            fill="#858585" />
        <path
            d="M113.317 109.737C113.25 109.737 113.185 109.71 113.137 109.662C113.089 109.614 113.062 109.549 113.061 109.482C113.061 109.414 113.088 109.349 113.136 109.301C113.184 109.253 113.249 109.226 113.317 109.226L116.225 109.217H116.226C116.366 109.217 116.481 109.332 116.481 109.472C116.482 109.614 116.368 109.729 116.226 109.729L113.318 109.737H113.317Z"
            fill="#777777" />
        <path
            d="M83.3169 102.842C83.0338 102.842 82.8038 102.613 82.803 102.33C82.8022 102.046 83.0317 101.815 83.3153 101.815L91.6749 101.791H91.6766C91.9597 101.791 92.1893 102.02 92.1901 102.304C92.191 102.587 91.9618 102.818 91.6778 102.819L83.3182 102.842H83.3169ZM102.263 102.789C101.98 102.789 101.75 102.56 101.749 102.277C101.748 101.993 101.978 101.763 102.261 101.762L107.27 101.748H107.271C107.554 101.748 107.784 101.977 107.785 102.26C107.786 102.544 107.556 102.774 107.273 102.775L102.264 102.789H102.263ZM112.247 102.762C111.964 102.762 111.735 102.532 111.734 102.249C111.733 101.966 111.962 101.735 112.246 101.734L117.254 101.72H117.256C117.539 101.72 117.768 101.949 117.769 102.233C117.77 102.516 117.541 102.747 117.257 102.748L112.249 102.762H112.247ZM121.709 102.735C121.426 102.735 121.196 102.506 121.196 102.223C121.195 101.939 121.424 101.709 121.708 101.708L126.716 101.694H126.718C127.001 101.694 127.231 101.923 127.231 102.206C127.232 102.49 127.003 102.72 126.719 102.721L121.711 102.735H121.709Z"
            fill="#DF8E8A" />
        <path
            d="M126.821 133.141L121.788 133.155C121.311 133.157 120.924 132.771 120.923 132.295C120.921 131.818 121.307 131.431 121.783 131.43L126.816 131.416C127.293 131.414 127.68 131.8 127.682 132.276C127.683 132.752 127.297 133.14 126.821 133.141Z"
            fill="#D97A75" />
        <path
            d="M112.035 132.607C111.877 132.607 111.748 132.479 111.747 132.32C111.747 132.283 111.755 132.245 111.769 132.21C111.783 132.175 111.805 132.144 111.831 132.117C111.858 132.09 111.889 132.069 111.924 132.054C111.959 132.04 111.997 132.032 112.034 132.032L113.012 132.029C112.963 132.221 112.92 132.413 112.885 132.605L112.036 132.607H112.035ZM117.539 132.592L117.49 132.435L117.381 132.017L118.218 132.015H118.219C118.377 132.015 118.506 132.143 118.506 132.302C118.506 132.339 118.499 132.377 118.485 132.412C118.47 132.447 118.449 132.479 118.423 132.505C118.396 132.532 118.364 132.553 118.329 132.568C118.295 132.583 118.257 132.59 118.219 132.59L117.539 132.592Z"
            fill="#858585" />
        <path
            d="M122.932 87.8838C122.731 87.8838 122.568 87.7215 122.568 87.521V87.4819C122.567 87.281 122.729 87.1174 122.931 87.117L127.1 87.1054H127.101C127.302 87.1054 127.464 87.2677 127.465 87.4682L127.465 87.5073C127.466 87.7082 127.303 87.8718 127.102 87.8722L122.933 87.8838H122.932ZM122.94 90.76C122.739 90.76 122.576 90.5977 122.576 90.3968L122.575 90.3582C122.575 90.1572 122.738 89.9937 122.939 89.9928L127.108 89.9816H127.109C127.309 89.9816 127.472 90.1435 127.473 90.3445V90.3831C127.473 90.5844 127.311 90.748 127.11 90.7484L122.941 90.76H122.94ZM122.944 92.211C122.743 92.211 122.58 92.0487 122.58 91.8482V91.8091C122.579 91.6082 122.741 91.4446 122.943 91.4442L127.112 91.4326H127.113C127.314 91.4326 127.476 91.5949 127.477 91.7954L127.477 91.8345C127.478 92.0354 127.315 92.199 127.114 92.1994L122.945 92.211H122.944ZM122.949 93.8887C122.748 93.8887 122.585 93.7263 122.585 93.5258L122.584 93.4868C122.584 93.2859 122.746 93.1223 122.947 93.1219L127.116 93.1102H127.118C127.318 93.1102 127.481 93.2726 127.482 93.4735V93.5121C127.482 93.7131 127.32 93.8766 127.118 93.877L122.949 93.8887H122.949ZM122.936 89.29C122.735 89.29 122.572 89.1276 122.572 88.9267V88.8881C122.571 88.6872 122.734 88.5236 122.935 88.5232L124.461 88.5186H124.461C124.662 88.5186 124.825 88.6809 124.826 88.8819L124.826 88.9205C124.826 89.1218 124.664 89.285 124.463 89.2858L122.937 89.29H122.936ZM125.579 89.2825C125.378 89.2825 125.215 89.1202 125.215 88.9196V88.8806C125.214 88.6797 125.376 88.5161 125.578 88.5157L127.104 88.5115H127.105C127.305 88.5115 127.468 88.6739 127.469 88.8744V88.9134C127.47 89.1143 127.307 89.2779 127.106 89.2783L125.58 89.2825H125.579Z"
            fill="#D9D9D9" />
        <path
            d="M115.691 87.9036C115.502 87.9036 115.349 87.7508 115.348 87.5619V87.4801C115.348 87.3893 115.384 87.302 115.448 87.2376C115.512 87.1731 115.599 87.1367 115.69 87.1364L119.343 87.1264H119.344C119.533 87.1264 119.686 87.2792 119.687 87.4681L119.687 87.5495C119.688 87.7388 119.535 87.8928 119.346 87.8932L115.692 87.9036H115.691ZM115.695 89.3093C115.506 89.3093 115.353 89.1565 115.353 88.9676L115.352 88.8863C115.352 88.697 115.504 88.5429 115.694 88.5425L120.424 88.5297H120.425C120.614 88.5297 120.767 88.6824 120.767 88.8713L120.768 88.9527C120.768 89.142 120.615 89.296 120.426 89.2964L115.696 89.3093H115.695ZM115.699 90.7794C115.51 90.7794 115.357 90.6266 115.357 90.4377L115.356 90.3563C115.356 90.167 115.509 90.013 115.698 90.0126L120.428 89.9993H120.429C120.618 89.9993 120.771 90.1521 120.772 90.341V90.4228C120.772 90.6121 120.619 90.7657 120.43 90.7665L115.7 90.7794H115.699ZM115.703 92.2308C115.514 92.2308 115.361 92.078 115.36 91.8887V91.8073C115.36 91.7164 115.396 91.6292 115.46 91.5647C115.524 91.5003 115.611 91.4639 115.702 91.4636L120.432 91.4507H120.433C120.622 91.4507 120.775 91.6035 120.776 91.7924V91.8738C120.777 92.0631 120.623 92.2171 120.434 92.2175L115.704 92.2308H115.703ZM115.708 93.9084C115.519 93.9084 115.366 93.7557 115.365 93.5668L115.365 93.485C115.365 93.3941 115.401 93.3069 115.465 93.2424C115.529 93.178 115.616 93.1416 115.707 93.1412L118.473 93.1338H118.474C118.663 93.1338 118.816 93.2865 118.817 93.4754L118.817 93.5568C118.817 93.7461 118.665 93.9001 118.475 93.9006L115.709 93.9084H115.708ZM119.397 93.8981C119.209 93.8981 119.055 93.7453 119.055 93.5564V93.4746C119.054 93.2857 119.207 93.1317 119.396 93.1313L120.827 93.1271H120.828C121.017 93.1271 121.171 93.2799 121.171 93.4688L121.171 93.5506C121.172 93.7399 121.019 93.8935 120.83 93.8943L119.398 93.8981H119.397Z"
            fill="#E5E5E5" />
        <path
            d="M127.876 70.1692L81.69 70.2974L81.6709 63.395L127.857 63.2667L127.876 70.1692ZM128.078 142.646L82.0607 142.774L82.042 136.064L128.059 135.935L128.078 142.646Z"
            fill="#E6E6E6" />
        <path
            d="M91.0194 131.725C90.872 131.722 90.7134 131.726 90.5689 131.727C90.5697 131.927 90.5706 132.23 90.571 132.43L91.0214 132.429C91.3664 132.428 91.3859 131.728 91.0194 131.725ZM89.9445 133.628C89.9424 132.808 89.9399 131.989 89.9379 131.165C90.2928 131.164 90.6594 131.163 91.0218 131.162C92.2005 131.162 92.2059 132.992 91.0268 132.996L90.5726 132.997L90.5743 133.627C90.3634 133.628 90.1521 133.628 89.9445 133.628ZM93.2077 132.12L92.9349 132.769L93.4908 132.767L93.2077 132.12ZM93.7 133.308L92.7286 133.311L92.5853 133.621L91.9692 133.623V133.531L93.0711 131.125L93.3422 131.124L94.4606 133.525L94.461 133.616L93.8453 133.618L93.7 133.308ZM95.7082 133.613L95.0854 133.614L95.0825 132.58L94.2518 131.248L94.2514 131.153L94.9306 131.151L95.3798 131.97H95.4047L95.8489 131.149L96.5318 131.147L96.5322 131.242L95.7052 132.578L95.7082 133.613Z"
            fill="white" />
        <path
            d="M123.743 158.365H121.077C121.024 158.28 120.991 158.233 120.991 158.233C120.991 158.233 121.805 157.633 121.407 157.025C121.856 157.402 122.644 157.906 123.66 158.037C123.683 158.15 123.711 158.26 123.743 158.365ZM163.161 158.365H136.473C136.137 156.993 135.89 155.886 135.806 155.291C135.779 155.1 135.749 154.917 135.717 154.741H166.784C166.784 154.888 166.775 155.033 166.759 155.174C166.743 155.31 166.719 155.444 166.688 155.574C166.672 155.642 166.654 155.71 166.634 155.776C166.189 157.273 164.802 158.365 163.16 158.365M109.119 158.365H46.5878C44.6295 158.365 43.034 156.812 42.9659 154.87C42.9647 154.827 42.9639 154.785 42.9639 154.741H105.789C106.506 155.596 107.479 156.49 108.363 157.486C108.606 157.758 108.858 158.052 109.119 158.365Z"
            fill="#9A9A9B" />
        <path d="M53.3868 84.0713L52.7699 83.7446L53.3868 84.0709V84.0713Z" fill="#7FAA71" />
        <path
            d="M123.682 151.559C123.682 151.559 121.391 152.239 119.54 150.08C119.489 151.122 118.684 152.815 117.67 153.676C118.322 154.742 120.346 157.562 118.818 160.136C117.389 158.424 112.975 152.959 112.975 152.959C112.975 152.959 114.861 146.852 117.117 144.092C120.604 148.488 122.535 150.467 123.682 151.559Z"
            fill="#F2C193" />
        <path
            d="M124.505 159.876C124.505 159.876 123.883 159.107 123.66 158.038C122.644 157.906 121.856 157.402 121.407 157.025C121.805 157.633 120.991 158.233 120.991 158.233C120.991 158.233 122.681 160.61 120.802 162.166L118.381 159.734C118.381 159.734 120.398 157.677 117.232 153.196C117.316 153.121 118.794 152.203 119.122 149.524C119.199 149.611 120.968 151.859 123.382 151.075C123.574 152.067 124.6 155.765 125.791 157.5C125.147 159.108 125.044 159.489 125.044 159.489L124.505 159.876Z"
            fill="#E8B98D" />
        <path
            d="M116.805 129.808C116.931 130.599 118.291 135.444 118.684 135.851C119.264 136.452 123.746 141.575 127.55 146.28L130.313 148.834C130.313 148.834 133.235 150.839 133.927 151.192C134.62 151.546 135.438 152.704 135.806 155.291C136.219 158.195 140.497 173.291 140.105 171.904L130.235 181.258L124.391 177.964C122.894 177.121 121.525 176.071 120.331 174.835C118.646 173.091 116.419 170.466 115.432 167.908C113.334 163.792 110.46 159.846 108.363 157.486C106.268 155.125 103.666 153.339 105.183 151.278C106.7 149.217 109.434 149.517 112.07 151.878C114.706 154.237 116.195 156.869 118.291 159.296C120.386 161.724 121.569 162.702 122.447 162.633C122.447 162.633 122.816 160.776 124.941 159.389C125.244 158.343 125.277 157.87 125.664 157.498C125.664 157.498 124.143 155.778 123.429 151.425C121.646 149.546 117.228 146.08 114.478 139.226C114.427 139.098 114.353 138.981 114.263 138.876C112.865 137.24 112.157 133.951 113.346 131.017C113.55 130.514 113.881 130.071 114.291 129.716C114.55 129.491 114.776 129.295 114.975 129.124C115.642 128.551 116.667 128.94 116.805 129.808Z"
            fill="#FECA9A" />
        <path
            d="M108.576 156.599C108.162 156.599 107.748 156.441 107.431 156.126L106.027 154.725C105.159 153.859 105.157 152.453 106.023 151.585C106.457 151.151 107.025 150.933 107.594 150.933C108.162 150.933 108.729 151.149 109.163 151.582L110.567 152.983C111.191 153.605 111.202 154.611 110.596 155.247C110.945 154.88 111.083 154.392 111.023 153.924C110.573 154.145 110.043 154.483 109.515 155.018C108.983 155.556 108.678 156.113 108.496 156.591C108.524 156.593 108.551 156.593 108.579 156.593C108.99 156.593 109.4 156.442 109.715 156.13C109.4 156.443 108.988 156.599 108.576 156.599ZM110.584 155.26C110.584 155.259 110.585 155.259 110.585 155.258C110.585 155.259 110.584 155.259 110.584 155.26Z"
            fill="#FED6B0" />
        <path
            d="M108.579 156.593C108.551 156.593 108.524 156.593 108.496 156.591C108.678 156.113 108.983 155.556 109.515 155.018C110.043 154.483 110.573 154.145 111.023 153.924C111.083 154.392 110.945 154.88 110.597 155.246L110.594 155.249L110.591 155.252C110.589 155.254 110.587 155.256 110.585 155.258C110.585 155.259 110.584 155.259 110.584 155.26L110.578 155.266L110.577 155.267L110.57 155.274L109.723 156.123C109.72 156.126 109.718 156.128 109.715 156.13C109.4 156.442 108.99 156.593 108.579 156.593Z"
            fill="#FEDFC1" />
        <path
            d="M118.289 134.976L118.093 134.351C118.087 134.351 118.081 134.353 118.075 134.354C117.898 133.82 117.709 133.201 117.532 132.592H117.539L118.289 134.976ZM117.367 132.017C117.081 131.004 116.853 130.11 116.805 129.808L117.381 132.017H117.367Z"
            fill="white" />
        <path
            d="M117.532 132.592C117.475 132.398 117.421 132.206 117.367 132.017H117.381L117.49 132.435L117.539 132.592H117.532Z"
            fill="#A0A0A0" />
        <path
            d="M116.762 135.385C115.917 135.385 115.132 134.836 114.877 133.978L114.414 132.421C114.121 131.435 114.692 130.4 115.682 130.123L116.805 129.808C116.853 130.11 117.081 131.005 117.367 132.017C117.42 132.206 117.475 132.398 117.532 132.592C117.709 133.201 117.898 133.82 118.075 134.354C117.732 134.418 116.968 134.631 116.16 135.285C116.357 135.349 116.564 135.383 116.775 135.383C116.981 135.383 117.19 135.35 117.397 135.28C117.193 135.349 116.978 135.385 116.762 135.385Z"
            fill="#FED6B0" />
        <path
            d="M118.289 134.976C118.221 134.788 118.149 134.579 118.075 134.354C118.081 134.353 118.087 134.351 118.093 134.351L118.289 134.976H118.289Z"
            fill="white" />
        <path
            d="M116.775 135.383C116.564 135.383 116.357 135.349 116.16 135.285C116.968 134.631 117.732 134.418 118.075 134.354C118.149 134.579 118.221 134.788 118.289 134.976L117.397 135.28C117.197 135.348 116.987 135.383 116.775 135.383Z"
            fill="#FEDFC1" />
        <path
            d="M138.946 170.123L136.295 167.479L133.736 157.137L133.711 156.997C133.617 155.999 133.302 154.286 132.927 153.776C132.507 153.204 130.418 151.651 129.069 150.731L128.918 150.604C128.758 150.446 127.274 149.133 125.959 147.979L125.905 147.932L117.396 137.895C117.068 137.508 117.096 136.938 117.448 136.584L117.508 136.529C117.683 136.381 117.905 136.299 118.135 136.299C118.41 136.299 118.683 136.415 118.874 136.642L127.292 146.569C128.457 147.592 129.824 148.798 130.223 149.173C130.936 149.661 133.747 151.617 134.488 152.627C135.28 153.702 135.569 156.1 135.634 156.74L138.946 170.123ZM122.762 164.847C122.725 164.847 122.686 164.843 122.648 164.833C122.547 164.809 120.131 164.192 116.662 159.51L116.241 158.942C113.1 154.701 111.525 152.572 109.178 151.23C108.945 151.097 108.865 150.801 108.998 150.569C109.019 150.53 109.045 150.496 109.075 150.467C109.167 150.375 109.291 150.325 109.418 150.325C109.5 150.325 109.583 150.345 109.658 150.389C112.182 151.832 113.9 154.152 117.02 158.365L117.441 158.934C120.647 163.261 122.84 163.882 122.876 163.892C123.134 163.955 123.293 164.215 123.231 164.474C123.179 164.696 122.981 164.847 122.762 164.847Z"
            fill="#FED4AC" />
        <path
            d="M116.275 135.348C116.217 135.415 116.178 135.496 116.163 135.583C116.148 135.67 116.156 135.76 116.188 135.843C116.285 136.092 116.566 136.215 116.816 136.118L118.274 135.552C118.523 135.458 118.647 135.175 118.551 134.926C118.454 134.676 118.173 134.552 117.924 134.65L116.465 135.216C116.39 135.244 116.325 135.291 116.275 135.348ZM110.68 153.582C110.619 153.643 110.575 153.719 110.554 153.803C110.532 153.887 110.534 153.975 110.558 154.059C110.614 154.254 110.461 154.616 110.339 154.8C110.165 154.99 109.906 155.236 109.676 155.466C109.461 155.683 109.272 155.87 109.206 155.925C109.143 155.977 108.898 156.078 108.693 156.135C108.632 156.152 108.575 156.181 108.525 156.22C108.474 156.259 108.432 156.308 108.401 156.363C108.37 156.418 108.35 156.479 108.342 156.543C108.334 156.606 108.339 156.67 108.356 156.731C108.426 156.989 108.693 157.14 108.951 157.069C109.09 157.031 109.564 156.889 109.83 156.666C110.042 156.485 110.917 155.585 111.09 155.406C111.2 155.256 111.694 154.496 111.488 153.789C111.414 153.532 111.145 153.384 110.888 153.458C110.809 153.481 110.738 153.524 110.68 153.582Z"
            fill="#E8B98D" />
        <path d="M135.513 166.699L125.128 177.109L144.242 196.176L154.627 185.766L135.513 166.699Z"
            fill="#FECA9A" />
        <path
            d="M145.181 172.087L130.784 186.519L178.909 234.527C179.861 235.476 179.863 237.023 178.913 237.975L164.509 252.415L178.941 266.812L193.346 252.372C202.234 243.462 202.216 228.982 193.306 220.094L145.181 172.087Z"
            fill="#83705D" />
        <path
            d="M142.697 169.731L128.156 184.307C127.202 185.264 127.204 186.813 128.16 187.767L131.408 191.006C132.364 191.96 133.913 191.958 134.867 191.002L149.408 176.426C150.362 175.469 150.36 173.92 149.404 172.966L146.156 169.727C145.2 168.773 143.651 168.774 142.697 169.731Z"
            fill="#756453" />
        <path
            d="M176.568 209.851H170.795L166.923 205.989C166.126 205.194 166.125 203.903 166.92 203.106C167.318 202.707 167.84 202.507 168.363 202.507C168.884 202.507 169.405 202.706 169.803 203.103L176.568 209.851ZM162.685 200.921C162.165 200.921 161.644 200.722 161.246 200.325L149.617 188.725C148.82 187.93 148.818 186.639 149.613 185.842C150.012 185.443 150.534 185.243 151.057 185.243C151.577 185.243 152.098 185.442 152.497 185.839L164.125 197.439C164.922 198.234 164.924 199.525 164.129 200.322C163.73 200.721 163.208 200.921 162.685 200.921Z"
            fill="#907F6E" />
    </g>
</svg>