<svg
    width="70"
    height="50"
    viewBox="0 0 90 70"
    fill="none"
    xmlns="http://www.w3.org/2000/svg"
>
    <path
        d="M75.3237 65.9712H79.2805C79.4394 65.9712 79.5683 65.8424 79.5683 65.6835V60.2158C79.5683 60.0569 79.6971 59.9281 79.856 59.9281H80.9138C81.0161 59.9281 81.1108 59.9824 81.1623 60.0708L84.521 65.8285C84.5725 65.9169 84.6672 65.9712 84.7695 65.9712H88.188C88.3968 65.9712 88.5361 65.7558 88.4504 65.5654L84.1567 56.0239C84.1212 55.945 84.1231 55.8544 84.1617 55.7771L88.4248 47.251C88.5204 47.0597 88.3813 46.8345 88.1674 46.8345H84.2577C84.1598 46.8345 84.0686 46.8843 84.0157 46.9667L80.0981 53.0607C79.9428 53.3023 79.5683 53.1923 79.5683 52.9051V47.1223C79.5683 46.9634 79.4394 46.8345 79.2805 46.8345H75.3237C75.1647 46.8345 75.0359 46.9634 75.0359 47.1223V65.6835C75.0359 65.8424 75.1647 65.9712 75.3237 65.9712Z"
        fill="#2E2E2E"
    />
    <path
        d="M85.3791 25.03L81.2871 25.3822C81.0611 25.4017 80.9824 25.0893 81.1907 24.9994L88.4184 21.8784C88.5775 21.8097 88.7427 21.962 88.6871 22.1261L86.317 29.1246C86.2475 29.3298 85.9469 29.2935 85.9283 29.0776L85.5955 25.2121C85.586 25.102 85.4892 25.0205 85.3791 25.03Z"
        fill="#FFB41A"
    />
    <path
        d="M16.6188 45.5396V27.9856C16.6188 27.8267 16.7476 27.6978 16.9065 27.6978H21.8706C22.0295 27.6978 22.1583 27.8267 22.1583 27.9856V45.5396C22.1583 45.6985 22.0295 45.8273 21.8706 45.8273H16.9065C16.7476 45.8273 16.6188 45.6985 16.6188 45.5396Z"
        fill="#FFB41A"
    />
    <path
        d="M13.0935 50.0719V47.1223C13.0935 46.9634 13.2223 46.8345 13.3813 46.8345H25.8993C26.0582 46.8345 26.187 46.9634 26.187 47.1223V50.0719C26.187 50.2309 26.0582 50.3597 25.8993 50.3597H21.9424C21.7835 50.3597 21.6547 50.4886 21.6547 50.6475V65.6835C21.6547 65.8424 21.5258 65.9712 21.3669 65.9712H16.9065C16.7475 65.9712 16.6187 65.8424 16.6187 65.6835V50.6475C16.6187 50.4886 16.4898 50.3597 16.3309 50.3597H13.3813C13.2223 50.3597 13.0935 50.2309 13.0935 50.0719Z"
        fill="#2E2E2E"
    />
    <path
        fill-rule="evenodd"
        clip-rule="evenodd"
        d="M0.143885 27.7048C0.0644195 27.7048 0 27.7692 0 27.8487V48.712C0 48.7915 0.0644196 48.8559 0.143885 48.8559H5.89928C5.97875 48.8559 6.04317 48.7915 6.04317 48.712V41.9576C6.04317 41.875 6.11058 41.8094 6.19312 41.8126C9.25667 41.9338 15.0006 40.6999 14.6043 34.7552C14.1264 27.5857 10.0193 27.6744 8.74135 27.702C8.67281 27.7035 8.61242 27.7048 8.56115 27.7048H0.143885ZM4.67622 32.2372C4.59675 32.2372 4.53233 32.3016 4.53233 32.3811V37.1578C4.53233 37.2252 4.57847 37.2836 4.64451 37.2972C6.18748 37.6158 9.06471 37.7281 9.06471 35.7624C9.06471 35.2932 9.08219 34.8764 9.09761 34.5089C9.16496 32.904 9.19293 32.2372 7.55391 32.2372H4.67622Z"
        fill="#FFB41A"
    />
    <ellipse
        cx="51.8705"
        cy="24.1727"
        rx="3.52518"
        ry="3.52518"
        fill="#2E2E2E"
    />
    <path
        d="M47.0866 65.2156L48.1893 64.1129C48.2813 64.0209 48.2971 63.8734 48.2328 63.7602C42.3718 53.4492 47.8639 50.8633 51.3669 50.8633C60.8276 51.2575 56.596 61.0048 53.1071 66.1421C52.9955 66.3064 52.7571 66.3054 52.6468 66.1403C50.1539 62.4098 46.9716 53.8849 51.3669 53.8849C54.8661 53.8849 53.3312 57.3243 52.0127 59.2244C51.9319 59.3407 51.9443 59.4982 52.0444 59.5984L52.6405 60.1945C52.7652 60.3192 52.9753 60.2988 53.0772 60.1548C57.1988 54.3319 53.6808 52.5394 51.3669 52.3741C43.0893 52.7683 48.9203 63.8002 53.1066 69.6222C53.2322 69.7968 53.4956 69.7715 53.5918 69.5791L58.4173 59.9281C61.6403 51.0648 55.06 48.8489 51.3669 48.8489C39.9026 49.6396 43.3404 59.8693 46.6453 65.1693C46.7423 65.3249 46.957 65.3452 47.0866 65.2156Z"
        fill="#2E2E2E"
    />
    <path
        d="M63.4533 21.4108V11.6424C63.4533 11.605 63.4714 11.5699 63.502 11.5483L71.8329 5.66768C71.9092 5.61386 72.0144 5.66839 72.0144 5.76172V14.55C72.0144 14.5844 71.999 14.617 71.9725 14.6389L63.6415 21.4996C63.5664 21.5615 63.4533 21.508 63.4533 21.4108Z"
        fill="#2E2E2E"
    />
    <path
        d="M54.0583 5.63136L62.3844 10.0393C62.4223 10.0594 62.4682 10.0567 62.5035 10.0324L70.3514 4.63701C70.4216 4.58874 70.4169 4.48359 70.3426 4.44183L62.5067 0.0340849C62.4694 0.0131249 62.4236 0.0145436 62.3877 0.0377691L54.0496 5.43299C53.9758 5.48074 53.9806 5.59024 54.0583 5.63136Z"
        fill="#2E2E2E"
    />
    <path
        d="M61.881 11.5504L52.4025 6.56169C52.3839 6.55193 52.363 6.54741 52.3421 6.54865L43.813 7.05036C45.9952 7.21823 50.6619 7.55396 51.8705 7.55396C53.0451 7.55396 52.7294 8.50514 52.4026 9.02097C52.3848 9.04905 52.3552 9.06721 52.3222 9.07151L40.7914 10.5755C43.6451 10.4077 49.7554 10.0719 51.3669 10.0719C52.9345 10.0719 52.7231 11.0249 52.4014 11.5404C52.3844 11.5677 52.356 11.5856 52.3243 11.5906L42.8058 13.0935C44.988 12.9257 49.7554 12.5899 51.3669 12.5899C52.9368 12.5899 52.7225 13.8643 52.4 14.5509C52.3841 14.5847 52.3522 14.6077 52.3153 14.6134L47.3151 15.3826C47.1745 15.4043 47.1904 15.6115 47.3326 15.6115H52.3408C52.3626 15.6115 52.3839 15.6177 52.4023 15.6293L61.7659 21.5432C61.8425 21.5916 61.9425 21.5365 61.9425 21.4458V11.6522C61.9425 11.6095 61.9188 11.5703 61.881 11.5504Z"
        fill="#2E2E2E"
    />
    <path
        d="M68.5999 48.65C68.4833 44.8 69.0199 36.61 72.0999 34.65C75.9499 32.2 74.5499 47.25 76.6499 50.05C78.7499 52.85 81.1999 22.4 87.1499 25.2"
        stroke="#FFB41A"
        stroke-width="4"
    />
    <path
        fill-rule="evenodd"
        clip-rule="evenodd"
        d="M28.2014 48.0462V65.6833C28.2014 65.8423 28.3303 65.9711 28.4892 65.9711H32.446C32.605 65.9711 32.7338 65.8423 32.7338 65.6833V58.7049C32.7338 58.546 32.8626 58.4171 33.0216 58.4171H34.5408C34.6646 58.4171 34.7746 58.4964 34.8138 58.6139L37.2006 65.7744C37.2397 65.8919 37.3497 65.9711 37.4736 65.9711H42.3137C42.5338 65.9711 42.6724 65.7341 42.5645 65.5423L38.4713 58.2655C38.3744 58.0932 38.4757 57.8758 38.666 57.8223C40.5054 57.3053 43.1918 55.3236 41.8831 50.6473C41.8393 50.4907 41.9279 50.3249 42.0828 50.2756C46.3632 48.9135 50.6187 43.2316 52.3083 40.3986C52.3512 40.3267 52.4217 40.2785 52.5044 40.2657C56.7991 39.5986 61.4089 44.4485 63.3233 47.1519C63.4008 47.2613 63.3896 47.4069 63.301 47.5075C61.4276 49.6339 58.2483 54.7199 59.4244 59.4243C60.9352 65.4675 65.4676 66.4747 67.482 65.9711C69.4574 65.4772 72.8858 64.4991 72.5427 60.187C72.5311 60.0408 72.407 59.9279 72.2604 59.9279H68.777C68.618 59.9279 68.4913 60.0579 68.4586 60.2135C68.1244 61.8046 65.162 63.3678 64.964 61.9423C64.1304 55.94 63.5617 45.7645 67.8964 52.7329C67.9494 52.818 68.0467 52.8776 68.147 52.8776H71.7946C71.9243 52.8776 72.0388 52.7916 72.0666 52.6648C72.4842 50.7622 72.0332 47.0766 67.1493 45.8681C67.0459 45.8425 66.9613 45.7616 66.9317 45.6592C65.2614 39.8798 57.8941 37.6995 54.144 37.292C53.9961 37.2759 53.8849 37.1521 53.8849 37.0033V34.5763C53.8849 34.4012 54.041 34.2671 54.2151 34.2861C59.4977 34.8647 63.9664 31.1509 65.7666 28.9618C65.8775 28.8271 65.8362 28.6278 65.6847 28.5412L62.6158 26.7876C62.5133 26.729 62.384 26.7404 62.2913 26.8135C56.7139 31.2131 51.8734 31.6761 49.7634 31.3126C49.5637 31.2782 49.3762 31.4464 49.3939 31.6483C50.3471 42.556 42.2622 46.377 37.9951 46.9345C37.9589 46.9393 37.9237 46.9366 37.8883 46.9276C34.8463 46.1554 30.8495 46.9513 28.3944 47.7757C28.2783 47.8147 28.2014 47.9237 28.2014 48.0462ZM33.5251 54.3885C33.3662 54.3885 33.2374 54.2596 33.2374 54.1007V51.1511C33.2374 50.9921 33.3662 50.8633 33.5251 50.8633H36.1792C36.2314 50.8633 36.2825 50.877 36.3264 50.9053C37.1469 51.4344 38.1906 52.7818 36.3386 54.3235C36.2883 54.3653 36.2233 54.3885 36.158 54.3885H33.5251Z"
        fill="#2E2E2E"
    />
    <path
        d="M37.7697 41.7986C31.223 43.813 29.5443 40.9592 29.7121 37.7698H41.7985L39.7841 34.7482V29.2086H36.2589V32.7338L32.7338 27.6978L25.1798 36.259H26.6906C26.0192 39.1127 26.1475 44.3047 31.223 45.8273C36.2589 47.3381 39.2805 44.8201 39.7841 43.813"
        stroke="#2E2E2E"
        stroke-width="2.8777"
        stroke-linecap="round"
    />
</svg>