<svg width="370" height="249" viewBox="0 0 370 249" fill="none" xmlns="http://www.w3.org/2000/svg">
    <path
        d="M327.922 241.264C319.698 241.289 311.474 241.311 303.25 241.333C303.012 240.411 302.824 239.024 303.388 237.544C303.601 236.982 303.846 236.612 303.972 236.412C304.621 235.367 305.392 233.611 305.81 230.509C307.299 230.336 308.789 230.167 310.282 229.994C315.928 237.594 319.124 239.118 321.018 239.005C322.354 238.927 323.637 239.667 324.976 239.68C325.836 239.689 326.893 239.604 327.504 240.291C327.784 240.605 327.884 240.981 327.922 241.264Z"
        fill="#FFA194" />
    <path
        d="M299.813 56.7874C299.787 58.6912 299.762 60.6044 299.728 62.5177C299.687 65.5694 299.643 68.6275 299.602 71.6824H286.078C286.912 65.3028 287.747 58.9201 288.581 52.5406C290.413 53.538 292.602 54.5605 295.136 55.445C296.798 56.0221 298.367 56.458 299.813 56.7874Z"
        fill="#FFA194" />
    <path
        d="M299.813 56.7874C299.787 58.6912 299.762 60.6045 299.728 62.5177C297.19 62.4487 295.136 59.3436 295.136 55.5297C296.692 55.8872 298.251 56.3389 299.813 56.7874Z"
        fill="#210B04" />
    <path
        d="M306.321 127.565C308.962 135.177 306.004 143.115 299.712 145.295C293.427 147.478 286.185 143.074 283.547 135.465C280.909 127.853 283.867 119.915 290.155 117.735C296.444 115.552 303.683 119.956 306.321 127.565Z"
        fill="#FFA194" />
    <path
        d="M314.513 172.184C316.132 179.818 315.699 186.219 313.312 187.198C310.753 188.252 305.283 183.309 300.722 174.458C296.297 161.692 291.868 148.93 287.443 136.165C294.521 132.799 301.6 129.431 308.679 126.065C310.455 130.186 312.186 135.111 313.459 140.769C316.348 153.584 315.658 164.662 314.513 172.184Z"
        fill="#FFA194" />
    <path
        d="M306.016 138.395C302.961 145.85 295.49 149.846 289.33 147.321C283.174 144.793 280.655 136.708 283.713 129.252C286.768 121.797 294.239 117.804 300.399 120.329C306.556 122.854 309.071 130.943 306.016 138.395Z"
        fill="#FFA194" />
    <path
        d="M282.64 177.271C278.801 184.067 274.241 188.581 271.807 187.74C269.191 186.834 268.36 179.51 270.794 169.853C275.919 157.354 281.044 144.855 286.169 132.357C293.706 134.515 301.243 136.672 308.776 138.83C307.381 143.096 305.42 147.932 302.635 153.02C296.321 164.54 288.474 172.39 282.64 177.271Z"
        fill="#FFA194" />
    <path
        d="M311.468 233.84C309.382 233.875 307.293 233.912 305.208 233.947C302.752 226.632 301.171 220.331 300.139 215.561C296.73 199.841 298.088 195.362 298.844 193.402C299.458 191.805 300.315 190.218 301.287 186.978C302.592 182.637 303.034 178.905 303.2 176.396C306.506 180.809 309.809 185.219 313.111 189.632C312.619 192.222 312.177 194.898 311.807 197.664C310.022 211.007 310.276 223.226 311.468 233.84Z"
        fill="#FFA194" />
    <path
        d="M250.959 236.904C248.679 236.569 246.399 236.233 244.118 235.898C240.543 230.459 236.967 225.023 233.389 219.585C233.894 218.754 234.747 217.628 236.158 216.988C236.704 216.743 237.137 216.652 237.369 216.596C238.564 216.313 240.348 215.608 242.829 213.698C244.009 214.626 245.188 215.554 246.367 216.483C245.025 225.858 246.223 229.185 247.644 230.44C248.651 231.328 249.039 232.755 249.98 233.708C250.586 234.317 251.395 235.004 251.348 235.919C251.326 236.34 251.128 236.678 250.959 236.904Z"
        fill="#FFA194" />
    <path
        d="M244.504 220.046C242.996 218.603 241.49 217.16 239.985 215.714C243.388 208.795 246.703 203.206 249.328 199.088C257.975 185.526 262.093 183.302 264.01 182.443C265.572 181.743 267.297 181.216 270.27 179.604C274.25 177.44 277.192 175.1 279.077 173.438C278.318 178.895 277.556 184.356 276.797 189.813C274.62 191.303 272.425 192.897 270.217 194.596C259.553 202.814 251.128 211.671 244.504 220.046Z"
        fill="#FFA194" />
    <path
        d="M298.486 58.1325C296.231 57.7529 291.95 56.5423 287.292 51.8125C287.025 51.5459 283.136 47.4779 284.41 41.9703C285.225 38.4355 287.772 36.0267 290.243 34.8725C295.412 32.4512 301.713 34.8349 303.282 37.711C303.545 38.1972 303.705 38.6645 303.808 39.0628C304.561 42.5035 304.913 44.0404 304.944 44.1219L304.994 44.3916L304.941 44.6049C304.818 45.0566 304.699 45.5114 304.58 45.963C304.712 48.9552 304.815 50.2066 304.903 50.5861C305.054 51.3357 305.116 51.6494 305.007 51.9223L304.982 52.1449L305.314 52.352L305.088 52.9447C305.038 53.0075 304.621 53.5313 304.175 53.4434L303.874 53.2898C303.884 53.2709 304.68 53.5689 304.677 53.8982L304.508 54.1993L304.244 54.3656C303.918 54.582 304.658 56.4889 304.401 57.2637C304.022 58.4022 301.117 58.5747 298.486 58.1325Z"
        fill="#FFA194" />
    <path
        d="M306.791 49.6045C306.794 50.0907 306.293 50.4576 306.108 50.5925C305.596 50.9626 305.051 50.9908 304.831 50.9908C304.68 50.8842 304.433 50.6709 304.383 50.3573C304.342 50.0938 304.495 49.9464 304.542 49.6234C304.571 49.4164 304.561 49.1058 304.367 48.7012C304.411 47.685 304.455 46.6688 304.495 45.6495C304.831 46.2517 305.098 46.7441 305.28 47.0828C305.879 48.2057 305.863 48.237 306.061 48.5099C306.522 49.1466 306.791 49.2501 306.791 49.6045Z"
        fill="#FFA194" />
    <path
        d="M298.62 181.26C296.795 192.113 296.82 200.443 297.212 206.161C297.385 208.676 297.711 211.885 298.357 220.29C298.758 225.503 299.056 229.788 299.251 232.629C303.529 231.898 307.81 231.168 312.092 230.437C313.553 213.626 315.015 196.817 316.476 180.006C317.245 171.406 317.361 160.431 315.319 147.964C314.115 140.603 312.38 134.076 310.523 128.48C302.538 129.371 294.549 130.255 286.564 131.146C290.582 147.851 294.603 164.556 298.62 181.26Z"
        fill="#C1E4E8" />
    <path
        d="M267.927 179.605C264.364 180.64 259.042 182.776 254.616 187.524C252.574 189.713 251.326 191.812 247.678 199.27C245.636 203.442 242.98 209.015 239.985 215.715C242.927 217.647 245.872 219.579 248.82 221.511C259.051 210.913 269.282 200.315 279.516 189.716C284.811 183.553 290.707 175.587 296.049 165.685C299.238 159.77 301.707 154.13 303.633 148.999C306.173 142.911 308.711 136.827 311.248 130.742C310.567 127.894 309.884 125.049 309.203 122.201C302.237 121.003 295.271 119.805 288.308 118.604C287.32 119.25 285.824 120.413 284.591 122.317C282.509 125.538 282.518 128.807 282.587 130.052C277.7 146.568 272.814 163.088 267.927 179.605Z"
        fill="#C1E4E8" />
    <path
        d="M277.362 139.759C279.824 141.807 284.435 145.044 290.987 146.386C303.777 149.011 313.858 142.353 315.953 140.901C314.993 123.685 314.03 106.469 313.07 89.2495C312.854 86.9348 312.104 82.2176 308.902 77.3279C305.7 72.4444 301.682 69.8757 299.643 68.7528C295.343 68.0252 291.046 67.2944 286.749 66.5667C285.529 69.0759 283.864 72.8271 282.38 77.538C279.197 87.6311 278.949 95.444 278.557 106.751C278.243 115.85 277.901 125.275 277.362 139.759Z"
        fill="#7AA073" />
    <path
        d="M295.234 167.564L294.86 167.291L289.205 149.332L289.459 148.839L289.952 149.096L295.607 167.056L295.35 167.545L295.234 167.564Z"
        fill="#210B04" />
    <path
        d="M300.07 182.904L299.788 182.785L298.85 181.806L298.859 181.251L299.414 181.264L300.355 182.242L300.343 182.794L300.07 182.904Z"
        fill="#210B04" />
    <path
        d="M299.367 184.667L298.994 184.4L298.564 183.108L298.812 182.612L299.307 182.86L299.737 184.152L299.489 184.648L299.367 184.667Z"
        fill="#210B04" />
    <path
        d="M269.138 181.888L268.796 181.681L268 180.204L268.159 179.677L268.69 179.834L269.483 181.311L269.323 181.838L269.138 181.888Z"
        fill="#210B04" />
    <path
        d="M265.773 182.415L265.381 182.045L265.34 181.201L265.716 180.79L266.124 181.163L266.165 182.007L265.792 182.415H265.773Z"
        fill="#210B04" />
    <path
        d="M301.472 231.535L301.083 231.187L301.428 230.754L311.204 229.606L311.637 229.948L311.295 230.384L301.519 231.532L301.472 231.535Z"
        fill="#210B04" />
    <path
        d="M247.723 219.867L247.5 219.795L240.998 215.253L240.901 214.708L241.45 214.611L247.948 219.152L248.046 219.698L247.723 219.867Z"
        fill="#210B04" />
    <path
        d="M302.087 241.772H329.28C329.186 241.207 328.969 240.42 328.398 239.702C326.824 237.72 323.96 238.049 321.09 237.519C319.083 237.146 316.364 236.224 313.312 233.777C313.946 232.096 313.883 231.594 313.688 231.466C313.133 231.102 311.49 233.689 308.319 234.941C306.801 235.543 305.392 235.653 304.398 235.643C303.984 235.897 303.05 236.55 302.498 237.779C302.187 238.476 302.105 239.112 302.087 239.539C302.087 240.282 302.087 241.029 302.087 241.772Z"
        fill="#210B04" />
    <path
        d="M232.994 219.425C236.544 225.55 240.098 231.672 243.651 237.798C246.327 237.732 249.002 237.666 251.677 237.6L252.211 237.491C252.716 237.199 252.769 236.409 252.697 235.982C252.534 235.035 251.536 234.605 250.74 234.041C249.843 233.404 248.717 232.262 247.879 230.045C247.264 227.532 246.65 225.02 246.035 222.505C247.553 221.802 247.835 221.407 247.791 221.172C247.66 220.497 244.752 221.078 241.738 219.71C240.251 219.036 239.201 218.095 238.517 217.367C238.341 217.217 237.102 216.197 235.635 216.545C234.854 216.73 234.349 217.226 234.107 217.458C233.354 218.186 233.091 219.026 232.994 219.425Z"
        fill="#210B04" />
    <path
        d="M288.362 52.8821C289.243 52.7849 289.776 51.6589 290.454 50.1754C291.972 46.8695 291.862 44.536 292.633 44.4199C293.446 44.2976 294.026 46.8288 294.873 46.7503C296.018 46.6468 294.885 40.7942 297.658 39.0566C299.048 38.1847 301.24 38.4356 301.497 38.467C303.206 38.6802 303.884 39.4487 304.834 39.0221C305.998 38.5015 306.462 36.6949 306.139 36.4314L305.239 36.5506C305.066 36.3593 305.741 35.7916 305.747 34.9071C305.75 34.8224 305.747 34.0665 305.298 33.709C304.706 33.2417 303.708 33.7654 302.93 33.9662C300.578 34.5684 299.383 31.7863 297.658 32.3979C296.93 32.6583 296.636 33.2636 295.961 33.1444C295.372 33.0346 295.356 32.5328 294.826 32.2443C293.389 31.4664 290.595 33.5772 288.835 34.9071C288.71 35.0012 288.327 35.2929 287.778 35.6504C287.079 36.1052 286.536 36.3844 286.445 36.4314C285.41 36.9897 284.105 39.3138 283.673 41.6662C282.91 45.7781 284.959 49.2062 285.586 50.1754C286.348 51.8753 287.418 52.9856 288.362 52.8821Z"
        fill="#4F3B30" />
    <path
        d="M292.944 100.096L293.681 102.429C294.895 106.19 296.482 110.854 298.508 116.151L307.274 113.391C306.396 108.147 305.53 102.931 304.655 97.69C304.229 95.1996 303.821 92.6716 303.394 90.1813C299.574 84.5827 295.726 78.9967 291.896 73.3699C291.579 73.5895 291.078 73.9847 290.601 74.5555C288.085 77.372 287.496 82.5095 292.944 100.096Z"
        fill="#FFA194" />
    <path
        d="M292.944 100.095L293.681 102.429C297.322 100.832 301.004 99.2546 304.655 97.6895C302.203 98.044 299.712 98.3795 297.259 98.734L292.944 100.095Z"
        fill="#210B04" />
    <path
        d="M291.131 101.096C295.98 99.8852 300.832 98.6714 305.681 97.4607L299.991 79.3822C299.16 74.7214 294.71 72.0366 291.169 72.9242C287.421 73.8683 284.726 78.805 286.718 83.4376C288.189 89.3247 289.66 95.2118 291.131 101.096Z"
        fill="#7AA073" />
    <path d="M309.159 120.623L361.936 120.231L361.554 69.0191L308.777 69.4112L309.159 120.623Z"
        fill="#EDE1D9" />
    <path
        d="M361.554 69.0192C364.351 62.0281 367.146 55.0338 369.944 48.0426C368.479 49.36 367.017 50.6773 365.559 51.9946C363.941 57.6715 362.322 63.3485 360.707 69.0255C360.989 69.0224 361.271 69.0224 361.554 69.0192Z"
        fill="#EDE1D9" />
    <path
        d="M308.874 69.9511C314.334 64.7634 319.792 59.5757 325.252 54.388C324.569 56.2354 323.885 58.0796 323.204 59.9239C318.531 63.5308 313.858 67.1377 309.184 70.7446L308.874 69.9511Z"
        fill="#EDE1D9" />
    <path
        d="M354.672 78.319L354.28 77.9363L354.236 75.4209L354.619 75.0226L355.02 75.4052L355.064 77.9206L354.678 78.319H354.672Z"
        fill="#210B04" />
    <path
        d="M352.382 80.3134L351.994 79.8931L352.147 77.7885L352.567 77.4278L352.928 77.8481L352.775 79.9495L352.382 80.3134Z"
        fill="#210B04" />
    <path d="M317.938 78.9777L324.989 78.9243L324.939 72.504L317.891 72.5574L317.938 78.9777Z"
        fill="white" />
    <path
        d="M332.902 114.657C338.228 113.999 342.173 112.042 342.437 112.584C342.478 112.672 342.437 112.841 342.045 113.212C341.104 114.062 340.163 114.908 339.225 115.755C342.71 117.063 346.194 118.368 349.679 119.673C350.896 118.998 351.997 118.954 352.379 119.437C352.458 119.535 352.558 119.72 352.536 120.065C350.761 120.585 348.986 121.106 347.211 121.63C344.015 121.878 340.815 122.125 337.619 122.373C335.819 121.865 334.016 121.354 332.215 120.846C327.758 120.896 324.12 121.169 321.608 121.41C313.108 122.229 308.309 123.581 303.423 121.567C302.275 121.093 299.101 119.786 298.508 117.148C298.395 116.652 298.401 116.223 298.423 115.931C298.944 113.839 299.464 111.747 299.985 109.655C303.184 109.589 305.722 109.862 307.34 110.094C316.226 111.37 320.052 114.686 328.379 114.871C329.493 114.896 330.951 114.899 332.902 114.657Z"
        fill="#FFA194" />
    <path
        d="M304.655 97.5518L304.269 97.2162L301.895 80.7717L302.227 80.3264L302.67 80.6588L305.044 97.1033L304.712 97.5455L304.655 97.5518Z"
        fill="#210B04" />
    <path
        d="M288.462 101.488L288.073 101.124L286.778 83.9929L287.141 83.5726L287.559 83.9365L288.854 101.068L288.49 101.488H288.462Z"
        fill="#210B04" />
    <path d="M171.347 166.086H193.479V143.955H171.347V166.086Z" fill="#31363E" />
    <path d="M192.488 145.48L193.089 145.64L195.506 136.673L194.904 136.509L192.488 145.48Z"
        fill="#31363E" />
    <path d="M171.879 144.62L171.567 144.084L179.61 139.439L179.922 139.978L171.879 144.62Z"
        fill="#31363E" />
    <path
        d="M168.635 142.873C168.359 142.211 167.577 140.581 165.768 139.379C163.513 137.883 161.2 138.075 160.553 138.147C160.944 137.152 161.319 136.168 161.71 135.173C162.403 133.417 163.082 131.676 163.762 129.935L163.919 129.553C164.686 127.624 165.45 125.67 166.215 123.744L169.706 124.807L172.929 125.786L174.395 126.228C173.84 128.229 173.223 130.293 172.53 132.407C171.307 136.152 169.987 139.643 168.635 142.873Z"
        fill="#FFA194" />
    <path
        d="M146.395 196.322L145.893 196.777C144.063 198.505 142.924 200.28 142.214 201.629C139.604 201.083 138.819 200.211 138.594 199.502C138.315 198.615 138.909 197.975 138.751 196.708C138.591 195.431 137.783 194.474 137.134 193.875C137.362 193.286 137.598 192.68 137.826 192.094C141.283 183.24 144.738 174.429 148.186 165.594C152.274 166.485 156.345 167.366 160.424 168.276C159.316 172.513 158.109 175.947 157.171 178.378C157.171 178.378 152.227 191.191 146.395 196.322Z"
        fill="#FFA194" />
    <path
        d="M160.264 175.317C156.057 173.56 151.85 171.804 147.644 170.051C148.355 163.75 150.256 154.748 155.572 145.361C157.549 141.87 159.676 138.896 161.726 136.397C164.119 137.105 166.51 137.817 168.904 138.526C168.738 142.726 168.285 147.437 167.353 152.527C165.673 161.686 162.934 169.354 160.264 175.317Z"
        fill="#FFA194" />
    <path
        d="M168.298 198.652C168.278 198.734 168.222 198.972 168.152 199.314C167.655 201.782 167.75 203.89 167.949 205.398C165.502 206.459 164.358 206.201 163.765 205.753C163.023 205.188 163.14 204.323 162.28 203.382C161.411 202.431 160.202 202.118 159.323 202.002C159.169 201.387 159.013 200.756 158.86 200.148C156.572 190.924 154.306 181.734 152.02 172.528C155.872 170.897 159.703 169.267 163.558 167.654C165.103 171.754 166.097 175.251 166.736 177.782C166.736 177.782 170.095 191.093 168.298 198.652Z"
        fill="#FFA194" />
    <path
        d="M164.442 176.973C165.003 181.446 162.36 185.46 158.533 185.94C154.708 186.42 151.15 183.186 150.588 178.717C150.027 174.244 152.671 170.23 156.497 169.747C160.322 169.267 163.88 172.5 164.442 176.973Z"
        fill="#FFA194" />
    <path
        d="M161.109 129.443C161.496 129.813 161.902 130.117 162.28 130.328C162.626 130.516 163.541 130.971 164.585 131.833C164.914 132.106 165.254 132.423 165.595 132.774C166.584 133.812 167.202 134.835 167.578 135.525C168.369 135.609 169.954 135.772 171.995 135.979C172.806 136.061 176.02 136.371 178.805 135.967C178.805 135.967 180.933 135.656 181.217 134.778C181.307 134.317 181.222 133.991 181.136 133.743C181.1 133.455 181.1 133.037 181.365 132.821L182.02 132.542C182.178 132.369 181.901 132.109 181.933 131.491L181.95 131.319C182.253 131.018 182.62 130.569 182.5 130.208L181.83 129.754C180.193 129.017 180.124 124.989 180.389 123.785C180.415 123.666 180.505 123.18 180.584 122.505L180.612 121.8C180.617 120.043 180.058 118.716 179.735 117.948C179.601 117.637 179.469 117.346 179.318 117.082C178.539 115.618 177.583 114.564 176.837 113.893C175.831 112.886 174.023 111.43 171.423 110.781C170.583 110.697 169.654 110.653 168.649 110.675C166.764 110.712 165.112 110.979 163.759 111.296C161.162 113.03 159.114 115.618 158.364 118.694L158.208 119.366C157.484 123.424 159.282 126.765 161.109 129.443Z"
        fill="#FFA194" />
    <path
        d="M180.703 129.283L181.266 128.803L181.927 128.533C182.014 128.467 182.212 128.298 182.308 128.01C182.324 127.962 182.429 127.63 182.293 127.304C182.128 126.902 181.688 126.736 181.52 126.661C181.137 126.492 180.561 126.056 179.74 124.842C179.718 125.613 179.698 126.388 179.677 127.16C180.019 127.868 180.36 128.577 180.703 129.283Z"
        fill="#FFA194" />
    <path
        d="M166.422 236.089C164.945 236.111 163.466 236.133 161.988 236.151C159.647 231.428 155.391 220.993 158.293 209.078C158.877 206.678 159.678 204.523 160.567 202.617C162.907 205.188 165.246 207.76 167.586 210.329C167.415 210.891 167.212 211.678 167.09 212.631C166.874 214.322 167.029 215.608 167.058 215.896C167.225 217.505 167.134 222.859 166.422 236.089Z"
        fill="#FFA194" />
    <path
        d="M175.128 242.462H160.364C159.985 241.969 159.534 241.217 159.465 240.263C159.391 239.203 159.831 238.435 160.083 237.845C160.536 236.794 160.894 235.154 160.364 232.642C162.335 232.504 164.306 232.362 166.279 232.221C167.946 234.95 169.785 236.43 171.252 237.29C173.244 238.463 175.396 238.99 175.681 240.523C175.82 241.267 175.468 241.969 175.128 242.462Z"
        fill="#FFA194" />
    <path
        d="M159.867 242.462H177.486C177.321 240.48 176.647 239.31 175.927 238.582C174.698 237.34 173.367 237.412 171.079 236.305C169.429 235.505 168.173 234.52 167.264 233.673C167.061 232.952 166.819 232.268 166.62 232.29C166.145 232.34 166.96 236.305 165.269 237.632C164.504 238.231 163.056 238.416 160.16 237.102C159.917 237.619 159.629 238.397 159.523 239.372C159.376 240.737 159.657 241.838 159.867 242.462Z"
        fill="#FFC757" />
    <path
        d="M159.383 243.416H177.735C178.05 243.416 178.308 243.159 178.308 242.842C178.308 242.528 178.05 242.271 177.735 242.271H159.383C159.066 242.271 158.809 242.528 158.809 242.842C158.809 243.159 159.066 243.416 159.383 243.416Z"
        fill="#210B04" />
    <path
        d="M169.607 238.137L170.177 238.008L171.188 236.396L171.058 235.825L170.488 235.957L169.477 237.569L169.607 238.137Z"
        fill="#210B04" />
    <path
        d="M170.979 238.733L171.548 238.604L172.558 236.992L172.427 236.425L171.859 236.553L170.847 238.165L170.979 238.733Z"
        fill="#210B04" />
    <path
        d="M113.812 191.501C114.415 190.152 115.016 188.803 115.619 187.452C122.203 187.367 132.817 188.386 141.739 195.478C142.791 196.315 143.758 197.187 144.645 198.078C144.718 198.573 144.94 200.487 143.726 202.055C142.279 203.924 139.376 204.551 136.698 203.385C136.262 202.993 135.632 202.478 134.817 201.967C133.377 201.061 132.143 200.662 131.87 200.565C130.337 200.041 125.52 197.711 113.812 191.501Z"
        fill="#FFA194" />
    <path
        d="M104.372 196.726L110.577 183.328C111.182 183.193 112.055 183.099 112.948 183.437C113.971 183.826 114.51 184.582 114.882 185.012C115.658 185.912 117.073 186.988 119.884 187.565C119.049 189.378 118.215 191.184 117.381 192.994C114.206 193.364 112.088 194.412 110.691 195.378C108.791 196.695 107.41 198.426 105.898 198.041C105.164 197.856 104.677 197.241 104.372 196.726Z"
        fill="#FFA194" />
    <path
        d="M110.785 182.876L103.381 198.862C105.248 199.549 106.594 199.427 107.557 199.082C109.2 198.489 109.695 197.247 111.659 195.638C113.079 194.478 114.5 193.75 115.649 193.283C116.392 193.402 117.111 193.468 117.176 193.28C117.33 192.828 113.39 191.899 112.899 189.807C112.675 188.86 113.115 187.468 115.526 185.394C115.158 184.958 114.574 184.369 113.732 183.861C112.556 183.155 111.438 182.948 110.785 182.876Z"
        fill="#FFC757" />
    <path
        d="M110.124 182.035L102.411 198.69C102.278 198.975 102.404 199.317 102.689 199.449C102.975 199.58 103.318 199.455 103.449 199.17L111.163 182.518C111.295 182.23 111.17 181.888 110.885 181.756C110.598 181.624 110.257 181.75 110.124 182.035Z"
        fill="#210B04" />
    <path
        d="M110.615 193.533L110.494 194.104L111.53 195.697L112.103 195.816L112.223 195.246L111.186 193.655L110.615 193.533Z"
        fill="#210B04" />
    <path
        d="M109.498 194.525L109.376 195.099L110.413 196.692L110.984 196.811L111.105 196.24L110.069 194.647L109.498 194.525Z"
        fill="#210B04" />
    <path
        d="M158.475 203.244C157.896 206.286 157.346 209.391 156.83 212.562C155.755 219.174 154.905 225.575 154.245 231.748C158.579 231.88 162.912 232.008 167.244 232.14C167.798 222.734 168.35 213.324 168.904 203.918C169.46 197.542 169.479 189.221 167.593 179.777C166.646 175.025 165.375 170.797 164.034 167.146C160.144 171.007 156.257 174.871 152.365 178.732C154.403 186.903 156.438 195.073 158.475 203.244Z"
        fill="#7AA073" />
    <path
        d="M137.083 192.37C135.364 191.35 133.292 190.284 130.872 189.346C127.499 188.032 124.415 187.336 121.905 186.956C120.287 190.714 118.669 194.474 117.051 198.232C123.68 200.296 130.31 202.356 136.939 204.42C138.22 205.088 139.285 205.154 139.916 205.123C142.728 204.988 145.339 202.56 146.513 199.016C151.094 192.125 155.676 185.231 160.257 178.344C161.515 174.608 162.776 170.876 164.034 167.146C158.837 166.369 153.638 165.597 148.441 164.822C147.356 165.606 145.937 166.852 144.751 168.711C141.961 173.084 142.47 177.691 142.696 179.165C140.826 183.566 138.953 187.969 137.083 192.37Z"
        fill="#7AA073" />
    <path
        d="M131.773 165.264C134.71 167.485 141.138 171.713 150.369 172.898C157.354 173.799 163.056 172.591 166.384 171.606C167.585 161.168 168.786 150.724 169.986 140.286C169.214 140.433 168.183 140.527 167.01 140.323C163.639 139.743 161.707 137.187 161.204 136.475C156.373 143.977 149.251 152.794 138.899 160.488C136.488 162.278 134.101 163.862 131.773 165.264Z"
        fill="#EDE1D9" />
    <path
        d="M159.97 204.367L159.69 204.251L158.586 203.128L158.59 202.573L159.145 202.576L160.248 203.699L160.246 204.254L159.97 204.367Z"
        fill="#210B04" />
    <path
        d="M137.867 195.067L137.515 194.851L136.784 193.399L136.958 192.872L137.485 193.044L138.217 194.499L138.042 195.026L137.867 195.067Z"
        fill="#210B04" />
    <path
        d="M154.538 187.841C154.202 187.743 154.097 187.521 154.169 187.317L156.225 181.502L156.725 181.26L156.964 181.759L154.907 187.577L154.538 187.841Z"
        fill="#210B04" />
    <path
        d="M157.319 181.672L156.934 181.358L157.24 180.894L158.827 180.571L159.29 180.878L158.984 181.339L157.397 181.665L157.319 181.672Z"
        fill="#210B04" />
    <path
        d="M159.64 181.172L159.248 180.765L159.483 173.893L159.89 173.516L160.267 173.921L160.032 180.793L159.64 181.172Z"
        fill="#210B04" />
    <path
        d="M160.146 113.705C157.228 117.013 156.767 121.621 157.77 124.585C158.109 125.589 158.938 127.351 160.002 128.854C160.414 129.437 160.425 129.362 161.763 131.121C162.53 132.131 162.597 132.25 162.82 132.348C163.999 132.875 166.083 131.335 167.421 129.657C169.448 127.113 169.307 123.895 170.534 123.782C171.22 123.719 171.666 124.804 172.102 124.619C172.664 124.384 171.788 122.668 172.598 121.031C173.008 120.206 173.809 119.658 175.409 118.557C176.281 117.954 176.711 117.644 177.308 117.38C179.275 116.512 180.188 117.126 180.91 116.323C181.678 115.47 181.564 113.748 180.869 113.269C180.301 112.873 179.513 113.46 178.834 112.917C178.44 112.604 178.345 112.155 178.287 111.979C177.818 110.571 174.076 109.574 170.142 109.862C166.969 110.098 163.079 110.383 160.146 113.705Z"
        fill="#4F3B30" />
    <path
        d="M167.677 126.696C167.966 128.421 169.233 129.65 170.507 129.437C171.781 129.221 172.579 127.649 172.29 125.921C172.002 124.196 170.734 122.97 169.461 123.183C168.186 123.396 167.389 124.968 167.677 126.696Z"
        fill="#FFA194" />
    <path
        d="M158.722 155.209C158.83 155.767 158.947 156.385 159.125 157.016C159.718 159.509 160.741 162.442 162.442 165.594C165.8 164.518 164.977 164.76 168.364 163.681C167.89 160.441 167.444 157.194 166.997 153.948C166.513 150.652 166.049 147.324 165.589 143.993C165.214 141.428 162.06 140.236 160.204 142.039C157.795 144.439 158.043 147.867 158.268 151.474C158.322 152.505 158.445 153.757 158.722 155.209Z"
        fill="#FFA194" />
    <path
        d="M158.721 155.209C158.829 155.767 158.947 156.385 159.124 157.016C162.101 156.216 164.726 155.105 166.996 153.948C166.417 153.797 165.862 153.616 165.305 153.431L159.297 154.578L158.721 155.209Z"
        fill="#210B04" />
    <path
        d="M157.902 155.454C158.69 155.529 159.562 155.564 160.504 155.517C163.366 155.379 165.693 154.563 167.299 153.817C166.745 150.065 166.192 146.314 165.638 142.563C165.324 142.252 163.964 140.97 161.884 140.938C158.874 140.891 157.184 143.507 157.091 143.654C157.362 147.588 157.631 151.521 157.902 155.454Z"
        fill="#EDE1D9" />
    <path
        d="M179.793 162.611C180.277 161.542 180.758 160.475 181.242 159.406C181.425 158.794 181.595 158.49 181.755 158.496C182.092 158.509 182.381 159.889 182.621 162.636C183.347 163.264 184.071 163.891 184.795 164.518C187.311 164.819 190.357 165.33 190.385 166.086L190.345 166.249C187.167 166.278 183.99 166.306 180.812 166.334C176.482 168.721 172.788 169.088 170.704 169.104C169.276 169.113 163.553 169.157 162.58 166.573C162.439 166.196 162.428 165.845 162.443 165.594C162.905 164.255 163.366 162.912 163.826 161.573C169.148 161.918 174.47 162.263 179.793 162.611Z"
        fill="#FFA194" />
    <path
        d="M94.3291 110.458L94.7839 110.374C102.166 109.016 107.045 101.927 105.685 94.544L103.435 82.3244L76.2494 87.3365L78.5026 99.5561C79.8623 106.936 86.9475 111.82 94.3291 110.458Z"
        fill="#EDE1D9" />
    <path
        d="M74.0537 87.9229C74.1785 88.6035 81.3644 87.8508 90.101 86.2386C98.8401 84.6296 105.82 82.7729 105.695 82.0923C105.569 81.4085 98.3844 82.1644 89.6465 83.7734C80.9096 85.3824 73.9276 87.2392 74.0537 87.9229Z"
        fill="#EDE1D9" />
    <path
        d="M79.5646 87.5212C79.6687 88.0858 83.2377 87.9133 87.9976 87.1668C88.5929 87.057 89.2277 86.9723 89.8538 86.8563L90.3242 86.7685L90.5435 86.7308C91.2027 86.6085 91.8605 86.4862 92.4831 86.3388L92.7023 86.298C97.5785 85.3037 101.187 84.1213 101.084 83.5536C100.991 83.0518 97.6422 83.1867 93.1643 83.8798C92.8136 83.9143 92.4363 83.9802 92.0602 84.0492C91.5838 84.1056 91.0839 84.1997 90.5802 84.2907L89.7029 84.4538C88.8871 84.6012 88.109 84.78 87.3619 84.9494C82.7735 85.9248 79.4668 86.988 79.5646 87.5212Z"
        fill="#210B04" />
    <path
        d="M46.624 29.6659C47.6788 30.6382 48.8048 31.4694 49.9565 32.2629C53.2081 34.4208 56.7636 35.9388 60.3532 37.6451C61.8396 38.31 63.3097 39.0784 64.7283 39.919C65.9634 40.631 67.1518 41.4527 68.2323 42.3874C70.7465 44.5829 72.5158 47.5029 74.476 50.2222C76.4853 53.0293 78.5826 55.7894 80.3531 58.7063C81.0491 59.8417 81.7191 61.0148 82.2949 62.2066C83.5213 64.6405 84.4465 67.1936 84.9976 70.0101C85.3909 72.1429 85.6581 74.3008 85.957 76.4493C86.2892 79.3097 86.621 82.167 87.3612 84.949C87.5315 85.6955 87.7335 86.4388 87.997 87.1665C88.5923 87.0567 89.2271 86.972 89.8531 86.856L90.3236 86.7682L90.1056 85.9339L89.9206 85.2878L89.7023 84.4535C88.9072 81.5491 88.5788 78.5319 88.1808 75.4895C87.8279 72.3436 87.4431 69.204 86.5573 66.1554C85.8786 63.8815 84.9352 61.7518 83.8155 59.7225C81.8612 56.1564 79.3777 52.8851 76.9861 49.5981C73.6527 45.0534 70.7857 41.1046 66.283 38.1406C65.5823 37.6859 64.8192 37.2436 64.0263 36.8045C58.7433 34.0162 52.9227 32.172 48.4128 28.1071C47.2818 27.0815 45.4639 28.6466 46.624 29.6659Z"
        fill="#7AA073" />
    <path
        d="M89.7024 84.4541L89.9207 85.2884L90.1057 85.9345L90.3237 86.7688L90.543 86.7312C91.2022 86.6088 91.86 86.4865 92.4826 86.3391L92.7018 86.2983L92.5757 85.9659C92.3599 85.3261 92.2128 84.705 92.0598 84.0495C91.8195 83.0898 91.6078 82.1237 91.435 81.1828C91.0442 78.8869 90.8469 76.5879 90.8456 74.2857C90.8431 72.338 90.9717 70.4028 91.2584 68.4362C91.4274 67.2381 91.6959 66.0525 91.8957 64.8481C92.1222 63.443 92.2815 62.0222 92.1432 60.5543L92.0952 60.3034C91.9017 58.1988 91.2697 56.1727 90.5505 54.1999L90.4228 53.8674C88.748 49.1816 87.2632 44.4612 86.1472 39.6373C85.8715 38.4894 85.6263 37.3352 85.412 36.1716C84.3312 30.6639 83.22 24.805 85.7831 19.5327C86.4668 18.1432 84.1832 17.3622 83.5251 18.7172C82.7937 20.2133 82.3587 21.7219 82.1297 23.287C81.5724 26.5991 81.9397 30.0021 82.4704 33.4083C82.7385 35.0456 83.0462 36.7079 83.3781 38.3326C84.3228 42.7644 85.5149 47.1178 87.0132 51.3802C88.1577 54.7707 89.825 58.1926 89.8191 61.8591C89.8275 62.248 89.8065 62.6714 89.7821 63.0635C89.5493 66.0275 88.6674 68.9789 88.503 71.9616C88.4221 73.1096 88.4356 74.2418 88.4823 75.3709C88.562 78.4353 88.9907 81.4713 89.7024 84.4541Z"
        fill="#7AA073" />
    <path
        d="M89.8536 86.8564L90.3241 86.7686L90.5433 86.731C91.2026 86.6087 91.8603 86.4863 92.4829 86.3389L92.5761 85.9657C92.7683 85.2506 92.9669 84.5637 93.1642 83.88C94.5276 78.9589 96.0014 74.113 98.0206 69.3958C98.811 67.5296 99.639 65.6917 100.464 63.8224C101.805 60.7204 103.073 57.5683 103.86 54.2781C104.415 52.001 104.535 49.8369 104.466 47.7104C104.445 47.0674 104.423 46.4213 104.372 45.7846C104.183 43.3539 103.864 40.9168 103.709 38.3167C103.661 37.3507 103.73 36.4944 103.675 35.6633C103.634 34.5655 103.387 33.5744 102.51 32.5048C101.544 31.3193 100.948 29.842 100.465 28.2738C99.9759 26.6805 99.6441 25.0558 99.2153 23.6099C98.7862 22.164 96.4292 22.5654 96.863 24.0427C97.5771 26.5048 98.2007 29.0171 99.0607 31.3883C99.4847 32.6397 100.048 33.0537 100.69 34.0731C101.19 34.8572 101.284 35.7134 101.315 36.5822C101.342 37.2597 101.305 37.9466 101.327 38.5927C101.511 41.3465 101.854 43.9122 101.966 46.4527C102.146 49.3727 102.027 52.2457 101.115 55.3978C100.331 58.0073 99.2997 60.5008 98.2302 62.9661C97.2695 65.1553 96.2749 67.3164 95.3791 69.493C93.8071 73.285 92.5525 77.215 91.4353 81.1826C91.1389 82.2114 90.8473 83.2684 90.58 84.2908C90.3915 84.846 90.2642 85.3855 90.1061 85.9343C90.0324 86.2386 89.927 86.5522 89.8536 86.8564Z"
        fill="#7AA073" />
    <path
        d="M89.5484 57.7687C90.0311 59.9015 94.0743 61.4195 102.162 64.4587C105.51 65.7164 108.378 66.6291 110.488 67.2533C112.471 65.2021 115.106 62.2036 117.735 58.2297C120.727 53.7164 122.208 51.4174 121.587 49.4978C120.335 45.6275 112.098 44.4199 106.015 45.4079C97.1947 46.8381 88.604 53.5909 89.5484 57.7687Z"
        fill="#7AA073" />
    <path
        d="M65.9895 61.4354C65.2997 63.3204 67.6568 66.5039 72.3737 72.8678C74.3268 75.5024 76.0825 77.632 77.3958 79.1626C79.9441 78.5698 83.4667 77.5693 87.4679 75.8192C92.0182 73.8275 94.3031 72.7987 94.7799 71.011C95.7415 67.404 90.0006 62.3763 84.8242 60.1087C77.3174 56.8216 67.3409 57.75 65.9895 61.4354Z"
        fill="#7AA073" />
    <path
        d="M32.4933 38.787C30.5709 42.5852 30.0418 46.1263 29.8862 48.3657C40.1716 44.4765 45.7924 43.7771 49.0638 43.9402C50.191 43.9935 52.0948 44.2036 54.4092 43.4007C57.6768 42.2653 58.2526 40.327 60.9578 39.6934C64.4863 38.8654 67.0494 41.3369 67.4145 40.8257C68.2084 39.7122 58.2109 24.8141 46.3021 26.7744C37.8707 28.1638 33.2934 37.2093 32.4933 38.787Z"
        fill="#7AA073" />
    <path
        d="M63.9947 22.1952C69.1319 30.4096 71.3835 32.6427 74.5175 33.6997C76.7635 34.4525 78.6197 34.3239 80.9585 35.9642C83.7506 37.9214 85.0701 40.8822 85.7513 43.1028C85.8972 39.8597 86.5941 35.8419 89.352 34.418C90.0922 34.0353 90.4303 34.1262 90.9374 33.7593C93.6574 31.7865 91.9593 23.4027 88.8056 17.6473C82.8269 6.73875 70.8347 3.85949 69.7529 3.61798C62.768 2.05603 56.9327 3.4643 54.0901 4.36446C57.6434 11.6065 61.107 17.5783 63.9947 22.1952Z"
        fill="#7AA073" />
    <path
        d="M95.8804 20.4298C95.7531 24.5667 95.0327 28.5438 97.4082 32.7058C97.7168 33.2484 99.7618 36.8271 102.077 36.6264C103.425 36.5072 103.777 35.2025 105.418 33.8663C108.67 31.2254 111.609 32.8345 113.56 31.3635C117.439 28.4371 115.301 14.9128 106.923 6.61057C102.821 2.54573 96.0407 -1.43442 93.5475 0.507046C91.008 2.48301 96.2577 7.99686 95.8804 20.4298Z"
        fill="#7AA073" />
    <path
        d="M102.364 38.571L101.972 38.179C101.973 36.5825 101.732 35.0237 101.249 33.5527C100.989 32.7561 100.722 32.1695 100.484 31.652C100.099 30.8052 99.7921 30.134 99.8473 29.1773C99.9295 27.7848 100.701 26.985 101.518 26.135C101.912 25.7273 102.321 25.3039 102.696 24.7769C104.648 22.0419 104.754 17.9457 103.013 12.6043C102.052 9.65922 100.304 6.9399 97.9582 4.75066L97.9397 4.1955L98.4936 4.17984C100.935 6.46004 102.756 9.28911 103.758 12.3628C105.581 17.952 105.439 22.2834 103.333 25.2348C102.925 25.8057 102.478 26.2699 102.082 26.6807C101.307 27.4837 100.696 28.1204 100.631 29.2213C100.587 29.9834 100.831 30.5197 101.199 31.3258C101.432 31.8371 101.721 32.4706 101.994 33.3081C102.501 34.8606 102.757 36.501 102.756 38.179L102.364 38.571Z"
        fill="#210B04" />
    <path
        d="M84.8608 38.0466L84.4687 37.6577C84.4455 34.7722 84.0939 31.8929 83.4224 29.1046C82.4777 25.1809 80.5102 17.0199 73.1176 11.161C67.7292 6.89226 61.7442 5.68785 57.6706 5.42752L57.3052 5.01353L57.7195 4.64655C61.9048 4.91002 68.0588 6.15203 73.6037 10.5462C81.2096 16.5745 83.2938 25.2248 84.1858 28.9196C84.8693 31.7675 85.2296 34.7032 85.2528 37.6514L84.8633 38.0466H84.8608Z"
        fill="#210B04" />
    <path
        d="M109.587 65.6694C109.237 65.5565 109.143 65.3276 109.226 65.1268C109.851 63.6182 111.131 59.6098 109.53 54.9961C107.954 50.4483 104.552 48.1053 103.163 47.3055L103.018 46.7723L103.552 46.628C105.018 47.4686 108.607 49.9433 110.271 54.7389C111.959 59.6067 110.609 63.8346 109.95 65.428L109.587 65.6694Z"
        fill="#210B04" />
    <path
        d="M77.8956 77.7572L77.5048 77.3934C77.262 73.9809 77.7498 70.6532 78.9504 67.5042C79.8339 65.1832 81.0873 63.0316 82.6737 61.0964L83.2251 61.0399L83.2803 61.5919C81.745 63.4612 80.5359 65.5439 79.6818 67.7802C78.5229 70.8257 78.0537 74.0405 78.2851 77.3369L77.9226 77.7572H77.8956Z"
        fill="#210B04" />
    <path
        d="M31.3535 46.076L31.1515 46.0196L31.0192 45.4801C33.0503 42.1084 40.3391 31.1089 49.1494 31.755C51.5287 31.9181 53.8086 32.9155 57.2625 34.421C61.3276 36.1931 65.2115 38.4075 68.8059 41.0076L68.8931 41.5533L68.3467 41.6442C64.7959 39.0786 60.9626 36.8894 56.9501 35.1424C53.5696 33.6651 51.3374 32.6928 49.0942 32.536L48.4425 32.514C40.3843 32.514 33.6127 42.695 31.6894 45.8847L31.3535 46.076Z"
        fill="#210B04" />
    <path
        d="M53.6187 120.78C52.0712 123.214 50.5249 125.651 48.9777 128.082C56.3091 132.451 63.6394 136.817 70.9696 141.183C71.5576 139.915 72.2988 137.999 72.6567 135.581C73.1174 132.441 72.7018 130.033 72.1984 127.072C71.5796 123.421 71.1706 119.729 70.373 116.113C69.3449 111.449 68.6821 103.928 70.4611 91.5012L59.0633 79.589C58.3673 79.1655 55.8556 77.5095 54.7299 74.1504C54.5766 73.6956 54.464 73.2502 54.3818 72.8205C53.8831 70.1734 54.5876 68.0531 54.8375 67.3788C53.9333 67.2282 53.0306 67.0746 52.1264 66.9209C50.7319 66.6825 49.3365 66.4441 47.9411 66.2057C46.6498 71.3433 45.3607 76.4808 44.0707 81.6183C43.3725 83.6883 42.5749 86.922 42.9792 90.7579C43.6605 97.197 47.189 100.145 50.2458 107.387C51.4916 110.339 52.9949 114.799 53.6187 120.78Z"
        fill="#FFA194" />
    <path
        d="M60.6232 97.5202C61.0322 101.008 64.1909 103.501 67.6764 103.094C71.1607 102.683 73.6539 99.5244 73.2461 96.0398C72.8381 92.5552 69.6809 90.0617 66.1951 90.4694C62.7096 90.8772 60.2151 94.0356 60.6232 97.5202Z"
        fill="#FFA194" />
    <path
        d="M45.9824 133.063C42.2494 139.922 44.2573 148.221 50.4653 151.599C56.6745 154.977 64.7324 152.157 68.4667 145.298C72.1987 138.439 70.1917 130.136 63.9837 126.758C57.7748 123.38 49.7141 126.203 45.9824 133.063Z"
        fill="#FFA194" />
    <path
        d="M64.6317 184.701C68.6662 184.287 72.7031 183.876 76.74 183.462C77.8478 178.695 78.7348 173.027 78.9123 166.625C79.3128 152.079 75.864 140.254 72.854 132.598C67.4044 138.146 61.9573 143.698 56.5077 149.246C55.9867 154.105 56.3396 157.959 56.7552 160.572C57.2181 163.492 57.9091 165.797 62.7511 179.425C63.5192 181.589 64.165 183.399 64.6317 184.701Z"
        fill="#FFA194" />
    <path
        d="M8.15479 226.184C9.771 227.096 11.3844 228.009 12.9993 228.919C17.0313 220.99 22.1917 212.151 28.7942 202.952C33.5368 196.347 38.3115 190.541 42.8741 185.494C39.2916 183.462 35.7091 181.43 32.1267 179.397C30.1554 181.041 27.5556 183.368 24.7535 186.398C21.3906 190.033 18.7736 192.843 16.6969 196.72C12.7469 204.097 14.5971 207.823 10.2769 220.551C9.45735 222.966 8.68422 224.913 8.15479 226.184Z"
        fill="#FFA194" />
    <path
        d="M0.891915 233.683C5.21426 237.949 9.53817 242.214 13.863 246.477C15.9456 246.69 18.0285 246.903 20.1124 247.117C20.2009 247.138 20.9652 247.298 21.5338 246.803C22.079 246.326 22.216 245.442 21.8033 244.695C18.4316 244.278 16.8646 242.826 16.2103 242.07C15.5009 241.251 14.8466 240.075 13.9929 233.997C13.6435 231.506 13.4352 229.424 13.3066 227.95C11.8598 226.792 10.4117 225.635 8.96357 224.478C6.56701 227.912 4.45492 229.333 2.93437 229.982C2.33876 230.236 0.802524 230.813 0.530593 232.015C0.384748 232.658 0.648213 233.272 0.891915 233.683Z"
        fill="#FFA194" />
    <path
        d="M64.7863 247.938L88.2106 246.85C88.2925 246.812 88.9969 246.474 89.144 245.733C89.2849 245.021 88.8548 244.24 88.0732 243.902C86.6951 243.833 84.7483 243.641 82.4803 243.083C80.2788 242.544 77.8726 241.954 75.3559 240.191C74.2619 239.423 72.6177 238.062 71.1217 235.819C69.268 235.785 67.4156 235.75 65.562 235.719C65.7605 239.903 64.9516 242.315 64.1443 243.757C63.8269 244.322 62.9656 245.718 63.4816 246.837C63.7573 247.433 64.3416 247.76 64.7863 247.938Z"
        fill="#FFA194" />
    <path
        d="M53.3938 72.1087C53.7112 72.3847 54.0443 72.6231 54.3824 72.8207C53.8837 70.1735 54.5882 68.0533 54.8382 67.3789C53.9339 67.2284 53.0313 67.0747 52.127 66.921L51.9677 67.081C50.9311 68.2759 51.5694 70.5279 53.3938 72.1087Z"
        fill="#210B04" />
    <path
        d="M49.5931 68.1476C51.9417 68.0786 53.9264 67.8496 55.4617 67.6144C55.8243 67.5548 57.8959 67.2161 59.855 66.043C60.3831 65.7263 60.9113 65.3436 61.0581 64.7038C61.2701 63.7785 60.6761 63.0948 60.6209 63.0352L60.6748 62.6588C60.8241 62.4455 61.161 62.5145 61.3401 62.2134C61.4784 61.928 61.5336 61.5109 61.2958 61.2694L60.8608 61.0968C60.921 61.0404 61.3595 60.6013 61.2676 60.0304L60.9123 59.5223L60.1454 59.0299C58.3567 57.7126 57.4229 55.721 57.3386 54.78C57.3301 54.6734 57.2969 54.2343 57.1683 53.6478L57.0077 53.0425C56.5385 51.5464 55.7152 50.5678 55.235 50.0095C54.0196 48.595 52.6524 47.7795 51.6955 47.3278C50.5682 46.7507 48.6421 45.9948 46.2704 46.1391C41.9772 46.3994 36.5398 49.8652 36.1553 54.9525C35.7645 60.1183 40.7618 64.525 43.717 65.146C44.174 65.2432 45.5719 65.4565 47.1881 66.3441C48.2981 66.9557 49.0944 67.6552 49.5931 68.1476Z"
        fill="#FFA194" />
    <path
        d="M59.4987 59.0045L59.8929 58.3772L60.4443 57.9193C60.508 57.8315 60.6466 57.612 60.6513 57.3046L60.4261 56.6334C60.1454 56.3009 59.6774 56.2696 59.4936 56.2507C59.0771 56.2068 58.3934 55.9591 57.2429 55.0432C57.4562 55.7897 57.6682 56.5361 57.8802 57.2826C58.4191 57.8566 58.9595 58.4305 59.4987 59.0045Z"
        fill="#FFA194" />
    <path
        d="M58.7217 236.004C63.4192 236.054 68.1176 236.107 72.8163 236.158C74.9701 220.168 76.4624 206.242 77.5134 194.97C79.7165 171.371 79.7949 161.541 77.7621 150.068C76.3642 142.18 74.3795 135.819 72.8542 131.541C65.8976 134.831 58.9422 138.118 51.9858 141.409C54.2375 161.416 56.0595 182.292 57.314 203.99C57.9438 214.861 58.4055 225.534 58.7217 236.004Z"
        fill="#31363E" />
    <path
        d="M29.9812 180.288C22.8175 184.968 19.2059 190.074 17.2995 193.559C16.1023 195.748 15.1639 198.053 11.8926 210.238C10.2952 216.198 9.02839 221.197 8.13513 224.804C12.0494 226.84 15.9653 228.878 19.8796 230.914C27.9462 217.757 36.0116 204.602 44.077 191.445C48.5659 182.82 54.2203 173.288 61.3432 163.374C66.4706 156.238 71.6285 149.924 76.5747 144.385C76.506 142.146 76.2413 139.446 75.5591 136.45C74.6844 132.602 73.3881 129.447 72.1984 127.072C65.7185 125.429 59.2373 123.782 52.7562 122.135C50.836 123.788 48.1434 126.53 45.9893 130.573C42.6496 136.852 42.4768 142.764 42.5884 145.637C39.9482 151.543 38.2893 156.455 37.2637 159.848C36.0471 163.875 35.4543 166.648 33.7414 171.362C32.33 175.242 30.9309 178.316 29.9812 180.288Z"
        fill="#31363E" />
    <path
        d="M17.1933 204.956H13.3389C13.4063 204.712 13.4725 204.477 13.5387 204.244H17.1933V204.956Z"
        fill="#9C9FA3" />
    <path
        d="M10.2892 225.924C10.0514 225.801 9.81494 225.679 9.57751 225.553V219.475V222.891H10.2892V225.924Z"
        fill="#9C9FA3" />
    <path
        d="M17.1931 219.475H10.2892V218.763H17.1931V219.475ZM9.57751 219.475H9.47559C9.51009 219.34 9.54301 219.209 9.57751 219.074V219.475Z"
        fill="#9C9FA3" />
    <path
        d="M10.2892 222.891H9.57751V219.074C9.80271 218.192 10.0392 217.273 10.2892 216.317V218.763V219.475V222.891Z"
        fill="#9C9FA3" />
    <path
        d="M44.1532 148.052H41.5399C41.6378 147.817 41.7397 147.582 41.8413 147.343H41.8426C41.7406 147.578 41.6428 147.814 41.5437 148.046H44.1582C44.157 148.049 44.1545 148.049 44.1532 148.052Z"
        fill="#9C9FA3" />
    <path d="M45.6441 134.12H44.4005C44.4874 133.885 44.578 133.646 44.6737 133.408H45.6441V134.12Z"
        fill="#9C9FA3" />
    <path
        d="M32.9379 176.503H31.704C31.8034 176.271 31.9038 176.035 32.0054 175.794H33.1351C33.0677 176.035 33.0015 176.274 32.9379 176.503Z"
        fill="#9C9FA3" />
    <path
        d="M36.4834 162.571H36.4736C36.5395 162.335 36.6057 162.1 36.6744 161.859H36.6853C36.617 162.1 36.5495 162.335 36.4834 162.571Z"
        fill="#9C9FA3" />
    <path
        d="M26.8943 219.475H24.7991V218.763H27.329C27.1832 218.998 27.0386 219.236 26.8943 219.475ZM24.0934 219.475H17.1932V218.763H24.0934V219.475Z"
        fill="#9C9FA3" />
    <path
        d="M67.1901 126.504H66.4794V125.62C66.7159 125.679 66.9536 125.739 67.1901 125.801V126.504Z"
        fill="#9C9FA3" />
    <path
        d="M53.2573 126.504H52.5469V122.317C52.6178 122.257 52.6877 122.195 52.7564 122.135C52.9229 122.179 53.0907 122.22 53.2573 122.264V126.504Z"
        fill="#9C9FA3" />
    <path
        d="M74.9581 134.12H74.0944V133.408H74.7449C74.8173 133.643 74.8882 133.878 74.9581 134.12Z"
        fill="#9C9FA3" />
    <path
        d="M44.1556 125.667C44.3159 126.372 44.659 127.326 45.4861 127.941C47.0776 129.117 49.4054 128.254 51.3594 127.784C52.1326 127.596 55.3192 127.633 61.6963 127.705C64.85 127.74 69.0243 127.853 73.9899 128.176C74.3512 127.486 74.8537 126.413 75.2432 125.039C76.7195 119.849 74.9271 116.154 74.0216 111.371C72.3567 102.551 75.841 101.325 73.9127 95.011C73.0414 92.1662 71.0103 88.0794 65.5337 83.9299C61.9327 80.6712 58.3308 77.4092 54.7302 74.1505C52.0811 73.0433 49.4311 71.933 46.7824 70.8258C42.7013 78.2373 41.4846 84.4568 41.1011 88.6283C40.6002 94.092 41.3927 97.4668 42.5752 108.065C43.4242 115.665 43.8959 121.815 44.1556 125.667Z"
        fill="#EF6333" />
    <path
        d="M55.4701 172.344L55.2986 172.303L55.1185 171.779L66.1008 149.106L66.6252 148.927L66.8056 149.451L55.823 172.121L55.4701 172.344Z"
        fill="#210B04" />
    <path
        d="M67.0153 149.814L66.6389 149.538L66.8999 149.046L69.288 148.318L69.7766 148.579L69.5169 149.068L67.1291 149.799L67.0153 149.814Z"
        fill="#210B04" />
    <path
        d="M69.5176 148.378L69.1293 148.033L66.9742 129.886L67.3171 129.45L67.7521 129.791L69.9071 147.939L69.564 148.375L69.5176 148.378Z"
        fill="#210B04" />
    <path
        d="M58.7595 195.243L58.4177 195.045L57.5222 193.458L57.6706 192.925L58.206 193.072L59.1014 194.66L58.9518 195.193L58.7595 195.243Z"
        fill="#210B04" />
    <path
        d="M32.7431 183.804L32.3965 183.594L30.5758 180.178L30.7386 179.648L31.268 179.811L33.0887 183.227L32.9269 183.757L32.7431 183.804Z"
        fill="#210B04" />
    <path
        d="M63.4987 248.045C72.5169 248.045 81.5355 248.045 90.554 248.045C90.8605 246.546 90.608 245.549 90.2075 244.871C88.9921 242.82 86.0125 243.011 80.9866 241.8C78.5204 241.205 76.4758 240.496 74.9442 239.89C73.2032 242.625 70.3791 244.118 67.7878 243.654C66.3642 243.403 65.3389 242.619 64.7433 242.055C64.3882 242.409 63.207 243.673 63.0831 245.627C63.016 246.7 63.2926 247.556 63.4987 248.045Z"
        fill="#EDE1D9" />
    <path
        d="M0 233.407C1.72285 235.101 3.44664 236.794 5.16918 238.488C8.06664 241.455 10.9641 244.419 13.8619 247.386C16.7973 247.483 19.733 247.581 22.6709 247.681C22.8189 247.505 23.0457 247.189 23.1009 246.762C23.4058 244.407 17.8448 243.205 15.3576 238.839C14.7413 237.757 14.0664 236.045 14.1005 233.467C11.0475 234.558 7.9026 234.003 6.13835 232.052C5.17044 230.979 4.83954 229.731 4.71722 228.919C4.29317 228.963 2.52891 229.198 1.21443 230.722C0.312698 231.77 0.0749612 232.902 0 233.407Z"
        fill="#EDE1D9" />
    <path
        d="M85.7625 244.579L85.4194 244.379L84.0717 241.957L84.2238 241.424L84.7579 241.578L86.1056 243.996L85.9535 244.529L85.7625 244.579Z"
        fill="#210B04" />
    <path
        d="M82.5021 243.616L82.1973 243.472L82.2547 242.92L83.9797 241.524L84.5311 241.581L84.4737 242.133L82.7487 243.532L82.5021 243.616Z"
        fill="#210B04" />
    <path
        d="M82.4363 243.826L82.0455 243.462L81.8583 240.922L82.2183 240.502L82.6386 240.866L82.8274 243.406L82.4658 243.826H82.4363Z"
        fill="#210B04" />
    <path
        d="M79.2188 243.296L78.9014 243.136L78.987 242.588L81.8173 240.521L82.3662 240.605L82.279 241.154L79.4502 243.221L79.2188 243.296Z"
        fill="#210B04" />
    <path
        d="M17.09 243.651L16.9244 243.613L16.7346 243.092L17.7072 240.994L18.2282 240.803L18.4167 241.323L17.4453 243.425L17.09 243.651Z"
        fill="#210B04" />
    <path
        d="M18.0619 241.549L15.1092 240.787L14.8301 240.304L15.309 240.025L18.1626 240.778L18.4417 241.258L18.0619 241.549Z"
        fill="#210B04" />
    <path
        d="M14.9546 240.542L14.7464 240.483L14.6228 239.943L15.7842 238.093L16.3243 237.967L16.4482 238.507L15.288 240.361L14.9546 240.542Z"
        fill="#210B04" />
    <path
        d="M16.6366 238.692L12.8167 237.983L12.5031 237.526L12.9613 237.212L16.709 237.914L17.0227 238.372L16.6366 238.692Z"
        fill="#210B04" />
    <path
        d="M38.908 49.4196C38.8751 50.74 41.8202 52.1075 44.2534 52.3082C46.0657 52.4525 47.4868 51.9444 49.0698 51.3736C50.6195 50.8184 51.9942 50.326 53.277 49.0244C54.0549 48.2402 56.0274 45.9381 55.3339 44.856C54.2547 43.178 48.8468 45.0756 44.2534 46.534C41.399 47.4373 38.9375 48.2402 38.908 49.4196Z"
        fill="#4F3B30" />
    <path
        d="M45.3305 48.849C49.6334 52.4026 50.5461 54.5762 50.0939 55.9656C49.7363 57.0665 48.7439 56.9787 48.1091 58.2866C46.7589 61.0749 50.0926 63.904 48.9324 66.3128C48.1571 67.9218 45.8756 68.2699 45.0965 68.4267C40.5879 69.3237 35.0452 65.8486 33.7416 60.7518C32.563 56.1475 35.4887 52.2395 36.4613 50.9441C37.2601 49.8809 39.854 46.5374 44.4875 45.7564C47.2234 45.2954 49.4716 45.9289 50.6145 46.3429L45.3305 48.849Z"
        fill="#4F3B30" />
    <path
        d="M48.0343 60.8961C48.7779 62.3577 50.253 63.101 51.3326 62.5521C52.4118 62.0032 52.6838 60.3723 51.9414 58.9107C51.199 57.4491 49.7226 56.7089 48.6443 57.2578C47.5651 57.8067 47.2931 59.4345 48.0343 60.8961Z"
        fill="#FFA194" />
    <path
        d="M31.6023 78.8426C28.6985 86.7371 15.6713 88.0262 16.1185 90.3722C16.2644 91.1312 17.7175 91.4198 20.0134 91.8495C25.7424 92.9222 29.5783 93.6404 33.0908 91.6049C38.2061 88.6378 41.1832 80.6618 39.5905 75.9822C39.2988 75.1322 38.5147 73.3727 39.2756 71.7919C39.9126 70.4746 41.2531 70.0857 42.1731 69.5995C46.9966 67.0684 47.5665 58.1138 47.0286 57.9351C46.6353 57.8033 46.2639 62.6146 42.1731 65.9079C38.5185 68.853 35.441 67.2535 33.1413 69.9665C30.8831 72.6262 33.0237 74.9785 31.6023 78.8426Z"
        fill="#4F3B30" />
    <path
        d="M52.6286 96.3945C53.9274 98.0537 55.2175 99.6094 56.515 101.083C59.6367 104.596 62.8014 107.526 65.7111 110.007C68.0537 108.922 70.4132 107.861 72.7571 106.779C69.4958 102.683 66.238 98.5492 62.957 94.4311C60.3217 91.1127 57.7194 87.8383 55.1183 84.5638C53.1885 81.4399 50.2016 80.0473 48.5883 80.7624C46.7418 81.556 45.6049 85.5392 47.87 89.6699C49.2548 91.8435 50.8314 94.1174 52.6286 96.3945Z"
        fill="#FFA194" />
    <path
        d="M52.6472 96.4161C53.9275 98.0533 55.2175 99.609 56.5151 101.083C58.6752 98.8688 60.8155 96.6702 62.957 94.4307C61.8791 93.1824 60.7763 91.9498 59.7152 90.7234L52.6472 96.4161Z"
        fill="#210B04" />
    <path
        d="M53.1216 101.378C54.8514 100.422 56.7395 99.255 58.7045 97.8374C60.8279 96.3068 62.6473 94.7636 64.1811 93.3271C61.8265 89.739 58.9902 86.0098 55.5659 82.3182C54.8479 81.5435 54.1297 80.8001 53.4117 80.0819C52.7503 79.9502 50.3612 79.5644 47.9132 80.9381C44.8417 82.6663 44.1065 85.8059 43.9977 86.3046C47.0397 91.3323 50.0805 96.357 53.1216 101.378Z"
        fill="#EF6333" />
    <path
        d="M101.494 103.696C101.66 104.665 101.826 105.634 101.992 106.606C90.062 110.489 80.9735 112.939 77.0752 113.754C77.0752 113.754 74.2204 114.353 70.165 113.714C69.1726 113.557 68.0347 113.303 67.0678 112.387C66.209 111.575 65.8637 110.593 65.7115 110.006C66.937 108.764 68.1621 107.525 69.3872 106.283C71.1147 105.86 72.8972 105.465 74.7351 105.104C82.0835 103.668 88.9605 103.068 95.1773 102.971C97.2821 103.213 99.3879 103.454 101.494 103.696Z"
        fill="#FFA194" />
    <path
        d="M63.3821 94.4529L63.0516 94.2678L54.49 80.7874L54.6114 80.2479L55.1515 80.3671L63.7118 93.8507L63.5917 94.3902L63.3821 94.4529Z"
        fill="#210B04" />
    <path
        d="M49.4961 102.933L49.1238 102.66L43.625 85.7487L43.8775 85.2563L44.3699 85.5072L49.8687 102.419L49.6175 102.911L49.4961 102.933Z"
        fill="#210B04" />
    <path
        d="M94.5996 102.956C95.1287 104.583 95.6569 106.208 96.1873 107.833C97.8352 107.952 99.6926 107.902 101.693 107.532C102.065 107.463 102.43 107.384 102.784 107.303C103.024 106.848 103.797 105.264 103.492 103.194C103.103 100.566 101.278 99.2139 100.974 98.9974C99.8506 99.4177 98.4932 100.045 97.0573 101.008C96.0919 101.651 95.2758 102.325 94.5996 102.956Z"
        fill="#FFA194" />
    <path
        d="M102.24 101.915L103.322 104.546L106.731 102.831C106.982 101.758 107.235 100.685 107.488 99.6126C107.474 98.6058 107.105 97.897 106.79 97.875C106.467 97.8531 105.998 98.5431 105.91 99.622C105.783 100.136 105.657 100.654 105.531 101.168C104.433 101.416 103.336 101.664 102.24 101.915Z"
        fill="#FFA194" />
    <path
        d="M102.562 104.073L103.173 105.559C103.02 106.146 102.869 106.732 102.716 107.322C102.803 107.3 104.035 106.977 104.3 105.914L104.336 105.268C105.29 105.399 106.095 104.772 106.233 103.991C106.365 103.232 105.812 102.605 105.757 102.545C104.692 103.053 103.626 103.561 102.562 104.073Z"
        fill="#FFA194" />
    <path
        d="M100.483 100.139L101.396 102.357L105.048 100.519C106.778 97.2916 106.816 96.3161 106.529 96.0244L105.618 96.0276C104.387 96.4761 104.145 98.2231 104.135 98.3015C102.917 98.9131 101.701 99.5247 100.483 100.139Z"
        fill="#FFA194" />
    <path
        d="M95.177 102.441C96.3689 101.905 97.5648 101.365 98.7582 100.829C99.9736 100.017 101.188 99.2013 102.402 98.389C102.593 98.2855 103.719 97.6864 103.637 97.2316C103.559 96.8145 102.632 96.5824 101.866 96.6953C101.125 96.8019 100.794 97.194 99.786 97.9624C98.0255 99.308 97.8245 99.0413 96.908 99.9384C96.4266 100.412 95.7588 101.196 95.177 102.441Z"
        fill="#FFA194" />
    <path
        d="M102.572 105.904L102.182 105.559L102.523 105.123L104.391 104.888L104.83 105.226L104.489 105.666L102.621 105.901L102.572 105.904Z"
        fill="#210B04" />
    <path
        d="M102.737 104.38L102.357 104.082L102.642 103.608L105.986 102.777L106.462 103.062L106.178 103.536L102.833 104.367L102.737 104.38Z"
        fill="#210B04" />
    <path
        d="M102.24 102.306L101.887 102.087L102.068 101.563L102.974 101.124L103.497 101.306L103.317 101.83L102.412 102.265L102.24 102.306Z"
        fill="#210B04" />
</svg>