<svg width="200" height="201" viewBox="0 0 200 201" fill="none" xmlns="http://www.w3.org/2000/svg">
    <mask id="mask0_862_1136" style="mask-type:alpha" maskUnits="userSpaceOnUse" x="0" y="0"
        width="200" height="201">
        <circle cx="100" cy="100.219" r="100" fill="#D9D9D9" />
    </mask>
    <g mask="url(#mask0_862_1136)">
        <path
            d="M227.64 182.575C227.56 182.381 227.458 182.197 227.336 182.027C226.751 181.208 225.74 180.769 224.739 180.769C224.039 180.769 223.344 180.983 222.801 181.43C225.12 178.289 228.707 164.365 217.684 158.229C213.008 155.625 208.711 154.629 204.987 154.629C197.71 154.629 192.618 158.434 191.137 161.496C190.344 158.324 187.563 155.69 184.789 154.098V21.3821C184.789 17.6162 181.736 14.5636 177.97 14.5636H160.209C159.309 13.4464 157.928 12.7324 156.381 12.7324H127.244V5.13693C127.244 1.27722 124.115 -1.851 120.255 -1.851C116.491 -1.851 113.421 1.12602 113.273 4.85483V4.85904C113.273 4.86394 113.272 4.86884 113.272 4.87373V4.87932C113.271 4.88422 113.271 4.88913 113.271 4.89334V4.89893C113.271 4.90872 113.271 4.91853 113.27 4.92833V4.94302C113.27 4.94653 113.27 4.94933 113.269 4.95282V4.97313C113.269 4.97662 113.269 4.98012 113.269 4.98361V5.00392C113.269 5.00882 113.269 5.01372 113.268 5.01791V5.06552C113.268 5.06833 113.267 5.07112 113.267 5.07391V12.7324H81.4755C79.9328 12.7324 78.5524 13.4457 77.6515 14.5636H59.8888C56.1229 14.5636 53.0702 17.6162 53.0702 21.3821V136.017C42.5306 122.085 35.1164 105.794 31.9742 88.6098L31.0145 88.7855C34.2666 106.548 42.0301 123.353 53.0702 137.623V151.038C51.9188 152.156 51.0718 153.52 50.7099 155.133C50.2017 157.4 50.3795 160.407 48.2341 161.297C47.9099 161.433 47.562 161.502 47.2107 161.501C45.4684 161.501 43.7542 159.888 41.951 159.283C41.5255 159.14 41.0796 159.068 40.6309 159.069C37.4459 159.069 34.415 162.618 35.4783 165.767C36.0285 167.398 37.4088 168.819 37.2941 170.536C37.1562 172.601 34.8847 173.793 32.7617 173.793C32.481 173.793 32.2024 173.772 31.9322 173.73C29.6166 173.367 27.5727 172.015 25.3013 171.437C24.7602 171.299 24.1813 171.227 23.6024 171.227C21.7502 171.227 19.8988 171.964 19.2912 173.642C18.5765 175.618 19.8099 178.271 18.2587 179.688C17.5938 180.294 16.632 180.419 15.7367 180.505C12.7394 180.789 9.69746 181.112 6.6993 181.468C0.817837 181.502 -3.40802 181.523 -5.4981 181.523C-20.9658 181.523 -43.6939 180.341 -39.3672 166.347C-32.988 145.716 2.7808 136.582 -3.06293 120.667C-8.36257 106.235 1.3877 93.5174 14.7023 82.8566C28.0445 72.1742 42.6153 74.3232 36.4387 45.3859C29.5047 12.8976 53.3005 14.0379 66.8067 1.46342C86.5455 -16.9139 96.5335 -27.3493 118.184 -27.8896C118.661 -27.9015 119.14 -27.9079 119.632 -27.9079C150.116 -27.9079 208.734 -5.09402 216.321 23.4814C219.831 36.7019 219.599 52.2093 232.467 60.3592C238.114 63.9361 244.44 65.4817 250.786 67.7307C263.699 72.3072 269.067 82.2855 268.918 92.0817C268.556 116.035 252.083 116.753 257.265 135.342C260.884 148.324 272.846 154.974 268.217 167.757C264.152 178.986 245.336 182.034 227.64 182.575ZM224.992 78.9003L216.125 127.996L222.441 129.137L230.965 81.9369L230.969 81.9376L231.31 80.0462L231.307 80.0455L231.307 80.0413L232.25 74.8209C232.259 74.7726 232.263 74.7243 232.264 74.676C232.264 74.2875 231.986 73.9417 231.59 73.8703L226.886 73.0205C226.837 73.0114 226.788 73.0072 226.739 73.0072C226.351 73.0072 226.006 73.2851 225.935 73.6806L224.992 78.9003ZM120.255 9.14711C118.09 9.14711 116.335 7.39227 116.335 5.22653C116.335 3.23997 117.812 1.59921 119.727 1.34093C119.708 1.34932 119.688 1.35701 119.667 1.36542C119.86 1.33601 120.054 1.30592 120.255 1.30592C120.522 1.30592 120.782 1.33252 121.034 1.38292C122.826 1.74411 124.177 3.32747 124.177 5.22653C124.177 6.4193 123.503 7.60156 122.663 8.32045H122.665C121.976 8.85745 121.128 9.14848 120.255 9.14711Z"
            fill="#EEFAFE" />
        <path
            d="M211.541 73.9324L210.798 73.9849L209.674 78.9884L213.354 78.7301L211.541 73.9324ZM31.0145 88.7854C37.5916 124.708 62.6159 156.711 95.8931 171.756L96.2949 170.867C63.3201 155.967 38.4833 124.204 31.9742 88.6097L31.0145 88.7854Z"
            fill="#CAEEFC" />
        <path
            d="M33.1509 96.1816C30.0681 92.1406 28.5093 86.9643 28.8481 81.8936C28.9314 80.6504 29.2051 79.2757 30.2186 78.5519C30.4972 78.3524 30.8374 78.2131 31.1776 78.2558C31.7243 78.3237 32.1051 78.8249 32.3704 79.3086C33.7781 81.8705 33.7619 84.9644 33.44 87.8701C33.1173 90.775 33.2615 92.9939 33.1509 96.1816ZM36.3519 106.011C35.1241 101.079 35.7457 95.7092 38.0682 91.1887C38.6373 90.0806 39.4339 88.927 40.6512 88.6645C40.9858 88.5924 41.354 88.5987 41.6487 88.773C42.1246 89.0523 42.2744 89.6634 42.3269 90.2129C42.6027 93.1227 41.361 95.957 39.9127 98.4958C38.4651 101.035 37.7176 103.129 36.3519 106.011ZM41.5387 118.389C39.7174 113.644 39.6775 108.239 41.4302 103.468C41.8593 102.298 42.5089 101.056 43.6856 100.647C44.009 100.534 44.3744 100.496 44.6887 100.632C45.1948 100.852 45.4188 101.44 45.5378 101.978C46.167 104.833 45.2809 107.798 44.1546 110.495C43.0276 113.192 42.5418 115.362 41.5387 118.389ZM48.1641 129.711C46.3427 124.966 46.3035 119.56 48.0556 114.789C48.4854 113.62 49.1343 112.378 50.3109 111.968C50.6343 111.856 51.0004 111.818 51.314 111.954C51.8201 112.173 52.0441 112.761 52.1631 113.3C52.7924 116.155 51.9062 119.119 50.7799 121.817C49.6529 124.514 49.1672 126.683 48.1641 129.711ZM58.8206 143.465C56.5177 138.935 55.9185 133.563 57.1673 128.636C57.4731 127.428 57.9904 126.125 59.1181 125.596C59.4282 125.451 59.788 125.375 60.1149 125.478C60.6406 125.644 60.9248 126.205 61.0983 126.729C62.0202 129.503 61.4463 132.544 60.6049 135.343C59.7635 138.142 59.5052 140.351 58.8206 143.465ZM67.5256 152.686C65.1792 148.584 64.2441 143.398 64.9448 138.37C65.1163 137.138 65.4641 135.78 66.4 135.089C66.6576 134.9 66.9635 134.771 67.2547 134.823C67.7237 134.907 68.0128 135.415 68.2039 135.903C69.2174 138.488 68.9557 141.561 68.4433 144.438C67.9309 147.315 67.8777 149.522 67.5256 152.686ZM38.0752 110.412C32.8597 110.091 27.6763 107.81 23.7662 104.118C22.8079 103.213 21.8615 102.069 21.9077 100.788C21.9203 100.435 22.0204 100.075 22.2675 99.8376C22.6658 99.4562 23.3112 99.4975 23.8705 99.6165C26.8342 100.248 29.3395 102.353 31.4996 104.568C33.6598 106.784 35.5532 108.17 38.0752 110.412ZM42.3913 119.868C37.2507 120.801 31.6725 119.824 26.9938 117.171C25.8472 116.521 24.6552 115.637 24.3941 114.38C24.3227 114.035 24.3332 113.662 24.5166 113.373C24.812 112.907 25.449 112.793 26.0208 112.775C29.049 112.681 31.9847 114.126 34.611 115.762C37.2374 117.398 39.4073 118.293 42.3913 119.868ZM49.4422 131.356C44.5914 133.299 38.9313 133.458 33.8165 131.795C32.5629 131.387 31.2182 130.759 30.7114 129.581C30.5721 129.257 30.5077 128.889 30.6295 128.568C30.8255 128.053 31.4268 127.814 31.9833 127.682C34.9316 126.984 38.0969 127.813 40.9977 128.89C43.8984 129.968 46.2034 130.411 49.4422 131.356ZM59.8293 145.137C54.669 145.955 49.114 144.855 44.4962 142.098C43.3636 141.423 42.1918 140.513 41.9587 139.252C41.895 138.904 41.9139 138.531 42.1036 138.246C42.4095 137.787 43.0486 137.687 43.6205 137.682C46.6507 137.656 49.5528 139.165 52.1421 140.859C54.732 142.554 56.881 143.496 59.8293 145.137ZM68.8122 153.728C64.5724 156.782 59.1174 158.299 53.752 157.918C52.4375 157.824 50.9808 157.539 50.2052 156.517C49.9917 156.237 49.8405 155.894 49.8818 155.555C49.9483 155.007 50.474 154.63 50.9822 154.368C53.6764 152.98 56.9475 153.022 60.0225 153.369C63.0968 153.716 65.441 153.59 68.8122 153.728ZM-32.9659 139.116C-31.3589 139.043 -29.7514 139.007 -28.1442 139.007C6.40048 139.004 40.6862 155.811 61.6387 183.315L62.4143 182.725C41.2623 154.968 6.71548 138.034 -28.1442 138.031C-29.7659 138.031 -31.3885 138.069 -33.0102 138.142L-32.9659 139.116Z"
            fill="#CAEEFC" />
        <path
            d="M-25.3235 138.563C-29.9535 136.466 -35.3475 136.11 -40.2129 137.579C-41.4056 137.94 -42.6839 138.515 -43.1613 139.665C-43.2925 139.982 -43.3522 140.344 -43.2346 140.666C-43.0451 141.184 -42.4715 141.443 -41.9407 141.592C-39.1282 142.388 -36.1161 141.678 -33.3577 140.711C-30.5991 139.744 -28.4048 139.387 -25.3235 138.563ZM-15.0259 139.474C-20.1075 139.385 -25.2004 141.197 -29.0843 144.476C-30.0361 145.279 -30.9813 146.314 -30.9635 147.56C-30.9586 147.902 -30.8695 148.259 -30.6341 148.508C-30.2545 148.908 -29.6254 148.918 -29.0786 148.845C-26.181 148.46 -23.6979 146.613 -21.5491 144.632C-19.3999 142.65 -17.5274 141.452 -15.0259 139.474ZM-1.79919 141.748C-6.83193 141.039 -12.108 142.214 -16.3634 144.994C-17.4066 145.675 -18.4713 146.587 -18.6058 147.825C-18.6428 148.165 -18.5979 148.531 -18.3948 148.806C-18.0669 149.25 -17.4438 149.336 -16.8923 149.331C-13.9693 149.303 -11.279 147.773 -8.90401 146.069C-6.52869 144.366 -4.52394 143.405 -1.79919 141.748ZM10.7215 145.66C5.68872 144.951 0.412609 146.127 -3.84279 148.907C-4.88591 149.588 -5.95065 150.499 -6.08519 151.738C-6.12214 152.078 -6.07728 152.444 -5.87386 152.719C-5.54627 153.162 -4.92315 153.249 -4.37135 153.244C-1.44865 153.216 1.24166 151.686 3.61663 149.982C5.99195 148.279 7.99677 147.318 10.7215 145.66ZM26.5185 152.955C21.5864 151.728 16.2169 152.352 11.6963 154.675C10.5883 155.244 9.43475 156.041 9.17274 157.259C9.10057 157.594 9.10772 157.961 9.28131 158.256C9.56102 158.731 10.1722 158.882 10.7212 158.934C13.6314 159.209 16.4654 157.966 19.0042 156.518C21.543 155.069 23.6367 154.322 26.5185 152.955ZM37.4585 159.366C32.9346 158.001 27.6707 158.255 22.929 160.067C21.7663 160.511 20.5218 161.155 20.0591 162.222C19.9324 162.516 19.8757 162.842 19.9912 163.115C20.1781 163.553 20.7388 163.72 21.2568 163.797C24.0035 164.205 26.9399 163.258 29.6278 162.113C32.3158 160.967 34.4549 160.42 37.4585 159.366ZM-10.3507 140.164C-11.8349 135.155 -15.2214 130.616 -19.6982 127.635C-20.7955 126.905 -22.1219 126.239 -23.3605 126.572C-23.7012 126.664 -24.0299 126.842 -24.2051 127.136C-24.4879 127.61 -24.3025 128.23 -24.0608 128.748C-22.7798 131.494 -20.1663 133.463 -17.5223 135.069C-14.8779 136.676 -13.1012 138.21 -10.3507 140.164ZM-0.167046 142.246C-0.412601 137.027 -2.61755 131.811 -6.25339 127.848C-7.14447 126.877 -8.27403 125.914 -9.5564 125.942C-9.90884 125.949 -10.2706 126.044 -10.5112 126.287C-10.8987 126.68 -10.8667 127.326 -10.7557 127.887C-10.1673 130.86 -8.09932 133.395 -5.91516 135.587C-3.73094 137.779 -2.37171 139.692 -0.167046 142.246ZM12.6117 146.536C13.4156 141.373 12.2987 135.822 9.52904 131.211C8.8504 130.081 7.93629 128.912 6.67444 128.683C6.32746 128.62 5.95422 128.64 5.66954 128.83C5.21133 129.138 5.11341 129.777 5.10984 130.349C5.09206 133.379 6.61074 136.277 8.31226 138.861C10.0138 141.445 10.9629 143.592 12.6117 146.536ZM28.3735 153.562C28.0123 148.35 25.6918 143.184 21.9686 139.303C21.0558 138.351 19.9058 137.414 18.6241 137.471C18.272 137.486 17.9122 137.589 17.677 137.838C17.2984 138.239 17.3452 138.884 17.4684 139.442C18.1229 142.401 20.2467 144.89 22.4789 147.033C24.7112 149.175 26.1125 151.058 28.3735 153.562ZM38.7626 160.386C40.7863 155.568 41.0404 149.911 39.4626 144.77C39.0762 143.509 38.4707 142.154 37.301 141.627C36.9798 141.483 36.613 141.413 36.291 141.529C35.7723 141.716 35.5224 142.313 35.3817 142.868C34.6341 145.804 35.4097 148.983 36.4387 151.901C37.4676 154.819 37.8715 157.131 38.7626 160.386Z"
            fill="#CAEEFC" />
        <path
            d="M81.7786 153.995C76.5182 149.076 69.0879 146.567 61.9229 147.291C57.0699 147.781 51.778 150.374 50.7099 155.133C50.2017 157.4 50.3795 160.407 48.234 161.297C46.1341 162.169 44.1062 160.006 41.951 159.283C38.3622 158.079 34.268 162.181 35.4782 165.767C36.0284 167.398 37.4088 168.819 37.294 170.536C37.1379 172.874 34.2477 174.094 31.9321 173.73C29.6166 173.367 27.5726 172.015 25.3012 171.437C23.0304 170.859 20.0891 171.439 19.2911 173.642C18.5765 175.618 19.8098 178.271 18.2587 179.688C17.5937 180.294 16.6319 180.419 15.7366 180.505C-3.92901 182.372 -25.5869 185.9 -23.3863 189.393C-22.7848 190.348 -21.247 190.044 -20.1185 190.027C21.739 189.371 59.7599 188.747 101.603 190.031L81.7786 153.995Z"
            fill="#CAEEFC" />
        <path d="M199.474 88.2467L211.883 136.904L209.523 137.506L194.17 89.5998" fill="#99D6F4" />
        <path
            d="M181.996 65.8441C178.007 66.8612 175.863 72.0081 177.216 77.3161C178.57 82.6247 182.918 86.1162 186.906 85.0992C190.895 84.0821 193.039 78.9351 191.685 73.6265C190.331 68.3178 185.984 64.827 181.996 65.8441ZM187.992 89.3565C181.656 90.9727 174.912 86.0582 172.959 78.4017C171.007 70.746 174.574 63.2023 180.91 61.5868C187.246 59.9705 193.99 64.8851 195.942 72.5408C197.895 80.1972 194.328 87.7409 187.992 89.3565Z"
            fill="#A8E3FA" />
        <path
            d="M194.516 75.8344L198.289 90.6292C198.478 91.3733 198.029 92.1306 197.285 92.3203C196.541 92.51 195.784 92.0606 195.594 91.3166L195.168 89.6457C195.168 89.6457 193.186 85.4199 187.709 87.1622C187.709 87.1622 194.243 86.346 194.465 86.3621C194.686 86.3782 194.31 75.0273 194.516 75.8344Z"
            fill="#C8EDFC" />
        <path
            d="M197.827 94.4489C195.911 94.9375 193.954 93.7763 193.466 91.8597C193.466 91.8597 193.24 90.6956 192.787 90.0523C192.077 89.0451 190.63 88.6664 187.982 89.3412L187.311 85.6012C188.704 85.156 189.705 84.4847 190.824 84.5631C191.424 84.4896 191.922 84.4301 192.339 84.3811C192.334 83.2352 192.312 81.724 192.295 80.5662C192.278 79.3356 193.874 77.9518 193.87 77.0677C193.865 75.4822 192.238 73.88 194.206 73.6161L196.142 73.3592L200.417 90.0866C200.906 92.0032 199.744 93.9603 197.827 94.4489Z"
            fill="#A8E3FA" />
        <path
            d="M234.919 192.496H183.529L174.897 114.753C174.787 113.765 175.561 112.9 176.555 112.9H241.893C242.887 112.9 243.661 113.765 243.551 114.753L234.919 192.496Z"
            fill="#A8E3FA" />
        <path
            d="M170.476 195.884C201.431 196.306 232.385 196.728 263.339 197.149C264.377 197.163 267.651 196.15 262.009 192.512C257.23 189.43 242.126 192.203 242.126 192.203C242.126 192.203 245.642 190.793 245.626 188.974C245.61 187.155 244.231 185.556 242.576 184.801C240.92 184.047 239.035 183.992 237.219 184.096C233.523 184.308 229.863 185.127 226.429 186.511C227.887 185.615 228.33 183.418 227.336 182.027C226.342 180.635 224.121 180.342 222.8 181.43C225.12 178.289 228.707 164.365 217.684 158.229C203.868 150.538 193.375 156.867 191.137 161.496C190.001 156.953 184.788 153.512 181.355 152.66C173.523 150.715 168.422 151.292 161.112 154.706C158.525 155.914 155.062 160.039 153.343 162.317C150.65 165.886 150.231 170.631 150.083 175.099C149.971 178.453 149.956 181.809 150.037 185.164L170.476 195.884Z"
            fill="#D2F0FA" />
        <path
            d="M118.929 203.738C80.4711 203.738 49.2946 202.437 49.2946 200.832C49.2946 200.387 51.7025 199.964 56.0046 199.586C57.1071 200.352 58.4454 200.8 59.8888 200.8H177.97C179.414 200.8 180.752 200.352 181.854 199.586C186.156 199.964 188.564 200.387 188.564 200.832C188.564 202.437 157.388 203.738 118.929 203.738Z"
            fill="#DDF3F7" />
        <path
            d="M120.255 9.14718C118.09 9.14718 116.335 7.39234 116.335 5.22659C116.335 3.06155 118.09 1.30599 120.255 1.30599C122.421 1.30599 124.177 3.06155 124.177 5.22659C124.177 7.39234 122.421 9.14718 120.255 9.14718ZM120.255 -1.85093C116.396 -1.85093 113.267 1.27729 113.267 5.13699V14.0933H127.244V5.13699C127.244 1.27729 124.115 -1.85093 120.255 -1.85093Z"
            fill="#E93654" />
        <path
            d="M122.663 8.32056C123.503 7.60167 124.177 6.41941 124.177 5.22664C124.177 6.48381 123.584 7.60307 122.665 8.32056H122.663ZM121.034 1.38303C120.782 1.33263 120.522 1.30604 120.255 1.30604C120.054 1.30604 119.86 1.33613 119.667 1.36553C119.688 1.35713 119.708 1.34944 119.727 1.34104C120.162 1.28309 120.604 1.29727 121.034 1.38303Z"
            fill="#D099A8" />
        <path
            d="M115.402 12.7324H113.267V5.07391C113.267 5.07111 113.268 5.06832 113.268 5.06552V5.0179C113.269 5.0137 113.269 5.00881 113.269 5.00391V4.98361C113.269 4.98011 113.269 4.97661 113.269 4.97311V4.95281C113.27 4.94931 113.27 4.94652 113.27 4.94302V4.92832C113.271 4.91852 113.271 4.90871 113.272 4.89891V4.89332C113.272 4.88912 113.272 4.88421 113.272 4.87931V4.87372C113.272 4.86882 113.273 4.86392 113.273 4.85902V4.85482C113.395 1.7854 115.5 -0.770247 118.34 -1.57873C116.457 -0.327158 115.402 1.812 115.402 4.24234V12.7324ZM122.665 8.32043C123.584 7.60295 124.177 6.48368 124.177 5.22651C124.177 3.32746 122.826 1.74409 121.034 1.3829C120.604 1.29715 120.162 1.28297 119.727 1.34091C120.259 1.12742 120.32 0.983915 121.258 0.983915C123.423 0.983915 125.178 2.73947 125.178 4.90522C125.178 6.86797 124.177 7.93194 122.665 8.32043Z"
            fill="#D0334B" />
        <path
            d="M177.97 200.8H59.8888C56.1229 200.8 53.0703 197.747 53.0703 193.982V21.382C53.0703 17.6161 56.1229 14.5635 59.8888 14.5635H177.97C181.736 14.5635 184.789 17.6161 184.789 21.382V193.982C184.789 197.747 181.736 200.8 177.97 200.8Z"
            fill="#4E86CE" />
        <path d="M60.7042 193.496H177.155V21.8679H60.7042V193.496Z" fill="#CAEEFC" />
        <path d="M65.1821 188.253H172.677V27.1108H65.1821V188.253Z" fill="white" />
        <path
            d="M161.294 17.6464V24.6462H76.5616V17.6464C76.5616 17.1354 76.6386 16.6454 76.7856 16.1834C77.4086 14.1815 79.2776 12.7325 81.4755 12.7325H156.381C159.097 12.7325 161.294 14.9305 161.294 17.6464Z"
            fill="#E93654" />
        <path
            d="M161.294 24.6462H76.5616V19.5784C76.5616 18.2204 76.6386 17.1004 76.7856 16.1834C77.4086 14.1815 79.2776 12.7325 81.4755 12.7325H82.0775C80.7825 13.9785 79.8376 15.8825 79.8376 17.8284V22.8963H161.294V24.6462Z"
            fill="#D0334B" />
        <path
            d="M112.454 45.3341H94.9929C94.3896 45.3341 93.9003 44.8455 93.9003 44.2421C93.9003 43.6388 94.3896 43.1495 94.9929 43.1495H112.454C113.057 43.1495 113.546 43.6388 113.546 44.2421C113.546 44.8455 113.057 45.3341 112.454 45.3341ZM164.915 50.9011H151.638C151.035 50.9011 150.546 50.4118 150.546 49.8084C150.546 49.205 151.035 48.7164 151.638 48.7164H164.915C165.518 48.7164 166.008 49.205 166.008 49.8084C166.008 50.4118 165.518 50.9011 164.915 50.9011ZM145.885 50.9011H94.9929C94.3896 50.9011 93.9003 50.4118 93.9003 49.8084C93.9003 49.205 94.3896 48.7164 94.9929 48.7164H145.885C146.489 48.7164 146.978 49.205 146.978 49.8084C146.978 50.4118 146.489 50.9011 145.885 50.9011ZM164.915 56.468H94.9929C94.3896 56.468 93.9003 55.9788 93.9003 55.3754C93.9003 54.772 94.3896 54.2834 94.9929 54.2834H164.915C165.518 54.2834 166.008 54.772 166.008 55.3754C166.008 55.9788 165.518 56.468 164.915 56.468ZM164.915 62.035H142.69C142.087 62.035 141.598 61.5457 141.598 60.9423C141.598 60.3389 142.087 59.8496 142.69 59.8496H164.915C165.518 59.8496 166.008 60.3389 166.008 60.9423C166.008 61.5457 165.518 62.035 164.915 62.035ZM137.158 62.035H94.9929C94.3896 62.035 93.9003 61.5457 93.9003 60.9423C93.9003 60.3389 94.3896 59.8496 94.9929 59.8496H137.158C137.761 59.8496 138.25 60.3389 138.25 60.9423C138.25 61.5457 137.761 62.035 137.158 62.035ZM164.915 45.3341H118.184C117.581 45.3341 117.091 44.8455 117.091 44.2421C117.091 43.6388 117.581 43.1495 118.184 43.1495H164.915C165.518 43.1495 166.008 43.6388 166.008 44.2421C166.008 44.8455 165.518 45.3341 164.915 45.3341ZM112.454 85.3521H94.9929C94.3896 85.3521 93.9003 84.8628 93.9003 84.2594C93.9003 83.656 94.3896 83.1675 94.9929 83.1675H112.454C113.057 83.1675 113.546 83.656 113.546 84.2594C113.546 84.8628 113.057 85.3521 112.454 85.3521ZM164.915 90.9191H151.638C151.035 90.9191 150.546 90.4298 150.546 89.8264C150.546 89.223 151.035 88.7337 151.638 88.7337H164.915C165.518 88.7337 166.008 89.223 166.008 89.8264C166.008 90.4298 165.518 90.9191 164.915 90.9191ZM145.885 90.9191H94.9929C94.3896 90.9191 93.9003 90.4298 93.9003 89.8264C93.9003 89.223 94.3896 88.7337 94.9929 88.7337H145.885C146.489 88.7337 146.978 89.223 146.978 89.8264C146.978 90.4298 146.489 90.9191 145.885 90.9191ZM164.915 96.486H94.9929C94.3896 96.486 93.9003 95.9967 93.9003 95.3933C93.9003 94.79 94.3896 94.3007 94.9929 94.3007H164.915C165.518 94.3007 166.008 94.79 166.008 95.3933C166.008 95.9967 165.518 96.486 164.915 96.486ZM164.915 102.052H142.69C142.087 102.052 141.598 101.564 141.598 100.96C141.598 100.357 142.087 99.8676 142.69 99.8676H164.915C165.518 99.8676 166.008 100.357 166.008 100.96C166.008 101.564 165.518 102.052 164.915 102.052ZM137.158 102.052H94.9929C94.3896 102.052 93.9003 101.564 93.9003 100.96C93.9003 100.357 94.3896 99.8676 94.9929 99.8676H137.158C137.761 99.8676 138.25 100.357 138.25 100.96C138.25 101.564 137.761 102.052 137.158 102.052ZM164.915 85.3521H118.184C117.581 85.3521 117.091 84.8628 117.091 84.2594C117.091 83.656 117.581 83.1675 118.184 83.1675H164.915C165.518 83.1675 166.008 83.656 166.008 84.2594C166.008 84.8628 165.518 85.3521 164.915 85.3521ZM112.454 123.97H94.9929C94.3896 123.97 93.9003 123.481 93.9003 122.877C93.9003 122.274 94.3896 121.785 94.9929 121.785H112.454C113.057 121.785 113.546 122.274 113.546 122.877C113.546 123.481 113.057 123.97 112.454 123.97ZM164.915 129.536H151.638C151.035 129.536 150.546 129.048 150.546 128.444C150.546 127.841 151.035 127.352 151.638 127.352H164.915C165.518 127.352 166.008 127.841 166.008 128.444C166.008 129.048 165.518 129.536 164.915 129.536ZM145.885 129.536H94.9929C94.3896 129.536 93.9003 129.048 93.9003 128.444C93.9003 127.841 94.3896 127.352 94.9929 127.352H145.885C146.489 127.352 146.978 127.841 146.978 128.444C146.978 129.048 146.489 129.536 145.885 129.536ZM164.915 135.103H94.9929C94.3896 135.103 93.9003 134.614 93.9003 134.011C93.9003 133.408 94.3896 132.919 94.9929 132.919H164.915C165.518 132.919 166.008 133.408 166.008 134.011C166.008 134.614 165.518 135.103 164.915 135.103ZM164.915 140.67H142.69C142.087 140.67 141.598 140.181 141.598 139.578C141.598 138.974 142.087 138.485 142.69 138.485H164.915C165.518 138.485 166.008 138.974 166.008 139.578C166.008 140.181 165.518 140.67 164.915 140.67ZM137.158 140.67H94.9929C94.3896 140.67 93.9003 140.181 93.9003 139.578C93.9003 138.974 94.3896 138.485 94.9929 138.485H137.158C137.761 138.485 138.25 138.974 138.25 139.578C138.25 140.181 137.761 140.67 137.158 140.67ZM164.915 123.97H118.184C117.581 123.97 117.091 123.481 117.091 122.877C117.091 122.274 117.581 121.785 118.184 121.785H164.915C165.518 121.785 166.008 122.274 166.008 122.877C166.008 123.481 165.518 123.97 164.915 123.97ZM112.454 163.287H94.9929C94.3896 163.287 93.9003 162.798 93.9003 162.195C93.9003 161.591 94.3896 161.103 94.9929 161.103H112.454C113.057 161.103 113.546 161.591 113.546 162.195C113.546 162.798 113.057 163.287 112.454 163.287ZM164.915 168.854H151.638C151.035 168.854 150.546 168.365 150.546 167.762C150.546 167.158 151.035 166.67 151.638 166.67H164.915C165.518 166.67 166.008 167.158 166.008 167.762C166.008 168.365 165.518 168.854 164.915 168.854ZM145.885 168.854H94.9929C94.3896 168.854 93.9003 168.365 93.9003 167.762C93.9003 167.158 94.3896 166.67 94.9929 166.67H145.885C146.489 166.67 146.978 167.158 146.978 167.762C146.978 168.365 146.489 168.854 145.885 168.854ZM164.915 174.421H94.9929C94.3896 174.421 93.9003 173.932 93.9003 173.329C93.9003 172.725 94.3896 172.236 94.9929 172.236H164.915C165.518 172.236 166.008 172.725 166.008 173.329C166.008 173.932 165.518 174.421 164.915 174.421ZM164.915 179.988H142.69C142.087 179.988 141.598 179.499 141.598 178.896C141.598 178.292 142.087 177.803 142.69 177.803H164.915C165.518 177.803 166.008 178.292 166.008 178.896C166.008 179.499 165.518 179.988 164.915 179.988ZM137.158 179.988H94.9929C94.3896 179.988 93.9003 179.499 93.9003 178.896C93.9003 178.292 94.3896 177.803 94.9929 177.803H137.158C137.761 177.803 138.25 178.292 138.25 178.896C138.25 179.499 137.761 179.988 137.158 179.988ZM164.915 163.287H118.184C117.581 163.287 117.091 162.798 117.091 162.195C117.091 161.591 117.581 161.103 118.184 161.103H164.915C165.518 161.103 166.008 161.591 166.008 162.195C166.008 162.798 165.518 163.287 164.915 163.287Z"
            fill="#DEECF6" />
        <path
            d="M87.6256 58.5693V58.1647H74.5611C73.9717 58.1633 73.495 57.6873 73.4943 57.0979V44.0334C73.495 43.444 73.9717 42.9681 74.5611 42.9667H87.6256C88.2143 42.9681 88.6909 43.444 88.6923 44.0334V57.0979C88.6909 57.6866 88.2143 58.1633 87.6256 58.1647V58.9745C88.6622 58.9738 89.5015 58.1346 89.5015 57.0979V44.0334C89.5015 42.9968 88.6622 42.1575 87.6256 42.1568H74.5611C73.5244 42.1575 72.6851 42.9968 72.6844 44.0334V57.0979C72.6851 58.1346 73.5244 58.9738 74.5611 58.9745H87.6256V58.5693ZM87.6256 98.457V98.0525H74.5611C73.9717 98.0511 73.495 97.5744 73.4943 96.9857V83.9212C73.495 83.3318 73.9717 82.8552 74.5611 82.8545H87.6256C88.2143 82.8552 88.6909 83.3318 88.6923 83.9212V96.9857C88.6909 97.5744 88.2143 98.0511 87.6256 98.0525V98.8623C88.6622 98.8616 89.5015 98.0224 89.5015 96.9857V83.9212C89.5015 82.8846 88.6622 82.0453 87.6256 82.0446H74.5611C73.5244 82.0453 72.6851 82.8846 72.6844 83.9212V96.9857C72.6851 98.0224 73.5244 98.8616 74.5611 98.8623H87.6256V98.457ZM87.6256 138.345V137.94H74.5611C73.9717 137.939 73.495 137.462 73.4943 136.873V123.809C73.495 123.22 73.9717 122.744 74.5611 122.742H87.6256C88.2143 122.744 88.6909 123.22 88.6923 123.809V136.873C88.6909 137.462 88.2143 137.939 87.6256 137.94V138.749C88.6622 138.749 89.5015 137.91 89.5015 136.873V123.809C89.5015 122.772 88.6622 121.933 87.6256 121.932H74.5611C73.5244 121.933 72.6851 122.772 72.6844 123.809V136.873C72.6851 137.91 73.5244 138.749 74.5611 138.749H87.6256V138.345ZM87.6256 178.233V177.828H74.5611C73.9717 177.827 73.495 177.35 73.4943 176.761V163.697C73.495 163.107 73.9717 162.631 74.5611 162.63H87.6256C88.2143 162.631 88.6909 163.107 88.6923 163.697V176.761C88.6909 177.35 88.2143 177.827 87.6256 177.828V178.637C88.6622 178.637 89.5015 177.798 89.5015 176.761V163.697C89.5015 162.66 88.6622 161.821 87.6256 161.82H74.5611C73.5244 161.821 72.6851 162.66 72.6844 163.697V176.761C72.6851 177.798 73.5244 178.637 74.5611 178.637H87.6256V178.233Z"
            fill="#4097B8" />
        <path
            d="M74.1243 48.5225L80.1581 55.8086C80.4066 56.1089 80.7811 56.2706 81.1703 56.2461C81.5588 56.2216 81.9102 56.0137 82.1188 55.684L93.7287 37.3662C94.0871 36.7999 93.9191 36.0496 93.3528 35.6905C92.7858 35.3314 92.0361 35.5001 91.677 36.0663L80.9624 52.9723L75.9946 46.9728C75.567 46.4562 74.8012 46.3848 74.2846 46.8125C73.768 47.2402 73.6959 48.0059 74.1243 48.5225ZM74.1243 88.0785L80.1581 95.3646C80.4066 95.6649 80.7811 95.8273 81.1703 95.8021C81.5588 95.7776 81.9102 95.5697 82.1188 95.2407L93.7287 76.9229C94.0871 76.3559 93.9191 75.6055 93.3528 75.2464C92.7858 74.8874 92.0361 75.0561 91.677 75.6223L80.9624 92.5283L75.9946 86.5295C75.567 86.0129 74.8012 85.9408 74.2846 86.3685C73.768 86.7962 73.6959 87.5619 74.1243 88.0785Z"
            fill="#F89D1C" />
        <path
            d="M30.5707 98.9183C30.5707 98.9183 30.8717 100.916 31.0621 101.09C31.0621 101.09 30.871 101.424 30.3005 101.455"
            fill="#F8A485" />
        <path
            d="M28.8411 202.495C19.6195 202.495 12.1439 201.821 12.1439 200.99C12.1439 200.16 19.6195 199.487 28.8411 199.487C38.0634 199.487 45.5385 200.16 45.5385 200.99C45.5385 201.821 38.0634 202.495 28.8411 202.495Z"
            fill="#DDF3F7" />
        <path
            d="M36.4695 108.244L32.7799 124.453C32.6791 124.895 32.9773 125.328 33.426 125.392L44.9113 127.042C45.3117 127.1 45.6883 126.841 45.7779 126.447L49.4682 110.238C49.569 109.796 49.2708 109.362 48.8221 109.298L37.3361 107.649C36.9364 107.591 36.5591 107.85 36.4695 108.244Z"
            fill="#70CDF4" />
        <path d="M37.1883 108.767L33.6548 124.286L45.0596 125.924L48.5924 110.405L37.1883 108.767Z"
            fill="#EAF8FE" />
        <path
            d="M47.4129 111.349L37.7217 109.957C37.6118 109.942 37.5096 110.018 37.4942 110.128C37.4781 110.238 37.5544 110.339 37.6643 110.355L47.3556 111.747C47.4654 111.762 47.5676 111.686 47.583 111.577C47.5991 111.467 47.5228 111.365 47.4129 111.349ZM47.0868 112.816L37.3955 111.424C37.2856 111.408 37.1834 111.484 37.1673 111.594C37.1519 111.704 37.2282 111.806 37.3381 111.822L47.0294 113.213C47.1393 113.229 47.2415 113.153 47.2569 113.043C47.273 112.933 47.1967 112.832 47.0868 112.816ZM43.0521 114.032L36.9958 113.162C36.8859 113.146 36.7837 113.222 36.7676 113.332C36.7522 113.442 36.8285 113.544 36.9384 113.56L42.9947 114.43C43.1046 114.445 43.2068 114.369 43.2222 114.259C43.2383 114.149 43.162 114.048 43.0521 114.032ZM42.6216 115.292L36.5653 114.423C36.4554 114.407 36.3532 114.483 36.3371 114.593C36.3217 114.703 36.398 114.805 36.5079 114.821L42.5642 115.691C42.6741 115.706 42.7763 115.63 42.7917 115.52C42.8078 115.41 42.7315 115.308 42.6216 115.292ZM42.1911 116.554L36.1348 115.684C36.0249 115.668 35.9227 115.744 35.9066 115.854C35.8912 115.964 35.9675 116.066 36.0774 116.081L42.1337 116.951C42.2436 116.967 42.3458 116.891 42.3612 116.781C42.3773 116.671 42.301 116.569 42.1911 116.554ZM44.4121 123.521L38.3552 122.651C38.2453 122.635 38.1438 122.711 38.1277 122.821C38.1123 122.931 38.1886 123.033 38.2985 123.049L44.3547 123.919C44.4646 123.934 44.5661 123.858 44.5822 123.748C44.5976 123.638 44.5213 123.537 44.4121 123.521Z"
            fill="#A8D7F2" />
        <path
            d="M32.0498 124.647C32.7001 124.341 33.1838 123.774 33.6465 123.223C34.1022 122.68 34.5585 122.136 35.0149 121.593C35.1955 121.378 35.3838 121.144 35.4041 120.865C34.639 120.803 34.1463 121.797 33.3812 121.856C33.7375 120.596 34.2491 119.38 34.9008 118.244C35.0597 117.967 35.2333 117.645 35.1199 117.346C34.2932 117.661 33.5968 118.249 32.9948 118.898C32.571 119.354 32.1857 119.844 31.8426 120.363C30.8332 121.891 30.2074 123.645 29.7819 125.426"
            fill="#F29273" />
        <path
            d="M28.7571 137.702L20.5561 130.783C20.5561 130.783 16.7398 135.959 18.1776 140.954C18.8845 143.409 19.7721 144.627 20.1571 145.792C20.5169 146.88 22.9857 162.29 22.8016 163.417C22.6175 164.543 21.2918 167.695 20.7864 171.01C20.1774 174.997 20.281 187.988 19.8092 191.431C19.3374 194.875 22.5181 195.458 22.6931 194.293C24.1883 184.334 28.1362 168.814 28.6892 163.835C29.2415 158.856 29.0175 149.738 28.7571 137.702Z"
            fill="#F9B291" />
        <path
            d="M28.7809 147.516L25.2145 155.7C26.718 158.241 27.5874 161.239 27.7029 164.279C27.7624 165.857 27.6231 167.439 27.6672 169.019C27.67 169.131 27.6861 169.251 27.7148 169.362C28.1929 167.021 28.5492 165.092 28.6892 163.835C29.0791 160.317 29.0812 154.726 28.9573 147.508L28.7809 147.516Z"
            fill="#F29273" />
        <path
            d="M23.2454 191.095C23.2454 191.095 22.4817 194.708 22.6875 195.169C22.8926 195.63 23.6318 196.968 24.3885 197.452C25.1822 197.96 26.9406 198.564 27.0813 198.784C27.222 199.004 27.2311 199.325 26.9798 199.522C26.3323 200.031 25.2081 200.279 24.4732 200.157C22.089 199.764 21.8426 198.709 20.4539 198.541C20.2138 198.511 19.7693 198.866 19.1064 198.527C18.4428 198.187 18.1208 197.574 18.1775 196.997C18.2762 196.001 18.8355 195.181 19.2331 194.445C19.6307 193.709 19.9114 190.34 19.9114 190.34"
            fill="#F9B291" />
        <path
            d="M27.166 199.696C27.3396 199.398 27.3837 198.949 27.222 198.839C26.998 198.686 26.2007 198.158 25.738 197.946C25.2753 197.732 24.5424 197.545 24.8007 197.685C25.059 197.824 24.5837 198.345 24.1504 198.319C22.6567 198.228 21.5542 197.234 20.703 197.022C19.4746 196.714 18.9601 195.264 18.9062 195.029C18.6738 195.177 18.1334 196.344 18.0235 196.712C17.9248 197.043 17.7477 197.65 17.8415 197.996C17.9066 198.235 18.0515 198.716 17.978 199.221C17.978 199.221 18.2202 199.407 18.8614 199.54C19.2667 199.624 19.812 199.553 19.812 199.553L19.9177 198.781C19.9177 198.781 20.2522 198.768 20.6778 198.856C21.1027 198.944 21.7978 199.349 21.8384 199.398C22.0092 199.602 22.1457 199.973 22.3718 200.087C22.9689 200.388 23.5709 200.531 24.3317 200.576C25.934 200.669 26.8692 200.204 27.166 199.696Z"
            fill="#2B2F75" />
        <path
            d="M39.956 199.546C39.7796 199.351 37.8799 199.042 36.9888 198.669C36.1397 198.315 35.1115 197.174 34.9113 196.691C34.7111 196.206 34.7566 193.754 34.7825 192.725C34.9603 185.633 36.2706 168.304 36.4603 164.153C36.79 156.94 35.8534 149.494 33.0787 137.914L22.7435 129.983C22.7435 129.983 19.8498 135.363 20.8185 140.508C21.3806 143.493 23.8564 143.952 24.275 145.112C24.6936 146.272 30.9459 164.974 30.9459 164.974C30.9459 164.974 29.73 169.017 29.6593 173.448C29.5991 177.229 31.3134 188.636 31.6319 192.981C31.669 193.83 31.8152 195.863 31.5654 196.51C31.2588 197.303 30.4769 198.235 30.5161 199.235C30.5392 199.815 30.9585 200.368 31.6906 200.596C32.4228 200.823 32.8309 200.4 33.0829 200.389C34.5396 200.328 34.9435 201.331 37.4585 201.33C38.2348 201.329 39.3597 200.901 39.956 200.292C40.1863 200.056 40.1317 199.74 39.956 199.546Z"
            fill="#F9B291" />
        <path
            d="M40.1724 200.433C40.3096 200.111 40.2914 199.659 40.1094 199.577C39.856 199.463 38.9587 199.071 38.4512 198.936C37.9444 198.802 37.1611 198.736 37.4474 198.832C37.7337 198.928 37.3165 199.521 36.8664 199.565C35.3117 199.719 34.0343 198.917 33.1257 198.847C31.8146 198.744 31.3337 197.394 31.2448 197.17C31.0257 197.354 30.3783 198.597 30.3174 198.978C30.2621 199.323 30.1648 199.951 30.3104 200.278C30.4119 200.503 30.6289 200.955 30.6247 201.466C30.6247 201.466 30.9005 201.611 31.5808 201.637C32.0113 201.654 32.5643 201.495 32.5643 201.495V200.715C32.5643 200.715 32.9073 200.647 33.3588 200.664C33.8103 200.682 34.3675 200.912 34.6405 201.117C34.854 201.278 35.0786 201.549 35.3306 201.613C36.0579 201.796 36.5808 201.847 37.3718 201.767C39.0384 201.598 39.9379 200.984 40.1724 200.433ZM20.7724 129.913C20.071 130.683 17.5714 134.848 17.5448 138.238C17.5182 141.628 18.599 143.833 18.8328 144.51C19.4725 146.363 20.6632 148.02 20.6632 148.358C20.6632 148.698 22.5266 148.932 26.4801 148.683C33.7844 148.223 36.4681 146.853 36.4681 146.853C36.4681 146.853 36.7068 143.814 35.9578 137.221C35.6022 134.091 32.936 129.133 32.936 129.133"
            fill="#2B2F75" />
        <path
            d="M14.1079 116.368C14.1079 116.368 15.2845 122.213 15.5932 123.253C15.9019 124.294 17.4279 130.898 18.8747 130.783C20.3216 130.668 28.2447 124.054 28.2447 124.054L27.1226 121.809L20.148 125.134C20.148 125.134 19.518 117.584 18.9657 115.786"
            fill="#F9B291" />
        <path
            d="M16.8042 119.966C17.5427 122.575 19.056 125.326 19.5082 127.349C19.5992 127.756 24.4284 125.999 24.4396 124.186"
            fill="#F29273" />
        <path
            d="M18.8327 108.265C18.8327 108.265 16.52 108.512 15.3475 109.409C12.3572 111.697 14.6712 120.001 14.6712 120.001C14.6712 120.001 14.5239 120.444 16.5312 120.332C18.5388 120.22 20.148 119.649 20.148 119.649L19.5677 112.843"
            fill="#E93654" />
        <path
            d="M16.1854 112.967C16.1854 112.967 15.932 117.849 16.8154 120.313C17.6897 120.296 18.4534 120.098 18.4534 120.098L16.1854 112.967Z"
            fill="#B02E3F" />
        <path
            d="M29.8854 92.9427C31.2791 94.75 31.0033 97.2909 30.6596 99.5463C30.486 100.687 30.3124 101.828 30.1381 102.968C30.0555 103.51 29.9456 104.102 29.5236 104.452C29.098 104.804 28.4897 104.798 27.9374 104.774L27.9542 107.606C26.3393 107.645 24.7238 107.652 23.1089 107.625C23.1076 106.962 22.9646 106.306 22.6896 105.703C21.9 105.687 21.3716 104.895 21.0629 104.168C20.7059 103.33 20.4462 102.453 20.1949 101.577C19.8624 100.414 19.5411 99.2334 19.5103 98.0245C19.4802 96.815 19.7672 95.5585 20.5351 94.624C21.0594 93.987 21.7726 93.5348 22.5041 93.1533C23.5058 92.6305 24.7084 92.2182 25.7415 92.676"
            fill="#F9B291" />
        <path
            d="M28.2145 101.55C28.0234 100.601 28.0367 100.066 28.3475 99.4344C28.4511 99.2244 28.5869 99.027 28.7724 98.8969C29.0237 98.7205 29.3569 98.6862 29.6355 98.8073C29.8168 98.8863 29.9666 99.034 30.0688 99.2118C30.3985 97.9372 30.4678 96.5785 30.3726 95.2548C30.2214 93.1556 28.9558 91.533 27.1086 90.7743C23.6877 89.3687 18.7725 90.7575 17.383 94.1153C16.3337 96.6513 16.8657 100.312 18.8747 102.438C20.6533 104.32 23.2111 104.597 25.5721 104.209C26.7803 104.011 28.6443 104.13 29.2694 102.487C29.3177 102.36 29.2092 102.234 29.0811 102.243C28.5904 102.281 28.2495 101.726 28.2145 101.55Z"
            fill="#2B2F75" />
        <path
            d="M28.4771 97.0851C28.6045 97.2846 28.5744 97.552 28.6934 97.7557C28.8943 98.0987 29.161 98.2219 29.5208 98.3892C30.1011 98.658 29.9653 99.5036 29.9485 99.8816C30.3867 99.5904 30.4574 98.798 30.5638 98.3948C30.6821 97.9426 30.7584 97.4792 30.89 97.0305C31.018 96.5938 31.2399 96.1829 31.2812 95.7237C31.4226 94.1375 30.428 92.2735 29.2254 91.3831C28.3497 90.7349 27.0134 90.7615 26.0244 91.4209C25.6079 91.6981 25.2943 92.1174 25.1102 92.5829C25.0311 92.7831 24.9765 93.0155 25.0745 93.2066"
            fill="#2B2F75" />
        <path
            d="M20.7031 108.286C20.785 107.733 20.9348 107.089 21.4493 106.87C21.5928 106.81 21.7496 106.791 21.9036 106.774C23.4793 106.599 25.0654 106.524 26.6509 106.55C27.3061 106.561 27.985 106.594 28.5716 106.887C29.4914 107.347 29.9968 108.338 30.4413 109.266"
            fill="#B02E3F" />
        <path
            d="M34.0503 128.554C33.8298 128.229 33.3209 127.839 33.1389 127.481C32.7007 126.62 32.3178 122.996 32.469 122.071C32.63 121.078 33.5085 120.545 33.9047 118.337C34.415 115.492 33.2481 113.281 32.5964 112.334C31.6746 110.995 32.2213 111.002 31.9056 109.361C31.8489 109.066 31.7824 108.75 31.5801 108.545C31.3813 108.342 30.0072 107.713 29.737 107.672C27.1751 107.275 25.6694 107.585 23.0795 107.698C21.7978 107.754 20.5182 107.903 19.2604 108.181C17.8681 108.488 16.655 108.858 16.3688 110.747C15.9264 113.669 16.2988 116.623 17.187 119.395C17.7757 121.232 21.291 127.587 20.4202 128.817C20.2215 129.098 19.7231 129.632 19.6629 129.983C19.4424 131.267 22.3445 131.719 23.5863 131.821C25.479 131.976 27.6504 131.872 29.5473 131.783C30.9844 131.716 34.128 131.215 34.3513 129.439C34.3947 129.09 34.2225 128.809 34.0503 128.554Z"
            fill="#E93654" />
        <path
            d="M33.5037 118.886C33.5037 119.403 33.2153 120.096 33.1215 120.368C32.761 120.553 31.3316 120.861 30.5113 120.486C30.3314 118.778 29.3318 115.492 29.3318 115.492C29.3318 115.492 33.503 118.408 33.5037 118.886Z"
            fill="#B02E3F" />
        <path
            d="M31.6683 117.695C31.6683 117.695 36.4009 129.132 38.454 129.132C39.9477 129.132 43.61 118.574 43.61 118.574L41.2959 117.478L38.7158 121.9L36.1027 113.654"
            fill="#F9B291" />
        <path
            d="M40.8367 118.266C40.8367 118.266 41.6039 117.058 41.5479 116.201C41.5262 115.874 41.3323 114.319 41.4947 114.014C41.6564 113.708 42.0455 112.707 42.2681 112.513C42.49 112.318 43.3125 112.006 43.5134 112.145C43.7143 112.284 43.9649 111.645 44.2981 111.7C44.632 111.755 44.9092 112.033 44.9092 112.339C44.9092 112.645 45.3544 112.7 45.4097 112.923C45.4656 113.145 45.4377 113.339 45.521 113.507C45.6043 113.673 45.8499 113.591 45.9381 114.007C46.0179 114.387 45.9101 114.424 45.9381 114.618C45.9654 114.813 46.132 114.795 46.0767 115.165C46.0214 115.535 45.7673 116.016 45.5455 116.433C45.3229 116.85 44.8637 117.371 44.2547 117.74C43.9537 117.922 43.7892 118.24 43.5015 118.779"
            fill="#F9B291" />
        <path
            d="M42.1085 109.428C42.0497 109.338 41.8887 109.185 41.6997 109.318C41.5114 109.451 41.5681 109.68 41.6094 109.772L43.0087 112.938C43.0087 112.938 43.1221 113.068 43.3384 112.878C43.5729 112.671 43.498 112.567 43.498 112.567C43.498 112.567 42.1666 109.519 42.1085 109.428Z"
            fill="#2B2F75" />
        <path
            d="M43.5827 112.364C43.316 112.84 43.0073 112.992 42.7294 113.253C42.5117 113.458 42.539 113.591 42.299 113.801C42.7196 113.769 42.6475 113.521 43.1928 113.127C43.4455 112.945 43.7073 112.748 43.7563 112.437C43.7738 112.331 43.6471 112.273 43.5827 112.364Z"
            fill="#F29273" />
        <path
            d="M27.3151 107.495C28.5477 107.56 32.1358 106.93 34.1301 109.016C35.8002 110.763 36.7571 115.344 37.4298 117.201C35.7561 118.907 34.1441 120.283 31.6088 119.729C31.5129 119.657 30.255 115.698 29.3394 115.346"
            fill="#E93654" />
        <path
            d="M36.4744 143.814C36.4744 143.814 37.2885 163.381 37.1401 164.808C36.9917 166.235 35.4041 193.25 35.4041 193.25C35.4041 193.25 32.1443 193.821 30.1921 193.25C30.1921 193.25 27.6735 172.212 30.1921 165.656L29.0728 159.374C29.0728 159.374 29.2394 164.047 29.0728 164.998C28.9055 165.949 23.8677 192.584 23.8677 192.584C23.8677 192.584 20.5351 192.496 19.0127 191.161C19.0127 191.161 18.5381 172.656 22.01 164.871L18.8328 144.51L20.6632 139.328L36.4744 143.814Z"
            fill="#2B2F75" />
        <path
            d="M29.0727 159.375C28.6072 156.365 25.7352 145.691 25.6134 145.435C24.0434 144.218 22.6091 143.146 22.0869 142.131C22.9444 144.705 24.5963 144.838 25.2144 146.17C26.7411 149.459 25.5749 148.734 29.1399 159.752"
            fill="#1E204C" />
        <path
            d="M15.0528 107.365C14.9793 108.407 15.1921 109.446 15.2089 110.49C15.2257 111.533 15.0017 112.659 14.2351 113.367C13.4686 114.076 12.0465 114.104 11.5018 113.213C12.0531 114.364 13.2392 115.138 14.4948 115.367C15.75 115.595 17.0596 115.324 18.2195 114.793C21.3015 113.38 23.3546 110.15 23.2594 106.751C23.181 103.958 21.06 101.258 18.0963 102.726C16.3596 103.587 15.1886 105.447 15.0528 107.365Z"
            fill="#2B2F75" />
    </g>
</svg>