<svg width="25" height="24" viewBox="0 0 25 24" fill="none" xmlns="http://www.w3.org/2000/svg">
<mask id="mask0_257_15" style="mask-type:alpha" maskUnits="userSpaceOnUse" x="0" y="0" width="25" height="24">
<rect x="0.5" width="24" height="24" fill="#D9D9D9"/>
</mask>
<g mask="url(#mask0_257_15)">
<path d="M20.1 21L13.8 14.7C13.3 15.1 12.725 15.4167 12.075 15.65C11.425 15.8833 10.7333 16 10 16C8.18333 16 6.646 15.371 5.388 14.113C4.12933 12.8543 3.5 11.3167 3.5 9.5C3.5 7.68333 4.12933 6.14567 5.388 4.887C6.646 3.629 8.18333 3 10 3C11.8167 3 13.3543 3.629 14.613 4.887C15.871 6.14567 16.5 7.68333 16.5 9.5C16.5 10.2333 16.3833 10.925 16.15 11.575C15.9167 12.225 15.6 12.8 15.2 13.3L21.5 19.6L20.1 21ZM10 14C11.25 14 12.3127 13.5627 13.188 12.688C14.0627 11.8127 14.5 10.75 14.5 9.5C14.5 8.25 14.0627 7.18733 13.188 6.312C12.3127 5.43733 11.25 5 10 5C8.75 5 7.68733 5.43733 6.812 6.312C5.93733 7.18733 5.5 8.25 5.5 9.5C5.5 10.75 5.93733 11.8127 6.812 12.688C7.68733 13.5627 8.75 14 10 14Z" fill="#C5C5C5"/>
</g>
</svg>
