<svg width="200" height="201" viewBox="0 0 200 201" fill="none" xmlns="http://www.w3.org/2000/svg">
    <circle cx="100" cy="100.75" r="100" fill="#87BBD8" />
    <mask id="mask0_862_1318" style="mask-type:alpha" maskUnits="userSpaceOnUse" x="0" y="0"
        width="200" height="201">
        <circle cx="100" cy="100.75" r="100" fill="#D9D9D9" />
    </mask>
    <g mask="url(#mask0_862_1318)">
        <g clip-path="url(#clip0_862_1318)">
            <path
                d="M112.227 207.354C53.3909 207.354 5.69556 159.538 5.69556 100.554C5.69556 41.5699 53.3909 -6.24608 112.227 -6.24608C171.061 -6.24608 218.756 41.5699 218.756 100.554C218.756 159.538 171.061 207.354 112.227 207.354Z"
                fill="#FBCCCD" />
            <path
                d="M137.374 70.6169H95.7924C91.0322 70.6169 87.1729 74.4857 87.1729 79.2579V104.734C87.1729 109.507 91.0322 113.375 95.7924 113.375L95.3199 121.372L108.669 113.375H137.374C142.134 113.375 145.993 109.507 145.993 104.734V79.2579C145.993 74.4857 142.134 70.6169 137.374 70.6169Z"
                fill="#B3BFE6" />
            <path
                d="M136.258 84.8712H96.9084C96.1955 84.8712 95.6176 84.2933 95.6176 83.5804V83.5772C95.6176 82.8649 96.1955 82.287 96.9084 82.287H136.258C136.971 82.287 137.548 82.8649 137.548 83.5772V83.5804C137.548 84.2933 136.971 84.8712 136.258 84.8712ZM136.258 92.5066H96.9084C96.1955 92.5066 95.6176 91.9293 95.6176 91.2163V91.2132C95.6176 90.5003 96.1955 89.923 96.9084 89.923H136.258C136.971 89.923 137.548 90.5003 137.548 91.2132V91.2163C137.548 91.9293 136.971 92.5066 136.258 92.5066ZM136.258 100.143H96.9084C96.1955 100.143 95.6176 99.5647 95.6176 98.8523V98.8492C95.6176 98.1363 96.1955 97.5583 96.9084 97.5583H136.258C136.971 97.5583 137.548 98.1363 137.548 98.8492V98.8523C137.548 99.5647 136.971 100.143 136.258 100.143Z"
                fill="#252135" />
            <path d="M200.301 94.342H166.43V49.0806H192.489L200.301 56.892V94.342Z" fill="#B3BFE6" />
            <path d="M166.43 68.9146H177.976V49.0804H166.43V68.9146Z" fill="#6993D3" />
            <path d="M192.499 49.0805V56.7341H200.301L192.499 49.0805Z" fill="white" />
            <path
                d="M191.782 60.88H174.175C173.779 60.88 173.458 60.5588 173.458 60.1633V60.1614C173.458 59.7651 173.779 59.444 174.175 59.444H191.782C192.178 59.444 192.499 59.7651 192.499 60.1614V60.1633C192.499 60.5588 192.178 60.88 191.782 60.88ZM191.782 66.0327H174.175C173.779 66.0327 173.458 65.7115 173.458 65.3153V65.3134C173.458 64.9172 173.779 64.5967 174.175 64.5967H191.782C192.178 64.5967 192.499 64.9172 192.499 65.3134V65.3153C192.499 65.7115 192.178 66.0327 191.782 66.0327ZM191.782 71.1847H174.175C173.779 71.1847 173.458 70.8636 173.458 70.4674V70.4655C173.458 70.0699 173.779 69.7488 174.175 69.7488H191.782C192.178 69.7488 192.499 70.0699 192.499 70.4655V70.4674C192.499 70.8636 192.178 71.1847 191.782 71.1847ZM191.782 76.3368H174.175C173.779 76.3368 173.458 76.0157 173.458 75.6201V75.6182C173.458 75.222 173.779 74.9009 174.175 74.9009H191.782C192.178 74.9009 192.499 75.222 192.499 75.6182V75.6201C192.499 76.0157 192.178 76.3368 191.782 76.3368ZM191.782 81.4895H174.175C173.779 81.4895 173.458 81.1684 173.458 80.7722V80.7703C173.458 80.3741 173.779 80.0536 174.175 80.0536H191.782C192.178 80.0536 192.499 80.3741 192.499 80.7703V80.7722C192.499 81.1684 192.178 81.4895 191.782 81.4895ZM191.782 86.6416H174.175C173.779 86.6416 173.458 86.3205 173.458 85.9242V85.9224C173.458 85.5268 173.779 85.2056 174.175 85.2056H191.782C192.178 85.2056 192.499 85.5268 192.499 85.9224V85.9242C192.499 86.3205 192.178 86.6416 191.782 86.6416Z"
                fill="#252135" />
            <path
                d="M175.502 65.3142H141.632V20.0534H167.691C170.742 23.1033 172.451 24.8137 175.502 27.8642V65.3142Z"
                fill="#B3BFE6" />
            <path d="M167.701 20.0533V27.7063H175.502L167.701 20.0533Z" fill="white" />
            <path
                d="M166.984 31.8528H149.377C148.981 31.8528 148.659 31.5316 148.659 31.1354V31.1335C148.659 30.7379 148.981 30.4168 149.377 30.4168H166.984C167.38 30.4168 167.701 30.7379 167.701 31.1335V31.1354C167.701 31.5316 167.38 31.8528 166.984 31.8528ZM166.984 37.0048H149.377C148.981 37.0048 148.659 36.6837 148.659 36.2881V36.2856C148.659 35.89 148.981 35.5689 149.377 35.5689H166.984C167.38 35.5689 167.701 35.89 167.701 36.2856V36.2881C167.701 36.6837 167.38 37.0048 166.984 37.0048ZM166.984 42.1569H149.377C148.981 42.1569 148.659 41.8358 148.659 41.4402V41.4383C148.659 41.0421 148.981 40.721 149.377 40.721H166.984C167.38 40.721 167.701 41.0421 167.701 41.4383V41.4402C167.701 41.8358 167.38 42.1569 166.984 42.1569ZM166.984 47.3096H149.377C148.981 47.3096 148.659 46.9885 148.659 46.5923V46.591C148.659 46.1948 148.981 45.8736 149.377 45.8736H166.984C167.38 45.8736 167.701 46.1948 167.701 46.591V46.5923C167.701 46.9885 167.38 47.3096 166.984 47.3096ZM166.984 52.4617H149.377C148.981 52.4617 148.659 52.1412 148.659 51.7443V51.7431C148.659 51.3469 148.981 51.0257 149.377 51.0257H166.984C167.38 51.0257 167.701 51.3469 167.701 51.7431V51.7443C167.701 52.1412 167.38 52.4617 166.984 52.4617ZM166.984 57.6138H149.377C148.981 57.6138 148.659 57.2926 148.659 56.897V56.8951C148.659 56.4989 148.981 56.1778 149.377 56.1778H166.984C167.38 56.1778 167.701 56.4989 167.701 56.8951V56.897C167.701 57.2926 167.38 57.6138 166.984 57.6138Z"
                fill="#252135" />
            <path
                d="M11.0889 82.2869C15.2436 78.4534 17.8486 72.9575 17.8486 66.8502C17.8486 55.2647 8.48046 45.8735 -3.07574 45.8735C-14.6319 45.8735 -24 55.2647 -24 66.8502C-24 78.4357 -14.6319 87.8276 -3.07574 87.8276C-1.23125 87.8276 0.556515 87.586 2.25999 87.1367L2.25974 87.1374C2.25974 87.1374 7.54835 94.215 16.2671 91.215C16.2671 91.215 11.3393 88.7279 11.0889 82.2869Z"
                fill="#B3BFE6" />
            <path
                d="M-2.30977 60.545L-5.48632 52.8679C-5.48632 52.8679 -12.1331 54.2862 -11.1364 62.0377C-9.86993 71.8901 -3.82076 82.1255 5.08673 78.4207L1.77643 70.4201C1.77643 70.4201 0.483299 70.1046 -1.9046 71.8396C-1.9046 71.8396 -3.52353 72.2157 -5.29382 68.6522C-7.06431 65.0888 -6.60891 62.9721 -5.77812 62.4781C-5.77812 62.4781 -3.15609 62.4812 -2.30977 60.545Z"
                fill="#252135" />
            <path
                d="M121.557 37.0046V36.416H106.22V21.6279H120.968V37.0046H121.557H122.145V20.4506H105.043V37.5933H122.145V37.0046H121.557Z"
                fill="#D84F64" />
            <path
                d="M108.441 27.027L113.406 34.5923L113.891 33.3242L113.9 33.3021C114.002 33.0434 115.001 30.5727 117.108 27.4497C119.214 24.326 122.426 20.5544 126.941 17.6679L126.192 16.497C121.314 19.6181 117.924 23.692 115.748 26.9834C113.571 30.2768 112.607 32.7929 112.593 32.827L113.242 33.0756L113.823 32.6939L109.603 26.2642L108.441 27.027ZM32.1548 57.323H100.722C102.496 57.3236 104.098 58.0429 105.262 59.2088C106.425 60.3754 107.143 61.9817 107.144 63.7622V66.9395H108.321V63.7622C108.32 59.5571 104.92 56.1464 100.722 56.1457H32.1548V57.323Z"
                fill="#D84F64" />
            <path
                d="M33.7046 56.3848C33.7046 57.6598 32.6735 58.6939 31.4015 58.6939C30.1298 58.6939 29.0986 57.6598 29.0986 56.3848C29.0986 55.1097 30.1298 54.0756 31.4015 54.0756C32.6735 54.0756 33.7046 55.1097 33.7046 56.3848ZM110.035 66.9394C110.035 68.2151 109.004 69.2485 107.732 69.2485C106.46 69.2485 105.429 68.2151 105.429 66.9394C105.429 65.6649 106.46 64.6309 107.732 64.6309C109.004 64.6309 110.035 65.6649 110.035 66.9394ZM100.823 28.4332H78.0573C74.1853 28.4338 71.0497 31.579 71.049 35.4578V56.7343H72.2263V35.4578C72.227 33.8408 72.8787 32.3827 73.9349 31.3228C74.9916 30.2641 76.4453 29.6111 78.0573 29.6105H100.823V28.4332Z"
                fill="#D84F64" />
            <path
                d="M102.242 29.0219C102.242 30.297 101.21 31.3311 99.9381 31.3311C98.6662 31.3311 97.6353 30.297 97.6353 29.0219C97.6353 27.7469 98.6662 26.7134 99.9381 26.7134C101.21 26.7134 102.242 27.7469 102.242 29.0219ZM207.407 79.7856H211.243C213.754 79.7862 216.022 80.8045 217.669 82.4544C219.314 84.1049 220.33 86.3793 220.33 88.8979V120.591H221.508V88.8979C221.508 83.2159 216.913 78.6089 211.243 78.6083H207.407V79.7856Z"
                fill="#D84F64" />
            <path
                d="M209.711 79.1969C209.711 80.472 208.679 81.506 207.407 81.506C206.136 81.506 205.104 80.472 205.104 79.1969C205.104 77.9218 206.136 76.8883 207.407 76.8883C208.679 76.8883 209.711 77.9218 209.711 79.1969ZM223.223 120.591C223.223 121.866 222.191 122.9 220.919 122.9C219.648 122.9 218.616 121.866 218.616 120.591C218.616 119.316 219.648 118.282 220.919 118.282C222.191 118.282 223.223 119.316 223.223 120.591ZM164.919 16.0931C170.064 11.2723 176.969 8.32401 184.566 8.32337C192.514 8.32401 199.706 11.5518 204.916 16.7739C210.125 21.9979 213.346 29.2074 213.346 37.1777C213.346 44.7229 210.46 51.586 205.733 56.7286L206.631 57.5532C211.556 52.1967 214.566 45.0365 214.565 37.1777C214.565 20.5701 201.135 7.10507 184.566 7.10444C176.65 7.10381 169.445 10.1808 164.085 15.2035L164.919 16.0931Z"
                fill="#D84F64" />
            <path
                d="M166.805 15.4382C166.805 16.7127 165.774 17.7468 164.502 17.7468C163.23 17.7468 162.199 16.7127 162.199 15.4382C162.199 14.1632 163.23 13.1291 164.502 13.1291C165.774 13.1291 166.805 14.1632 166.805 15.4382ZM208.655 57.1381C208.655 58.4132 207.624 59.4473 206.352 59.4473C205.08 59.4473 204.049 58.4132 204.049 57.1381C204.049 55.863 205.08 54.829 206.352 54.829C207.624 54.829 208.655 55.863 208.655 57.1381Z"
                fill="#D84F64" />
            <path d="M210.233 183.543H133.789L145.72 125.369H222.163L210.233 183.543Z"
                fill="#85A0D9" />
            <path
                d="M179.523 147.15H197.203L207.188 187.246C208.332 191.842 204.865 196.291 200.141 196.291H180.191L188.303 183.995L179.523 147.15Z"
                fill="#4251AB" />
            <path
                d="M179.523 147.15L188.667 185.526C189.975 191.017 185.823 196.291 180.191 196.291H154.999V191.767H180.615C183.11 191.767 184.959 189.443 184.403 187.005L175.325 147.15H179.523Z"
                fill="#2F2E67" />
            <path
                d="M145.72 125.369H149.476L137.273 183.543H133.789L145.72 125.369ZM167.502 132.026C168.165 132.026 168.665 132.63 168.542 133.283L166.582 143.694C166.488 144.195 166.051 144.558 165.543 144.558H165.36C164.689 144.558 164.188 143.942 164.323 143.283L166.466 132.873C166.567 132.38 167 132.026 167.502 132.026ZM171.735 132.026C172.398 132.026 172.898 132.63 172.776 133.283L170.816 143.694C170.722 144.195 170.285 144.558 169.776 144.558H169.594C168.923 144.558 168.422 143.942 168.557 143.283L170.699 132.873C170.801 132.38 171.233 132.026 171.735 132.026ZM175.969 132.026C176.632 132.026 177.131 132.63 177.009 133.283L175.049 143.694C174.955 144.195 174.518 144.558 174.01 144.558H173.827C173.157 144.558 172.655 143.942 172.791 143.283L174.933 132.873C175.034 132.38 175.467 132.026 175.969 132.026ZM180.203 132.026C180.866 132.026 181.366 132.63 181.242 133.283L179.284 143.694C179.19 144.195 178.752 144.558 178.244 144.558H178.061C177.391 144.558 176.889 143.942 177.025 143.283L179.166 132.873C179.268 132.38 179.701 132.026 180.203 132.026ZM184.436 132.026C185.099 132.026 185.599 132.63 185.476 133.283L183.517 143.694C183.423 144.195 182.986 144.558 182.478 144.558H182.294C181.624 144.558 181.123 143.942 181.258 143.283L183.4 132.873C183.502 132.38 183.935 132.026 184.436 132.026ZM188.67 132.026C189.333 132.026 189.833 132.63 189.709 133.283L187.751 143.694C187.656 144.195 187.22 144.558 186.711 144.558H186.528C185.858 144.558 185.357 143.942 185.492 143.283L187.634 132.873C187.735 132.38 188.168 132.026 188.67 132.026ZM192.904 132.026C193.567 132.026 194.067 132.63 193.944 133.283L191.985 143.694C191.89 144.195 191.453 144.558 190.944 144.558H190.762C190.092 144.558 189.59 143.942 189.726 143.283L191.867 132.873C191.969 132.38 192.402 132.026 192.904 132.026ZM197.138 132.026C197.801 132.026 198.301 132.63 198.177 133.283L196.218 143.694C196.123 144.195 195.687 144.558 195.178 144.558H194.995C194.325 144.558 193.824 143.942 193.959 143.283L196.101 132.873C196.202 132.38 196.636 132.026 197.138 132.026ZM201.371 132.026C202.034 132.026 202.534 132.63 202.411 133.283L200.452 143.694C200.357 144.195 199.921 144.558 199.412 144.558H199.229C198.559 144.558 198.058 143.942 198.193 143.283L200.335 132.873C200.436 132.38 200.869 132.026 201.371 132.026ZM205.605 132.026C206.269 132.026 206.768 132.63 206.645 133.283L204.686 143.694C204.591 144.195 204.154 144.558 203.646 144.558H203.463C202.793 144.558 202.292 143.942 202.427 143.283L204.569 132.873C204.67 132.38 205.103 132.026 205.605 132.026Z"
                fill="#6993D3" />
            <path
                d="M108.722 196.291H151.828V191.767H108.722V196.291ZM84.7299 196.291H104.523C104.523 196.291 104.008 188.197 97.2328 188.197C90.4567 188.197 84.7696 190.51 84.7299 196.291Z"
                fill="#85A0D9" />
            <path d="M222.163 207.75H-5.63269V196.484H222.163V207.75Z" fill="#252135" />
            <path
                d="M78.9361 196.484H2.91675L-3.43085 139.693C-3.96467 134.917 -0.236826 130.738 4.55638 130.738H59.2489C62.9903 130.738 66.1348 133.557 66.5518 137.285L78.9361 196.484Z"
                fill="#EC6E7F" />
            <path
                d="M4.55632 130.738C4.55632 130.738 -4.34258 131.538 -3.43091 139.693L2.91669 196.484H15.6183L8.9831 140.087C8.9831 140.087 7.52265 131.803 4.55632 130.738Z"
                fill="#D84F64" />
            <path
                d="M36.4711 136.765L20.0552 143.413C16.5065 144.849 13.9759 148.054 13.3948 151.847L8.03791 186.824C7.25986 191.904 11.1806 196.484 16.3076 196.484H83.087C89.4189 196.484 93.9741 190.384 92.1899 184.293L82.0012 149.513C81.0031 146.106 78.4069 143.4 75.0485 142.268L56.9897 136.184L53.0061 143.198L36.4711 136.765Z"
                fill="#4251AB" />
            <path
                d="M98.3235 144.227H114.46L108.36 184.817C107.182 192.632 103.5 195.388 98.1065 195.745L83.2938 196.726L98.3235 144.227Z"
                fill="#4251AB" />
            <path d="M96.3708 151.355H113.389L114.46 144.227H98.3235L96.3708 151.355Z"
                fill="#85A0D9" />
            <mask id="mask1_862_1318" style="mask-type:luminance" maskUnits="userSpaceOnUse" x="99"
                y="126" width="29" height="19">
                <path
                    d="M99.1998 144.227L103.552 135.123H120.472L123.573 128.179C123.947 127.362 124.761 126.837 125.659 126.837H127.411L124.204 138.714L114.124 140.88L113.731 144.227H99.1998Z"
                    fill="white" />
            </mask>
            <g mask="url(#mask1_862_1318)">
                <path
                    d="M99.1998 144.227L103.552 135.123H120.472L123.573 128.179C123.947 127.362 124.761 126.837 125.659 126.837H127.411L124.204 138.714L114.124 140.88L113.731 144.227H99.1998Z"
                    fill="url(#paint0_linear_862_1318)" />
            </g>
            <path
                d="M115.956 135.123L121.212 126.124C121.425 125.762 121.729 125.462 122.094 125.253C122.458 125.044 122.871 124.935 123.291 124.935H125.055L120.473 135.123H115.956Z"
                fill="#EB6367" />
            <path
                d="M120.779 126.837H118.9C117.885 126.837 116.943 127.367 116.416 128.236L112.226 135.123H115.956L120.779 126.837ZM109.084 135.123L106.259 130.823C105.577 129.77 104.411 129.134 103.158 129.134C102.602 129.134 102.194 129.658 102.33 130.199L103.613 135.123H109.084Z"
                fill="#EB6367" />
            <mask id="mask2_862_1318" style="mask-type:luminance" maskUnits="userSpaceOnUse" x="37"
                y="123" width="20" height="21">
                <path
                    d="M54.6578 123.917L56.9897 136.184L53.0061 143.198L37.167 132.579L38.8973 123.558C38.8973 123.558 40.1391 123.917 40.5965 123.917H54.6578Z"
                    fill="white" />
            </mask>
            <g mask="url(#mask2_862_1318)">
                <path
                    d="M54.6578 123.917L56.9897 136.184L53.0061 143.198L37.167 132.579L38.8973 123.558C38.8973 123.558 40.1391 123.917 40.5965 123.917H54.6578Z"
                    fill="url(#paint1_linear_862_1318)" />
            </g>
            <path
                d="M37.1669 132.579L36.104 138.972L58.3498 179.923L58.6136 140.536L56.9896 136.184L53.006 143.198L37.1669 132.579Z"
                fill="white" />
            <path
                d="M37.1669 132.579L34.446 148.945L53.0059 143.198L37.1669 132.579ZM56.9896 136.184L53.0059 143.198L61.7511 148.945L56.9896 136.184Z"
                fill="#85A0D9" />
            <path
                d="M53.0061 143.198L47.0786 145.033L50.042 149.627H55.6294L56.2522 145.331L53.0061 143.198Z"
                fill="#D84F64" />
            <path
                d="M50.042 149.627L50.3644 165.223L58.3499 179.923L58.6136 165.311L55.6294 149.627H50.042Z"
                fill="#D84F64" />
            <path
                d="M36.471 136.765L27.9652 140.21L34.4461 152.81L41.2091 153.862L38.6287 160.83L58.3499 179.923L36.104 136.184"
                fill="#2F2E67" />
            <path
                d="M56.9896 136.184L58.3499 179.923L63.8515 158.054L60.4206 153.627L63.8515 153.511L64.9512 138.866L56.9896 136.184ZM62.7341 99.0164L64.0767 114.851C64.0767 114.851 71.2717 115.028 70.126 105.863C69.0376 97.1609 62.7341 99.0164 62.7341 99.0164Z"
                fill="#2F2E67" />
            <path
                d="M64.719 98.882C64.719 98.882 63.5158 98.8296 62.7341 99.0164L64.0767 114.851C64.0767 114.851 65.1499 114.877 66.0446 114.508L64.719 98.882Z"
                fill="#4251AB" />
            <mask id="mask3_862_1318" style="mask-type:luminance" maskUnits="userSpaceOnUse" x="36"
                y="87" width="30" height="37">
                <path
                    d="M40.5965 87.8276H59.066C61.2622 87.8276 63.0937 89.5109 63.2843 91.704L65.6837 119.302C65.8994 121.784 63.9486 123.917 61.4647 123.917H40.5965C38.2577 123.917 36.3616 122.016 36.3616 119.671V92.0731C36.3616 89.7286 38.2577 87.8276 40.5965 87.8276Z"
                    fill="white" />
            </mask>
            <g mask="url(#mask3_862_1318)">
                <path
                    d="M40.5965 87.8276H59.066C61.2622 87.8276 63.0937 89.5109 63.2843 91.704L65.6837 119.302C65.8994 121.784 63.9486 123.917 61.4647 123.917H40.5965C38.2577 123.917 36.3616 122.016 36.3616 119.671V92.0731C36.3616 89.7286 38.2577 87.8276 40.5965 87.8276Z"
                    fill="url(#paint2_linear_862_1318)" />
            </g>
            <path
                d="M40.6533 105.143V96.1003C40.6533 95.3357 41.1977 94.6789 41.9479 94.5395L50.0489 93.0271C51.3593 92.7824 52.6962 93.2965 53.5082 94.3571L55.5499 97.0234C56.4609 98.2133 57.888 98.8909 59.3833 98.8429L64.4319 98.8341C67.0174 98.7515 69.0704 96.6259 69.0704 94.0322V88.0978C69.0704 86.8076 68.6326 85.5552 67.8288 84.5476L67.7499 84.4486C67.7499 84.4486 68.5752 79.1514 67.0893 77.1646C65.6029 75.1785 62.1354 82.4624 62.1354 82.4624L35.1477 82.1993C30.8637 82.1993 27.5321 85.9356 28.0112 90.2044L29.7529 105.725C29.9422 107.411 31.365 108.687 33.0578 108.687H37.1189C39.0708 108.687 40.6533 107.1 40.6533 105.143Z"
                fill="#252135" />
            <path
                d="M32.1635 102.813L30.7045 84.2308C30.5496 82.256 32.1063 80.5677 34.0821 80.5677H63.1347L62.1353 82.4623L36.7114 82.4472C34.7401 82.4472 33.1855 84.128 33.3333 86.0983L34.5469 102.269L32.1635 102.813Z"
                fill="#4251AB" />
            <path
                d="M36.3616 100.599V116.492C36.3616 116.492 27.5105 117.278 27.9652 108.049C28.3972 99.2859 36.3616 100.599 36.3616 100.599Z"
                fill="#2F2E67" />
            <path
                d="M33.9005 100.635C33.9005 100.635 35.3785 100.479 36.3616 100.599V116.492C36.3616 116.492 35.0416 116.609 33.9005 116.317V100.635Z"
                fill="#4251AB" />
            <path
                d="M33.9005 116.317L34.1837 118.879C34.3661 120.527 35.7548 121.773 37.4078 121.773H48.5183V119.925H39.3157C37.6417 119.925 36.5181 118.649 36.3616 116.978V116.491L33.9005 116.317Z"
                fill="#4251AB" />
            <path
                d="M50.7033 122.555H47.5203C46.6345 122.555 45.9165 121.838 45.9165 120.952V120.649C45.9165 119.764 46.6345 119.046 47.5203 119.046H50.7033C51.5885 119.046 52.3064 119.764 52.3064 120.649V120.952C52.3064 121.838 51.5885 122.555 50.7033 122.555Z"
                fill="#2F2E67" />
            <path
                d="M48.2091 113.811H59.076C59.076 113.811 57.8003 117.863 53.6426 117.863C49.6482 117.863 48.2091 113.811 48.2091 113.811Z"
                fill="white" />
            <path d="M54.6577 123.917L43.158 123.558L55.7738 129.787L54.6577 123.917Z"
                fill="#EB6367" />
            <path d="M73.6989 185.788L69.3304 172.812H72.1481L77.0068 186.542L73.6989 185.788Z"
                fill="#2F2E67" />
            <path
                d="M60.391 179.242L62.8201 196.484H16.4276C11.0222 196.484 6.92371 191.596 7.85381 186.258L10.8159 169.251L60.391 179.242Z"
                fill="#4251AB" />
            <path d="M53.006 177.754V196.484H62.8199L60.3909 179.242L53.006 177.754Z" fill="#85A0D9" />
            <path
                d="M31.8123 160.772L29.6884 173.409L60.0811 179.534L60.5575 182.917L61.2458 182.819L60.7007 178.95L30.4854 172.861L32.4976 160.888L31.8123 160.772Z"
                fill="#313593" />
            <mask id="mask4_862_1318" style="mask-type:luminance" maskUnits="userSpaceOnUse" x="60"
                y="182" width="23" height="15">
                <path
                    d="M60.9012 182.868L77.4843 186.651C78.683 186.925 79.5329 187.993 79.5329 189.225V190.25L80.425 190.429C81.6017 190.665 82.4483 191.7 82.4483 192.903V194.439H81.1852L81.3796 196.484H62.8199L60.9012 182.868Z"
                    fill="white" />
            </mask>
            <g mask="url(#mask4_862_1318)">
                <path
                    d="M60.9012 182.868L77.4843 186.651C78.683 186.925 79.5329 187.993 79.5329 189.225V190.25L80.425 190.429C81.6017 190.665 82.4483 191.7 82.4483 192.903V194.439H81.1852L81.3796 196.484H62.8199L60.9012 182.868Z"
                    fill="url(#paint3_linear_862_1318)" />
            </g>
            <path
                d="M74.4023 189.419L79.4547 190.588L79.6118 189.911L74.5588 188.742M75.0143 193.906L81.1361 194.783L81.2345 194.095L75.1128 193.218"
                fill="#EB6367" />
        </g>
    </g>
    <defs>
        <linearGradient id="paint0_linear_862_1318" x1="99.1998" y1="135.532" x2="127.411"
            y2="135.532" gradientUnits="userSpaceOnUse">
            <stop stop-color="#EC6367" />
            <stop offset="1" stop-color="#F8A0A0" />
        </linearGradient>
        <linearGradient id="paint1_linear_862_1318" x1="47.0516" y1="89.067" x2="47.0516"
            y2="138.477" gradientUnits="userSpaceOnUse">
            <stop stop-color="#EC6367" />
            <stop offset="1" stop-color="#F8A0A0" />
        </linearGradient>
        <linearGradient id="paint2_linear_862_1318" x1="51.0044" y1="89.0671" x2="51.0044"
            y2="138.477" gradientUnits="userSpaceOnUse">
            <stop stop-color="#EC6367" />
            <stop offset="1" stop-color="#F8A0A0" />
        </linearGradient>
        <linearGradient id="paint3_linear_862_1318" x1="82.4641" y1="190.457" x2="67.3644"
            y2="189.885" gradientUnits="userSpaceOnUse">
            <stop stop-color="#EC6367" />
            <stop offset="1" stop-color="#F8A0A0" />
        </linearGradient>
        <clipPath id="clip0_862_1318">
            <rect width="247.231" height="214" fill="white" transform="translate(-24 -6.25)" />
        </clipPath>
    </defs>
</svg>