<svg width="584" height="307" viewBox="0 0 584 307" fill="none" xmlns="http://www.w3.org/2000/svg">
<g clip-path="url(#clip0_412_33760)">
<path d="M568.906 306.107H15.0828C4.19041 306.107 -3.10261 294.905 1.30502 284.945C3.71802 279.492 9.11989 275.974 15.0828 275.974H568.906C574.869 275.974 580.271 279.492 582.684 284.945C587.091 294.905 579.799 306.107 568.906 306.107Z" fill="#58797C"/>
<path d="M116.912 289.853H44.3555V292.23H116.912V289.853ZM260.909 289.853H188.351V292.23H260.909V289.853ZM404.906 289.853H332.347V292.23H404.906V289.853ZM548.902 289.853H476.344V292.23H548.902V289.853Z" fill="#B4E6E4"/>
<path d="M441.965 231.746H293.07C289.887 231.746 287.306 229.166 287.306 225.981V5.76915C287.306 2.58656 289.887 0.0052948 293.07 0.0052948H441.965C445.148 0.0052948 447.729 2.58656 447.729 5.76915V225.981C447.729 229.166 445.148 231.746 441.965 231.746Z" fill="#F89B4F"/>
<path d="M338.57 99.8241L330.57 92.8697C329.273 91.7417 327.122 92.0603 325.685 93.595C322.219 97.2935 316.111 103.852 312.859 107.593C309.7 111.227 303.551 117.421 299.843 121.108C298.207 122.736 298.024 125.201 299.45 126.439L307.731 133.641C309.114 134.842 311.441 134.391 312.849 132.647C315.82 128.966 320.823 122.829 324.937 118.097C328.894 113.544 334.416 108.483 337.965 105.355C339.778 103.757 340.067 101.127 338.57 99.8241ZM390.682 129.605L406.664 125.236C409.256 124.528 410.488 120.66 409.466 116.449C406.996 106.299 402.589 88.3551 399.893 78.4927C397.275 68.9196 393.409 51.36 391.146 40.8296C390.147 36.1831 386.838 32.8552 383.992 33.6325L367.447 38.155C364.685 38.9097 363.497 43.2282 364.839 47.6481C367.669 56.9759 372.352 72.6168 375.761 85.0885C379.041 97.0869 381.812 112.236 383.417 121.82C384.236 126.718 387.692 130.422 390.682 129.605Z" fill="#F68C3F"/>
<path d="M514.242 231.371H423.011C419.445 231.371 416.556 228.482 416.556 224.917V133.687C416.556 130.123 419.445 127.233 423.011 127.233H514.242C517.806 127.233 520.695 130.123 520.695 133.687V224.917C520.695 228.482 517.806 231.371 514.242 231.371Z" fill="#F9B169"/>
<path d="M455.597 209.9L470.538 218.425C472.958 219.808 476.036 219.043 477.527 216.686C481.121 211.008 487.438 200.939 490.697 195.229C493.86 189.686 500.394 180.121 504.357 174.42C506.105 171.904 505.318 168.434 502.658 166.916L487.194 158.091C484.613 156.619 481.325 157.593 479.971 160.237C477.109 165.819 472.261 175.136 468.142 182.355C464.178 189.302 458.097 197.191 454.133 202.087C452.106 204.588 452.802 208.304 455.597 209.9Z" fill="#F89B4F"/>
<path d="M299.871 89.8538H185.528C182.05 89.8538 179.23 92.6737 179.23 96.1523V225.129C179.23 228.609 182.05 231.429 185.528 231.429H299.871C303.348 231.429 306.168 228.609 306.168 225.129V96.1523C306.168 92.6737 303.348 89.8538 299.871 89.8538Z" fill="#F9B169"/>
<path d="M226.585 173.865L239.923 181.477C242.086 182.712 244.834 182.027 246.166 179.925C249.375 174.853 255.016 165.863 257.925 160.764C260.749 155.816 266.584 147.275 270.122 142.184C271.682 139.938 270.981 136.839 268.605 135.483L254.798 127.603C252.492 126.287 249.558 127.159 248.347 129.519C245.794 134.505 241.465 142.823 237.785 149.271C234.245 155.472 228.815 162.516 225.276 166.888C223.468 169.121 224.089 172.441 226.585 173.865Z" fill="#F89B4F"/>
<path d="M521.308 206.099C519.527 203.076 517.788 199.406 518.671 196.929C519.104 195.723 520.1 195.005 520.888 194.034C522.228 192.378 523.016 189.901 522.998 187.229C523.012 183.345 521.084 178.977 523.186 175.725C524.788 173.308 528.21 172.32 530.726 170.177C533.315 167.984 534.771 164.845 536.967 161.988C538.688 158.671 554.47 146.928 560.697 148.916C563.338 149.972 559.803 153.736 557.08 156.388C555.156 158.204 553.264 160.061 551.496 162.031C550.714 162.901 550.005 163.824 549.274 164.731C548.581 165.589 547.846 166.286 547.452 167.362C548.229 167.437 548.9 166.869 549.616 166.557C550.533 166.157 551.577 166.174 552.572 166.282C553.225 166.353 553.886 166.465 554.472 166.766C555.054 167.066 555.557 167.585 555.698 168.229C555.837 168.87 555.536 169.621 554.929 169.873C554.093 170.221 553.2 169.565 552.304 169.429C551.605 169.324 550.864 169.564 550.358 170.057C550.154 170.254 549.986 170.493 549.749 170.646C549.324 170.922 548.761 170.882 548.314 171.12C547.549 171.522 547.398 172.533 546.937 173.265C546.638 173.739 546.198 174.106 545.812 174.513C544.007 176.408 544.012 178.693 543.653 181.118C543.267 183.737 542.677 186.362 541.376 188.694C540.32 190.623 538.885 192.17 538.323 194.235C537.415 197.715 538.935 201.593 538.829 205.368C538.795 207.497 538.332 209.509 537.719 211.184C536.216 215.204 533.828 216.938 531.13 216.459C527.467 215.807 524.639 211.664 521.308 206.099Z" fill="#14909E"/>
<path d="M528.639 215.428C528.621 215.149 528.604 214.871 528.589 214.592C528.603 214.583 528.615 214.573 528.628 214.564C528.632 214.852 528.635 215.14 528.639 215.428ZM529.285 195.406C529.801 191.993 530.569 188.581 531.643 185.155C532.041 183.893 532.504 182.637 532.992 181.37C533.486 180.083 534.031 178.816 534.627 177.573C535.229 176.309 535.868 175.036 536.59 173.772C537.31 172.505 538.062 171.228 538.92 169.961C542.29 164.88 546.678 159.756 552.758 154.675C549.89 157.284 547.408 159.883 545.25 162.479C544.706 163.125 544.181 163.773 543.67 164.417C543.168 165.064 542.681 165.711 542.208 166.354C541.257 167.64 540.393 168.932 539.573 170.212C537.956 172.781 536.548 175.325 535.383 177.874C535.089 178.505 534.803 179.139 534.525 179.777C534.259 180.412 534 181.046 533.753 181.679C533.263 182.949 532.8 184.207 532.399 185.471C531.592 188.001 530.917 190.507 530.417 193.023C530.273 193.727 530.132 194.429 530.004 195.13C529.759 195.211 529.517 195.299 529.285 195.406Z" fill="#51C5C0"/>
<path d="M527.575 202.616C527.064 200.019 527.004 197.136 528.559 195.852C529.314 195.229 530.304 195.091 531.204 194.71C532.744 194.059 534.114 192.636 535.049 190.819C536.415 188.177 536.857 184.679 539.516 182.99C541.511 181.734 544.013 181.906 546.36 180.999C548.774 180.07 550.906 178.145 553.382 176.562C555.824 174.65 569.698 169.173 571.69 171.888C572.442 173.246 568.945 175.433 566.41 176.866C563.759 178.336 561.107 179.827 558.642 181.593C557.516 182.399 556.426 183.265 555.426 184.226C554.721 184.902 553.241 186.096 553.062 187.102C553.553 187.383 554.173 187.258 554.702 187.059C555.23 186.861 555.757 186.591 556.321 186.603C556.973 186.617 557.574 187.003 558.225 187.003C558.753 187.003 559.246 186.753 559.733 186.502C560.318 186.201 560.894 185.899 561.516 186.032C561.721 186.077 561.938 186.194 561.987 186.399C562.018 186.525 561.978 186.657 561.931 186.777C561.589 187.659 560.778 188.345 559.852 188.539C559.14 188.689 558.401 188.565 557.673 188.555C556.945 188.546 556.149 188.689 555.672 189.238C555.438 189.506 555.302 189.845 555.058 190.102C554.632 190.55 553.97 190.657 553.361 190.763C552.532 190.907 551.697 191.101 550.961 191.508C549.933 192.078 549.36 193.151 548.745 194.108C547.981 195.293 547.147 196.443 546.123 197.418C544.951 198.539 543.66 199.229 542.756 200.565C541.255 202.815 541.245 206.204 540.396 209.002C539.928 210.576 539.251 211.898 538.54 212.873C536.836 215.223 534.869 215.253 532.808 213.604C530.016 211.356 528.498 207.392 527.575 202.616Z" fill="#26B1AA"/>
<path d="M532.784 206.884C532.823 206.585 532.851 206.281 532.871 205.972C533.124 205.335 533.39 204.698 533.668 204.06C533.854 203.64 534.043 203.223 534.24 202.804C534.44 202.393 534.648 201.98 534.86 201.568C536.553 198.263 538.705 195.06 541.375 191.926C542.044 191.145 542.756 190.379 543.492 189.607C544.228 188.834 545.001 188.07 545.817 187.319C546.633 186.567 547.477 185.808 548.37 185.073C549.264 184.334 550.185 183.587 551.162 182.87C555.053 179.966 559.606 177.168 565.027 174.62C562.373 175.982 559.93 177.385 557.68 178.83C557.123 179.185 556.569 179.545 556.018 179.91C555.478 180.274 554.948 180.639 554.426 181.005C553.384 181.731 552.392 182.475 551.432 183.217C549.522 184.708 547.758 186.203 546.154 187.739C545.753 188.122 545.359 188.503 544.972 188.884C544.588 189.27 544.212 189.657 543.845 190.043C543.113 190.819 542.407 191.587 541.741 192.372C540.408 193.942 539.188 195.507 538.103 197.111C537.557 197.908 537.029 198.695 536.543 199.504C536.061 200.301 535.598 201.107 535.152 201.924C534.934 202.325 534.72 202.728 534.511 203.134C534.308 203.54 534.11 203.949 533.915 204.359C533.531 205.165 533.165 205.98 532.818 206.803C532.807 206.831 532.795 206.857 532.784 206.884Z" fill="#82D4C6"/>
<path d="M518.408 211.427C516.047 209.502 513.194 206.687 512.269 203.662C511.83 202.187 511.985 200.904 511.897 199.514C511.738 197.138 510.767 194.363 509.013 191.863C506.514 188.232 502.115 185.05 500.931 181.145C500.076 178.241 501.585 175.894 501.602 172.98C501.619 169.996 499.945 166.749 498.896 163.516C497.258 159.868 497.005 144.907 504.43 144.362C507.89 144.21 509.061 148.276 509.477 151.332C509.926 155.001 510.427 158.697 511.533 162.237C512.375 164.94 513.42 168.678 516.09 170.093C516.415 170.266 516.836 170.4 517.128 170.177C517.38 169.984 517.407 169.621 517.41 169.302C517.428 167.658 517.447 166.012 517.467 164.367C517.48 163.144 517.544 161.792 518.396 160.915C518.836 160.461 519.432 160.2 520.03 159.991C521.246 159.564 522.932 159.497 523.482 160.665C524.238 162.271 521.852 164.02 522.435 165.697C522.63 166.255 523.144 166.732 523.082 167.317C523.023 167.865 522.486 168.224 522.238 168.716C521.683 169.812 522.671 171.012 523.052 172.178C523.526 173.626 523.032 175.185 522.815 176.693C522.483 178.972 522.964 180.93 523.588 183.091C524.212 185.259 523.871 187.636 524.682 189.795C525.984 193.243 529.437 195.552 531.235 198.679C532.259 200.445 532.745 202.415 532.869 204.276C533.139 208.729 531.272 212.412 528.963 214.307C525.806 216.889 522.851 214.979 518.408 211.427Z" fill="#30BAB7"/>
<path d="M526.718 215.421C526.235 214.223 525.741 213.029 525.238 211.839C524.734 210.639 524.198 209.438 523.671 208.226C523.145 207.002 522.609 205.782 522.063 204.567C521.788 203.955 521.511 203.341 521.231 202.727C520.958 202.111 520.683 201.492 520.405 200.872C518.159 195.917 515.855 190.841 513.605 185.607C513.046 184.298 512.513 182.977 511.966 181.646C511.414 180.313 510.884 178.97 510.377 177.62C509.867 176.265 509.351 174.901 508.881 173.518C508.407 172.137 507.923 170.746 507.505 169.337C505.778 163.703 504.389 157.835 504.065 151.64C504.438 154.725 505.018 157.727 505.753 160.659C505.932 161.392 506.117 162.121 506.308 162.845C506.505 163.569 506.708 164.291 506.916 165.008C507.32 166.442 507.774 167.858 508.226 169.264C509.157 172.07 510.127 174.825 511.181 177.526C511.438 178.203 511.698 178.877 511.957 179.548C512.225 180.217 512.491 180.884 512.759 181.549C513.302 182.877 513.829 184.196 514.382 185.503C515.483 188.119 516.563 190.698 517.675 193.239C518.225 194.51 518.75 195.778 519.298 197.032C519.842 198.287 520.377 199.536 520.901 200.78C521.162 201.4 521.423 202.02 521.679 202.639C521.942 203.256 522.202 203.872 522.458 204.487C522.968 205.717 523.466 206.941 523.95 208.162C524.919 210.602 525.874 213.012 526.718 215.421Z" fill="#8BD8CE"/>
<path d="M537.924 231.422H514.363C513.863 231.422 513.377 231.251 512.987 230.936C512.597 230.622 512.327 230.184 512.221 229.694L507.045 205.808C506.75 204.443 507.79 203.153 509.187 203.153H543.1C544.497 203.153 545.537 204.443 545.243 205.808L540.067 229.694C539.96 230.184 539.69 230.622 539.3 230.936C538.91 231.251 538.425 231.422 537.924 231.422Z" fill="#F24D72"/>
<path d="M507.619 208.457C508.014 208.048 508.561 207.78 509.187 207.78H543.1C543.727 207.78 544.273 208.048 544.668 208.457L545.243 205.808C545.537 204.443 544.497 203.153 543.1 203.153H509.187C507.79 203.153 506.75 204.443 507.045 205.808L507.619 208.457Z" fill="#F46686"/>
<path d="M540.527 225.856H511.759C511.633 225.856 511.507 225.844 511.383 225.83L512.221 229.694C512.327 230.184 512.597 230.622 512.987 230.936C513.377 231.251 513.862 231.422 514.363 231.422H537.924C538.425 231.422 538.91 231.251 539.3 230.936C539.69 230.622 539.96 230.184 540.067 229.694L540.904 225.83C540.78 225.844 540.655 225.856 540.527 225.856Z" fill="#F14165"/>
<path d="M477.207 229.429H409.943V149.48H477.207V229.429Z" fill="#FBCBA0"/>
<path d="M411.943 227.429H475.207V151.482H411.943V227.429ZM479.207 231.429H407.943V147.482H479.207V231.429Z" fill="#27243E"/>
<path d="M468.65 219.256H418.501V159.653H468.65V219.256Z" fill="#FABB83"/>
<path d="M419.17 218.589H467.983V160.32H419.17V218.589ZM469.316 219.923H417.836V158.987H469.316V219.923Z" fill="#27243E"/>
<path d="M477.207 229.429H409.943V149.48H477.207V229.429Z" fill="#FBCBA0"/>
<path d="M411.943 227.429H475.207V151.482H411.943V227.429ZM479.207 231.429H407.943V147.482H479.207V231.429Z" fill="#27243E"/>
<path d="M468.65 219.256H418.501V159.653H468.65V219.256Z" fill="#FABB83"/>
<path d="M419.17 218.589H467.983V160.32H419.17V218.589ZM469.316 219.923H417.836V158.987H469.316V219.923Z" fill="#27243E"/>
<path d="M492.404 189.112V230.206H443.56V189.112H492.404Z" fill="#FBCBA0"/>
<path d="M491.182 228.985V190.334H444.781V228.985H491.182ZM493.626 187.89V231.429H442.338V187.89H493.626Z" fill="#F24D72"/>
<path d="M486.189 194.34V224.977H449.774V194.34H486.189Z" fill="#FABB83"/>
<path d="M485.781 224.569V194.747H450.182V224.569H485.781ZM486.596 193.932V225.385H449.367V193.932H486.596Z" fill="#F24D72"/>
<path d="M496.535 118.118C499.086 115.566 502.657 114.73 505.69 115.668V85.7912C502.657 86.7285 499.086 85.8925 496.535 83.3406C493.993 80.8006 493.154 77.246 494.074 74.2221H433.744C434.662 77.246 433.822 80.8006 431.282 83.3406C428.84 85.7832 425.462 86.6538 422.519 85.9032V115.557C425.462 114.805 428.84 115.676 431.282 118.118C433.822 120.658 434.662 124.212 433.744 127.235H494.074C493.154 124.212 493.994 120.658 496.535 118.118Z" fill="#30BAB7"/>
<path d="M499.725 122.89V127.202H428.444V122.89H499.725Z" fill="#26B1AA"/>
<path d="M499.725 74.2221V77.2074H428.444V74.2221H499.725Z" fill="#5CC9D2"/>
<path d="M488.692 127.214H484.38V74.2221H488.692V127.214ZM443.789 127.214H439.479V74.2221H443.789V127.214Z" fill="#27243E"/>
<path d="M431.308 83.5339C433.848 80.9926 434.688 77.438 433.767 74.4128H428.475C425.199 74.4128 422.543 77.0701 422.543 80.3446V86.0938C425.487 86.8458 428.865 85.9752 431.308 83.5339ZM431.308 118.118C428.865 115.676 425.487 114.805 422.543 115.557V121.304C422.543 124.58 425.199 127.235 428.475 127.235H433.768C434.688 124.212 433.848 120.658 431.308 118.118ZM496.56 83.5339C499.11 86.0845 502.682 86.9205 505.713 85.9845V80.3446C505.713 77.0701 503.058 74.4128 499.782 74.4128H494.099C493.179 77.438 494.019 80.9926 496.56 83.5339ZM505.713 121.288V115.65C502.682 114.714 499.11 115.55 496.56 118.102C494.02 120.642 493.18 124.194 494.097 127.219H499.782C503.058 127.219 505.713 124.564 505.713 121.288Z" fill="#14909E"/>
<path d="M476.307 71.8315H476.103V68.0076C476.103 66.2557 474.683 64.8357 472.931 64.8357H455.289C453.538 64.8357 452.117 66.2557 452.117 68.0076V71.8315H452.065C451.506 71.8315 451.052 72.2848 451.052 72.8448V74.2221H457.005V72.8448C457.005 72.2848 456.551 71.8315 455.991 71.8315H455.941V69.3649C455.941 68.6876 456.49 68.1383 457.169 68.1383H471.051C471.73 68.1383 472.279 68.6876 472.279 69.3649V71.8515C471.77 71.9049 471.367 72.3208 471.367 72.8448V74.2221H477.32V72.8448C477.32 72.2848 476.867 71.8315 476.307 71.8315ZM445.138 72.5488H438.129C437.347 72.5488 436.712 73.1822 436.712 73.9648V74.2221H446.554V73.9648C446.554 73.1822 445.921 72.5488 445.138 72.5488ZM490.04 72.5488H483.032C482.249 72.5488 481.615 73.1822 481.615 73.9648V74.2221H491.457V73.9648C491.457 73.1822 490.823 72.5488 490.04 72.5488Z" fill="#27243E"/>
<path d="M401.441 157.319H316.384L314.632 154.689C313.82 153.475 314.694 151.846 316.154 151.846H401.671C403.134 151.846 404.005 153.475 403.194 154.689L401.441 157.319Z" fill="#F2A76F"/>
<path d="M403.443 154.125C403.727 153.025 402.917 151.846 401.671 151.846H316.153C314.911 151.846 314.097 153.025 314.381 154.125H403.443ZM316.269 157.319V230.746H325.278C325.593 230.746 325.848 230.492 325.848 230.177V228.194C325.848 225.516 328.373 223.571 330.968 224.231C336.833 225.726 347.163 227.825 358.914 227.825C370.663 227.825 380.993 225.726 386.86 224.231C389.453 223.571 391.978 225.516 391.978 228.194V230.177C391.978 230.328 392.038 230.473 392.144 230.579C392.251 230.686 392.395 230.746 392.546 230.746H401.555V157.319H316.269Z" fill="#FBCBA0"/>
<path d="M401.555 190.384H316.27V189.243H401.555V190.384ZM401.555 219.686H316.27V218.547H401.555V219.686Z" fill="#F2A76F"/>
<path d="M390.724 180.236H327.101V167.01H390.724V180.236ZM391.713 164.957H326.112C325.525 164.957 325.049 165.435 325.049 166.02V181.227C325.049 181.813 325.525 182.289 326.112 182.289H391.713C392.301 182.289 392.776 181.813 392.776 181.227V166.02C392.776 165.435 392.301 164.957 391.713 164.957Z" fill="#F24D72"/>
<path d="M362.587 175.789H355.239C354.246 175.789 353.439 174.985 353.439 173.991V173.256C353.439 172.262 354.246 171.457 355.239 171.457H362.587C363.58 171.457 364.386 172.262 364.386 173.257V173.991C364.386 174.985 363.58 175.789 362.587 175.789ZM390.724 211.705H327.101V198.479H390.724V211.705ZM391.713 196.427H326.112C325.525 196.427 325.049 196.902 325.049 197.49V212.695C325.049 213.283 325.525 213.757 326.112 213.757H391.713C392.301 213.757 392.776 213.283 392.776 212.695V197.49C392.776 197.35 392.749 197.212 392.695 197.083C392.642 196.954 392.564 196.837 392.465 196.738C392.366 196.639 392.249 196.561 392.12 196.508C391.991 196.454 391.853 196.427 391.713 196.427Z" fill="#F24D72"/>
<path d="M362.587 207.259H355.239C354.246 207.259 353.439 206.453 353.439 205.459V204.726C353.439 203.732 354.246 202.926 355.239 202.926H362.587C363.58 202.926 364.385 203.732 364.385 204.726V205.459C364.385 206.453 363.58 207.259 362.587 207.259Z" fill="#F24D72"/>
<path d="M29.3955 228.676V266.779C29.3955 272.576 34.0954 277.275 39.8931 277.275H41.254V268.416C41.254 251.367 55.0745 237.546 72.1235 237.546H74.0636L70.6731 277.275H72.1835L84.4675 228.676H29.3955Z" fill="#30BAB7"/>
<path d="M41.2544 237.546V277.275H70.6735L71.2432 270.589L71.6416 265.927L73.3453 245.975L73.7437 241.313L74.064 237.546H41.2544Z" fill="#5CC9D2"/>
<path d="M41.2544 246.646V251.308H73.3453L73.7437 246.646H41.2544ZM41.2544 259.38V264.043H71.2432L71.6416 259.38H41.2544Z" fill="#14909E"/>
<path d="M179.23 103.673V215.404H92.5121L75.86 228.67H30.4346V201.738C30.4346 194.164 30.5674 186.578 30.5939 179.017C30.6346 167.578 30.0746 156.205 34.7678 145.432C35.6203 143.486 36.6203 141.646 37.7807 139.912C40.8608 135.246 44.9269 131.286 49.5538 127.953C50.3403 127.379 51.1543 126.833 51.9674 126.299C57.5932 122.633 63.8868 119.78 70.1793 117.58C84.7665 112.486 100.299 109.86 114.059 102.82C122.112 98.7135 128.486 92.4737 135.978 87.7538C144.204 82.5806 151.991 76.9007 160.765 72.5941C169.004 68.5676 178.95 74.2875 178.95 84.0206V103.673H179.23Z" fill="#5CC9D2"/>
<path d="M151.44 59.0839L165.616 48.4535V215.665H151.44V59.0839ZM56.4469 214.431C56.4469 216.431 55.6339 218.244 54.3136 219.564C52.9939 220.884 51.1674 221.697 49.1674 221.697H30.4346V207.151H49.1674C53.1797 207.151 56.4469 210.417 56.4469 214.431Z" fill="#27243E"/>
<path d="M132.483 155.524V161.777C132.483 168.79 127.816 174.937 121.056 176.817L98.1632 183.163L69.5645 191.123L69.351 191.177L60.6048 193.603L60.0981 193.736L48.5515 196.95L45.8453 197.696L39.7918 199.376L36.3913 200.323L30.4321 201.976V163.204C30.552 161.697 30.7389 160.177 31.0457 158.604C31.9253 154.111 32.9389 149.618 34.7654 145.431C35.6189 143.484 36.6189 141.644 37.7783 139.911H116.883C125.496 139.911 132.483 146.911 132.483 155.524Z" fill="#8DD9D8"/>
<path d="M88.1237 139.911L69.5643 191.123L69.3508 191.177L60.6046 193.603L60.0979 193.736L79.6176 139.911H88.1237ZM66.7909 139.911L45.8451 197.696L39.7916 199.376L36.3911 200.323L58.2848 139.911H66.7909Z" fill="#B4E6E4"/>
<path d="M143.058 141.006V215.404H141.391V141.006C141.391 133.806 135.538 127.953 128.339 127.953H49.5542C50.3407 127.379 51.1547 126.833 51.9677 126.299H128.339C136.459 126.299 143.058 132.899 143.058 141.006Z" fill="#14909E"/>
<path d="M98.168 139.919V183.172L121.056 176.815C127.815 174.941 132.489 168.789 132.489 161.777V155.527C132.489 146.91 125.503 139.919 116.88 139.919H98.168ZM120.761 187.839H132.489V184.827H120.761V187.839Z" fill="#27243E"/>
<path d="M147.31 266.424H563.363L562.654 246.231C562.366 237.974 555.587 231.429 547.322 231.429H135.73L146.463 251.904L147.31 266.424Z" fill="#5CC9D2"/>
<path d="M147.31 258.424L146.463 243.904L139.923 231.429H135.73L146.463 251.904L147.31 266.424H563.363L563.083 258.424H147.31Z" fill="#30BAB7"/>
<path d="M190.515 242.633V255.566C190.515 262.458 194.126 268.482 199.559 271.868C200.792 272.649 202.111 273.274 203.517 273.743C205.461 274.42 207.563 274.785 209.732 274.785H258.584C260.755 274.785 262.855 274.42 264.8 273.743C266.207 273.274 267.525 272.649 268.759 271.868C274.192 268.482 277.802 262.458 277.802 255.566V242.633C277.802 235.758 274.192 229.733 268.759 226.331C267.525 225.55 266.207 224.925 264.8 224.456C262.855 223.78 260.755 223.414 258.584 223.414H209.732C207.563 223.414 205.461 223.78 203.517 224.456C202.111 224.925 200.792 225.55 199.559 226.331C194.126 229.733 190.515 235.758 190.515 242.633Z" fill="#2BB9C4"/>
<path d="M264.8 224.456V273.743C266.207 273.274 267.525 272.649 268.759 271.868V226.331C267.525 225.55 266.207 224.925 264.8 224.456ZM232.18 223.414V274.785H236.138V223.414H232.18Z" fill="#5CC9D2"/>
<path d="M203.518 273.743C202.111 273.274 200.792 272.649 199.559 271.868L203.518 273.743Z" fill="#27243E"/>
<path d="M199.559 226.331V271.868C200.792 272.649 202.111 273.274 203.518 273.743V224.456C202.111 224.925 200.792 225.55 199.559 226.331Z" fill="#5CC9D2"/>
<path d="M450.785 265.932H538.822C538.822 241.661 519.076 221.913 494.804 221.913C470.532 221.913 450.785 241.661 450.785 265.932Z" fill="#14909E"/>
<path d="M464.3 263.72C464.3 280.566 477.957 294.223 494.804 294.223C511.648 294.223 525.307 280.566 525.307 263.72C525.307 246.874 511.648 233.217 494.804 233.217C477.957 233.217 464.3 246.874 464.3 263.72Z" fill="#27243E"/>
<path d="M518.962 263.72C518.871 250.485 508.038 239.652 494.804 239.563C493.966 239.557 493.964 238.254 494.804 238.261C501.533 238.306 508.037 240.949 512.806 245.718C517.576 250.487 520.216 256.991 520.263 263.72C520.268 264.559 518.967 264.56 518.962 263.72ZM469.927 264.437C470.019 277.673 480.851 288.505 494.086 288.595C494.924 288.601 494.926 289.902 494.086 289.896C487.357 289.851 480.853 287.21 476.083 282.441C471.313 277.672 468.672 271.168 468.626 264.437C468.62 263.6 469.923 263.599 469.927 264.437Z" fill="#B4E6E4"/>
<path d="M479.093 263.72C479.093 272.397 486.126 279.43 494.804 279.43C503.479 279.43 510.512 272.397 510.512 263.72C510.512 255.044 503.479 248.01 494.804 248.01C486.126 248.01 479.093 255.044 479.093 263.72Z" fill="#B4E6E4"/>
<path d="M490.429 263.72C490.429 266.135 492.388 268.093 494.804 268.093C497.218 268.093 499.177 266.135 499.177 263.72C499.177 261.304 497.218 259.346 494.804 259.346C492.388 259.346 490.429 261.304 490.429 263.72ZM492.794 253.485C492.794 254.595 493.694 255.495 494.804 255.495C495.913 255.495 496.813 254.595 496.813 253.485C496.813 252.375 495.913 251.475 494.804 251.475C493.694 251.475 492.794 252.375 492.794 253.485ZM486.145 257.903C486.929 258.688 488.202 258.688 488.986 257.903C489.77 257.119 489.77 255.846 488.986 255.063C488.202 254.278 486.929 254.278 486.145 255.063C485.36 255.846 485.36 257.119 486.145 257.903ZM484.568 265.73C485.677 265.73 486.577 264.83 486.577 263.72C486.577 262.611 485.677 261.711 484.568 261.711C483.459 261.711 482.559 262.611 482.559 263.72C482.559 264.83 483.459 265.73 484.568 265.73ZM488.986 272.379C489.77 271.593 489.77 270.321 488.986 269.537C488.202 268.752 486.929 268.752 486.145 269.537C485.36 270.321 485.36 271.593 486.145 272.379C486.929 273.164 488.202 273.164 488.986 272.379ZM496.813 273.955C496.813 272.845 495.913 271.946 494.804 271.946C493.694 271.946 492.794 272.845 492.794 273.955C492.794 275.065 493.694 275.965 494.804 275.965C495.913 275.965 496.813 275.065 496.813 273.955ZM503.462 269.537C502.677 268.752 501.405 268.752 500.619 269.537C499.834 270.321 499.834 271.593 500.619 272.379C501.405 273.164 502.677 273.164 503.462 272.379C504.246 271.593 504.246 270.321 503.462 269.537ZM505.038 261.711C503.927 261.711 503.029 262.611 503.029 263.72C503.029 264.83 503.927 265.73 505.038 265.73C506.149 265.73 507.047 264.83 507.047 263.72C507.047 262.611 506.149 261.711 505.038 261.711ZM500.619 255.063C499.834 255.846 499.834 257.119 500.619 257.903C501.405 258.688 502.677 258.688 503.462 257.903C504.246 257.119 504.246 255.846 503.462 255.063C502.677 254.278 501.405 254.278 500.619 255.063Z" fill="#27243E"/>
<path d="M450.785 265.932H458.223C458.223 245.763 474.633 229.353 494.804 229.353C514.975 229.353 531.384 245.763 531.384 265.932H538.822C538.822 241.661 519.076 221.913 494.804 221.913C470.532 221.913 450.785 241.661 450.785 265.932Z" fill="#27243E"/>
<path d="M282.541 265.932H370.579C370.579 241.661 350.831 221.913 326.559 221.913C302.287 221.913 282.541 241.661 282.541 265.932Z" fill="#14909E"/>
<path d="M296.055 263.72C296.055 280.566 309.712 294.223 326.558 294.223C343.406 294.223 357.062 280.566 357.062 263.72C357.062 246.874 343.406 233.217 326.558 233.217C309.712 233.217 296.055 246.874 296.055 263.72Z" fill="#27243E"/>
<path d="M350.717 263.72C350.626 250.485 339.794 239.652 326.559 239.563C325.721 239.557 325.72 238.254 326.559 238.261C333.289 238.306 339.793 240.949 344.562 245.718C349.331 250.487 351.973 256.991 352.019 263.72C352.025 264.559 350.722 264.56 350.717 263.72ZM301.684 264.437C301.774 277.673 312.606 288.505 325.841 288.595C326.68 288.601 326.681 289.902 325.841 289.896C319.112 289.851 312.608 287.21 307.839 282.441C303.07 277.672 300.429 271.168 300.382 264.437C300.377 263.6 301.678 263.599 301.684 264.437Z" fill="#B4E6E4"/>
<path d="M310.85 263.72C310.85 272.397 317.883 279.43 326.559 279.43C335.236 279.43 342.268 272.397 342.268 263.72C342.268 255.044 335.236 248.01 326.559 248.01C317.883 248.01 310.85 255.044 310.85 263.72Z" fill="#B4E6E4"/>
<path d="M322.185 263.72C322.185 266.135 324.144 268.093 326.559 268.093C328.975 268.093 330.932 266.135 330.932 263.72C330.932 261.304 328.975 259.346 326.559 259.346C324.144 259.346 322.185 261.304 322.185 263.72ZM324.549 253.485C324.549 254.595 325.449 255.495 326.559 255.495C327.669 255.495 328.569 254.595 328.569 253.485C328.569 252.375 327.669 251.475 326.559 251.475C325.449 251.475 324.549 252.375 324.549 253.485ZM317.9 257.903C318.686 258.688 319.957 258.688 320.743 257.903C321.528 257.119 321.528 255.846 320.743 255.063C319.957 254.278 318.686 254.278 317.9 255.063C317.116 255.846 317.116 257.119 317.9 257.903ZM316.323 265.73C317.434 265.73 318.334 264.83 318.334 263.72C318.334 262.611 317.434 261.711 316.323 261.711C315.214 261.711 314.315 262.611 314.315 263.72C314.315 264.83 315.214 265.73 316.323 265.73ZM320.743 272.379C321.528 271.593 321.528 270.321 320.743 269.537C319.957 268.752 318.686 268.752 317.9 269.537C317.116 270.321 317.116 271.593 317.9 272.379C318.686 273.164 319.957 273.164 320.743 272.379ZM328.569 273.955C328.569 272.845 327.669 271.946 326.559 271.946C325.449 271.946 324.549 272.845 324.549 273.955C324.549 275.065 325.449 275.965 326.559 275.965C327.669 275.965 328.569 275.065 328.569 273.955ZM335.217 269.537C334.432 268.752 333.16 268.752 332.376 269.537C331.592 270.321 331.592 271.593 332.376 272.379C333.16 273.164 334.432 273.164 335.217 272.379C336.002 271.593 336.002 270.321 335.217 269.537ZM336.794 261.711C335.685 261.711 334.785 262.611 334.785 263.72C334.785 264.83 335.685 265.73 336.794 265.73C337.904 265.73 338.804 264.83 338.804 263.72C338.804 262.611 337.904 261.711 336.794 261.711ZM332.376 255.063C331.592 255.846 331.592 257.119 332.376 257.903C333.16 258.688 334.432 258.688 335.217 257.903C336.002 257.119 336.002 255.846 335.217 255.063C334.432 254.278 333.16 254.278 332.376 255.063Z" fill="#27243E"/>
<path d="M282.541 265.932H289.979C289.979 245.763 306.388 229.353 326.559 229.353C346.73 229.353 363.14 245.763 363.14 265.932H370.579C370.579 241.661 350.831 221.913 326.559 221.913C302.287 221.913 282.541 241.661 282.541 265.932Z" fill="#27243E"/>
<path d="M65.4443 265.932H153.483C153.483 241.661 133.737 221.913 109.464 221.913C85.1917 221.913 65.4443 241.661 65.4443 265.932Z" fill="#14909E"/>
<path d="M78.96 263.72C78.96 280.566 92.6169 294.223 109.463 294.223C126.31 294.223 139.966 280.566 139.966 263.72C139.966 246.874 126.31 233.217 109.463 233.217C92.6169 233.217 78.96 246.874 78.96 263.72Z" fill="#27243E"/>
<path d="M133.621 263.72C133.53 250.485 122.699 239.652 109.464 239.563C108.626 239.557 108.624 238.254 109.464 238.261C116.193 238.306 122.697 240.949 127.466 245.718C132.237 250.487 134.877 256.991 134.924 263.72C134.929 264.559 133.628 264.56 133.621 263.72ZM84.5888 264.437C84.6788 277.673 95.5109 288.505 108.746 288.595C109.584 288.601 109.585 289.902 108.746 289.896C102.016 289.851 95.5124 287.21 90.7433 282.441C85.9736 277.672 83.3326 271.168 83.2862 264.437C83.2804 263.6 84.5825 263.599 84.5888 264.437Z" fill="#B4E6E4"/>
<path d="M93.7539 263.72C93.7539 272.397 100.787 279.43 109.463 279.43C118.139 279.43 125.172 272.397 125.172 263.72C125.172 255.044 118.139 248.01 109.463 248.01C100.787 248.01 93.7539 255.044 93.7539 263.72Z" fill="#B4E6E4"/>
<path d="M105.089 263.72C105.089 266.135 107.048 268.093 109.463 268.093C111.878 268.093 113.837 266.135 113.837 263.72C113.837 261.304 111.878 259.346 109.463 259.346C107.048 259.346 105.089 261.304 105.089 263.72ZM107.453 253.485C107.453 254.595 108.353 255.495 109.463 255.495C110.573 255.495 111.473 254.595 111.473 253.485C111.473 252.375 110.573 251.475 109.463 251.475C108.353 251.475 107.453 252.375 107.453 253.485ZM100.805 257.903C101.589 258.688 102.862 258.688 103.647 257.903C104.432 257.119 104.432 255.846 103.647 255.063C102.862 254.278 101.589 254.278 100.805 255.063C100.02 255.846 100.02 257.119 100.805 257.903ZM99.2276 265.73C100.338 265.73 101.237 264.83 101.237 263.72C101.237 262.611 100.338 261.711 99.2276 261.711C98.1177 261.711 97.2188 262.611 97.2188 263.72C97.2188 264.83 98.1177 265.73 99.2276 265.73ZM103.647 272.379C104.432 271.593 104.432 270.321 103.647 269.537C102.862 268.752 101.589 268.752 100.805 269.537C100.02 270.321 100.02 271.593 100.805 272.379C101.589 273.164 102.862 273.164 103.647 272.379ZM111.473 273.955C111.473 272.845 110.573 271.946 109.463 271.946C108.353 271.946 107.453 272.845 107.453 273.955C107.453 275.065 108.353 275.965 109.463 275.965C110.573 275.965 111.473 275.065 111.473 273.955ZM118.122 269.537C117.337 268.752 116.065 268.752 115.279 269.537C114.495 270.321 114.495 271.593 115.279 272.379C116.065 273.164 117.337 273.164 118.122 272.379C118.906 271.593 118.906 270.321 118.122 269.537ZM119.698 261.711C118.589 261.711 117.689 262.611 117.689 263.72C117.689 264.83 118.589 265.73 119.698 265.73C120.809 265.73 121.708 264.83 121.708 263.72C121.708 262.611 120.809 261.711 119.698 261.711ZM115.279 255.063C114.495 255.846 114.495 257.119 115.279 257.903C116.065 258.688 117.337 258.688 118.122 257.903C118.906 257.119 118.906 255.846 118.122 255.063C117.337 254.278 116.065 254.278 115.279 255.063Z" fill="#27243E"/>
<path d="M65.4443 265.932H72.8837C72.8837 245.763 89.2932 229.353 109.464 229.353C129.634 229.353 146.044 245.763 146.044 265.932H153.483C153.483 241.661 133.737 221.913 109.464 221.913C85.1917 221.913 65.4443 241.661 65.4443 265.932Z" fill="#27243E"/>
<path d="M363.606 147.191C363.606 143.667 365.969 143.668 365.983 143.667C365.92 143.095 365.435 142.66 364.859 142.66H322.104C320.145 142.66 318.555 144.25 318.555 146.211V148.171C318.555 150.131 320.145 151.722 322.105 151.722H364.859C365.435 151.722 365.92 151.288 365.983 150.715C365.862 150.694 363.606 150.715 363.606 147.191Z" fill="#F24D72"/>
<path d="M365.983 150.715C365.862 150.694 363.606 150.715 363.606 147.191C363.606 143.667 365.97 143.668 365.983 143.667C365.92 143.095 365.435 142.66 364.859 142.66H343.311C342.018 143.116 341.089 144.346 341.089 145.795V148.586C341.089 150.036 342.018 151.266 343.311 151.722H364.859C365.435 151.722 365.92 151.288 365.983 150.715Z" fill="#F14267"/>
<path d="M365.872 150.715H345.45C344.079 150.715 342.969 149.603 342.969 148.232V146.15C342.969 144.779 344.079 143.667 345.45 143.667H365.872C365.872 143.667 363.606 143.919 363.606 147.191C363.606 150.462 365.872 150.715 365.872 150.715Z" fill="#FAD6E4"/>
<path d="M345.233 145.655H361.844C362.136 145.655 362.136 145.202 361.844 145.202H345.233C344.941 145.202 344.941 145.655 345.233 145.655ZM345.233 147.418H361.844C362.136 147.418 362.136 146.964 361.844 146.964H345.233C344.941 146.964 344.941 147.418 345.233 147.418ZM345.233 149.179H361.844C362.136 149.179 362.136 148.727 361.844 148.727H345.233C344.941 148.727 344.941 149.179 345.233 149.179Z" fill="#FAB9B6"/>
<path d="M318.555 125.03L318.559 124.978C318.597 124.45 319.037 124.04 319.567 124.04H362.392C364.351 124.04 365.941 125.957 365.941 128.318V130.835C365.941 133.195 364.351 135.114 362.392 135.114H319.569C319.039 135.114 318.597 134.702 318.56 134.171L318.555 134.087L318.725 134.082C318.725 134.082 320.939 133.946 320.939 129.495C320.939 126.027 319.265 125.222 318.555 125.03Z" fill="#5CC9D2"/>
<path d="M318.559 124.978L318.555 125.03C319.265 125.222 320.939 126.027 320.939 129.495C320.939 133.946 318.725 134.082 318.725 134.082L318.555 134.087L318.56 134.171C318.597 134.702 319.039 135.114 319.569 135.114H340.947C342.318 134.703 343.337 133.129 343.337 131.245V127.907C343.337 126.023 342.317 124.449 340.947 124.04H319.567C319.037 124.04 318.597 124.45 318.559 124.978Z" fill="#12B0B6"/>
<path d="M318.625 134.106H339.046C340.418 134.106 341.529 132.678 341.529 130.915V128.238C341.529 126.475 340.418 125.046 339.046 125.046H318.625C318.625 125.046 320.891 125.37 320.891 129.577C320.891 133.783 318.625 134.106 318.625 134.106Z" fill="#FAD6E4"/>
<path d="M339.262 127.034H322.652C322.361 127.034 322.361 126.581 322.652 126.581H339.262C339.556 126.581 339.554 127.034 339.262 127.034ZM339.262 128.795H322.652C322.361 128.795 322.361 128.342 322.652 128.342H339.262C339.556 128.342 339.554 128.795 339.262 128.795ZM339.262 130.558H322.652C322.361 130.558 322.361 130.105 322.652 130.105H339.262C339.556 130.105 339.554 130.558 339.262 130.558ZM339.262 132.321H322.652C322.361 132.321 322.361 131.866 322.652 131.866H339.262C339.556 131.866 339.554 132.321 339.262 132.321Z" fill="#BDD6DA"/>
<path d="M365.941 113.957L365.938 113.905C365.92 113.65 365.805 113.411 365.618 113.236C365.431 113.062 365.184 112.965 364.928 112.965H322.103C320.145 112.965 318.555 114.882 318.555 117.244V119.761C318.555 122.121 320.145 124.04 322.103 124.04H364.927C365.459 124.04 365.899 123.628 365.935 123.097L365.941 123.012L365.77 123.008C365.77 123.008 363.558 122.872 363.558 118.421C363.558 114.954 365.232 114.148 365.941 113.957Z" fill="#27243E"/>
<path d="M365.938 113.905L365.942 113.957C365.232 114.148 363.558 114.954 363.558 118.421C363.558 122.872 365.77 123.008 365.77 123.008L365.942 123.012L365.935 123.097C365.918 123.353 365.804 123.592 365.617 123.767C365.43 123.942 365.183 124.04 364.927 124.04H343.547C342.18 123.629 341.158 122.056 341.158 120.17V116.834C341.158 114.949 342.18 113.376 343.547 112.965H364.928C365.46 112.965 365.9 113.376 365.938 113.905Z" fill="#1D1B2A"/>
<path d="M365.871 123.033H345.45C344.079 123.033 342.969 121.604 342.969 119.842V117.164C342.969 115.4 344.079 113.972 345.45 113.972H365.871C365.871 113.972 363.606 114.296 363.606 118.502C363.606 122.709 365.871 123.033 365.871 123.033Z" fill="#FAD6E4"/>
<path d="M361.844 115.96H345.233C344.941 115.96 344.941 115.506 345.233 115.506H361.844C362.136 115.506 362.136 115.96 361.844 115.96ZM361.844 117.722H345.233C344.941 117.722 344.941 117.269 345.233 117.269H361.844C362.136 117.269 362.136 117.722 361.844 117.722ZM361.844 119.484H345.233C344.941 119.484 344.941 119.03 345.233 119.03H361.844C362.136 119.03 362.136 119.484 361.844 119.484ZM361.844 121.245H345.233C344.941 121.245 344.941 120.793 345.233 120.793H361.844C362.136 120.793 362.136 121.245 361.844 121.245Z" fill="#D2B9C8"/>
<path d="M357.818 142.412H325.86C324.882 142.412 324.092 141.62 324.092 140.646V137.133C324.092 136.157 324.882 135.365 325.86 135.365H357.818C357.818 135.365 356.559 136.623 356.559 138.889C356.559 141.154 357.818 142.412 357.818 142.412Z" fill="#E9D2D2"/>
<path d="M357.818 135.365H338.437C338.437 135.365 336.922 136.403 336.922 138.889C336.922 141.374 338.437 142.412 338.437 142.412H357.818C357.818 142.412 356.559 141.154 356.559 138.889C356.559 136.623 357.818 135.365 357.818 135.365Z" fill="#FAD6E4"/>
<path d="M325.86 135.617C325.024 135.617 324.344 136.297 324.344 137.133V140.646C324.344 141.48 325.024 142.16 325.86 142.16H357.294C356.898 141.595 356.307 140.482 356.307 138.889C356.307 137.295 356.898 136.183 357.294 135.617H325.86ZM357.818 142.664H325.86C324.745 142.664 323.84 141.759 323.84 140.646V137.133C323.84 136.019 324.745 135.114 325.86 135.114H358.422L357.995 135.542C357.983 135.555 356.811 136.763 356.811 138.889C356.811 141.012 357.983 142.223 357.995 142.235L358.42 142.663L357.818 142.664Z" fill="#27243E"/>
<path d="M355.348 137.246H338.738C338.445 137.246 338.446 136.793 338.738 136.793H355.348C355.64 136.793 355.64 137.246 355.348 137.246ZM355.348 139.009H338.738C338.445 139.009 338.446 138.555 338.738 138.555H355.348C355.64 138.555 355.64 139.009 355.348 139.009ZM355.348 140.77H338.738C338.445 140.77 338.446 140.318 338.738 140.318H355.348C355.64 140.318 355.64 140.77 355.348 140.77Z" fill="#DDC1CF"/>
<path d="M357.951 112.769H333.316C332.438 112.769 331.729 112.06 331.729 111.184V108.876C331.729 108 332.438 107.291 333.316 107.291H357.951C357.951 107.291 356.974 108.268 356.974 110.031C356.974 111.791 357.951 112.769 357.951 112.769Z" fill="#E9D2D2"/>
<path d="M357.951 107.291H342.883C342.883 107.291 341.706 108.097 341.706 110.031C341.706 111.961 342.883 112.769 342.883 112.769H357.951C357.951 112.769 356.974 111.791 356.974 110.031C356.974 108.268 357.951 107.291 357.951 107.291Z" fill="#FAD6E4"/>
<path d="M333.315 107.485C332.546 107.485 331.925 108.108 331.925 108.876V111.184C331.925 111.951 332.546 112.573 333.315 112.573H357.543C357.236 112.133 356.778 111.269 356.778 110.031C356.778 108.792 357.236 107.927 357.543 107.485H333.315ZM357.951 112.965H333.315C332.33 112.965 331.534 112.168 331.534 111.184V108.876C331.534 107.892 332.33 107.095 333.315 107.095H358.421L358.091 107.428C358.082 107.437 357.168 108.377 357.168 110.031C357.168 111.681 358.082 112.621 358.091 112.632L358.421 112.965H357.951Z" fill="#14909E"/>
<path d="M356.032 108.753H343.117C342.89 108.753 342.89 108.4 343.117 108.4H356.032C356.26 108.4 356.259 108.753 356.032 108.753ZM356.032 110.123H343.117C342.89 110.123 342.89 109.771 343.117 109.771H356.032C356.26 109.771 356.259 110.123 356.032 110.123ZM356.032 111.493H343.117C342.89 111.493 342.89 111.14 343.117 111.14H356.032C356.26 111.14 356.259 111.493 356.032 111.493Z" fill="#BDD6DA"/>
<path d="M395.256 149.186H390.566C390.682 148.974 390.764 148.74 390.764 148.482C390.764 147.648 390.089 146.972 389.256 146.972H385.075C384.241 146.972 383.565 147.648 383.565 148.482C383.565 148.74 383.648 148.974 383.763 149.186H379.075C378.241 149.186 377.565 149.862 377.565 150.695C377.565 151.53 378.241 152.206 379.075 152.206H395.256C396.089 152.206 396.764 151.53 396.764 150.695C396.764 149.862 396.089 149.186 395.256 149.186Z" fill="#27243E"/>
<path d="M388.41 104.047H385.846V149.992H388.41V104.047Z" fill="#27243E"/>
<path d="M392.306 134.694H392.973V117.503H392.306V134.694Z" fill="#252347"/>
<path d="M401.967 122.292C402.015 122.681 401.762 123.042 401.375 123.116C399.716 123.436 395.003 124.181 387.262 124.181C379.458 124.181 374.472 123.422 372.74 123.108C372.35 123.038 372.094 122.676 372.144 122.282L374.772 101.255C374.861 100.548 375.462 100.017 376.174 100.017H397.934C398.648 100.017 399.248 100.548 399.336 101.255L401.967 122.292Z" fill="#F24D72"/>
<path d="M375.612 101.889H398.496C398.863 101.889 399.199 102.019 399.459 102.231L399.336 101.255C399.248 100.548 398.648 100.017 397.934 100.017H376.174C375.462 100.017 374.861 100.548 374.772 101.255L374.65 102.231C374.912 102.019 375.246 101.889 375.612 101.889Z" fill="#F46686"/>
<path d="M401.375 118.308C399.716 118.626 395.003 119.373 387.262 119.373C379.458 119.373 374.472 118.614 372.74 118.3L372.646 118.262L372.144 122.282C372.094 122.676 372.35 123.038 372.74 123.108C374.472 123.422 379.458 124.181 387.262 124.181C395.003 124.181 399.716 123.436 401.375 123.116C401.762 123.042 402.015 122.681 401.967 122.292L401.464 118.272L401.375 118.308Z" fill="#F14165"/>
<path d="M393.852 134.766C393.852 135.437 393.309 135.979 392.64 135.979C391.969 135.979 391.426 135.437 391.426 134.766C391.426 134.097 391.969 133.554 392.64 133.554C392.961 133.554 393.269 133.682 393.497 133.909C393.724 134.136 393.852 134.445 393.852 134.766Z" fill="#27243E"/>
</g>
<defs>
<clipPath id="clip0_412_33760">
<rect width="584" height="306.107" fill="white"/>
</clipPath>
</defs>
</svg>
