<svg width="22" height="22" viewBox="0 0 22 22" fill="none" xmlns="http://www.w3.org/2000/svg">
<path d="M20.35 0.0983887H1.62767C0.769785 0.0983887 0.0727539 0.806216 0.0727539 1.67514V20.3911C0.0727539 21.26 0.769785 21.9678 1.62767 21.9678H20.35C21.2079 21.9678 21.9098 21.26 21.9098 20.3911V1.67514C21.9098 0.806216 21.2079 0.0983887 20.35 0.0983887ZM6.67262 18.8436H3.43605V8.40682H6.67749V18.8436H6.67262ZM5.05433 6.9814C4.0161 6.9814 3.17771 6.13689 3.17771 5.102C3.17771 4.0671 4.0161 3.22259 5.05433 3.22259C6.0877 3.22259 6.93096 4.0671 6.93096 5.102C6.93096 6.14177 6.09257 6.9814 5.05433 6.9814ZM18.8049 18.8436H15.5683V13.7668C15.5683 12.5561 15.5439 10.9989 13.8866 10.9989C12.2001 10.9989 11.9418 12.317 11.9418 13.6789V18.8436H8.70522V8.40682H11.8102V9.83223H11.854C12.2879 9.01213 13.3456 8.14809 14.92 8.14809C18.1956 8.14809 18.8049 10.3106 18.8049 13.1224V18.8436Z" fill="#F5F5F5"/>
</svg>
