<svg width="26" height="22" viewBox="0 0 26 22" fill="none" xmlns="http://www.w3.org/2000/svg">
<path d="M23.3307 5.94226C23.3466 6.16428 23.3466 6.38634 23.3466 6.60835C23.3466 13.3801 18.2001 21.1827 8.79383 21.1827C5.89593 21.1827 3.20393 20.3421 0.939453 18.8832C1.35119 18.9307 1.74703 18.9466 2.17461 18.9466C4.56572 18.9466 6.76688 18.1378 8.52462 16.7581C6.27598 16.7105 4.39156 15.2356 3.7423 13.2056C4.05903 13.2532 4.37572 13.2849 4.7083 13.2849C5.16751 13.2849 5.62677 13.2215 6.0543 13.1105C3.71066 12.6347 1.95288 10.5731 1.95288 8.08322V8.01981C2.63378 8.40043 3.42561 8.63831 4.26483 8.66999C2.88714 7.75015 1.98456 6.18014 1.98456 4.40394C1.98456 3.45242 2.23788 2.58018 2.6813 1.81895C5.19914 4.92729 8.98383 6.95719 13.2277 7.17925C13.1485 6.79864 13.101 6.40221 13.101 6.00573C13.101 3.18281 15.3813 0.883301 18.2158 0.883301C19.6885 0.883301 21.0187 1.5018 21.953 2.50091C23.1089 2.27889 24.2174 1.85068 25.1993 1.26392C24.8192 2.45336 24.0116 3.45247 22.9506 4.08678C23.9799 3.97582 24.9776 3.6903 25.896 3.29387C25.1994 4.30879 24.3284 5.21271 23.3307 5.94226Z" fill="#F5F5F5"/>
</svg>
