<svg width="22" height="22" viewBox="0 0 22 22" fill="none" xmlns="http://www.w3.org/2000/svg">
<path d="M11.0172 5.42418C7.91707 5.42418 5.41653 7.92842 5.41653 11.0331C5.41653 14.1378 7.91707 16.642 11.0172 16.642C14.1172 16.642 16.6178 14.1378 16.6178 11.0331C16.6178 7.92842 14.1172 5.42418 11.0172 5.42418ZM11.0172 14.6796C9.0138 14.6796 7.37602 13.0443 7.37602 11.0331C7.37602 9.02189 9.00892 7.38657 11.0172 7.38657C13.0254 7.38657 14.6583 9.02189 14.6583 11.0331C14.6583 13.0443 13.0205 14.6796 11.0172 14.6796ZM18.1532 5.19474C18.1532 5.9221 17.5683 6.503 16.8469 6.503C16.1206 6.503 15.5405 5.91722 15.5405 5.19474C15.5405 4.47227 16.1255 3.88648 16.8469 3.88648C17.5683 3.88648 18.1532 4.47227 18.1532 5.19474ZM21.8626 6.52253C21.7797 4.77005 21.38 3.21771 20.0981 1.93874C18.821 0.659768 17.2709 0.259479 15.521 0.171611C13.7175 0.0690983 8.31189 0.0690983 6.50838 0.171611C4.76337 0.254598 3.21332 0.654886 1.93137 1.93386C0.649419 3.21283 0.254597 4.76517 0.166859 6.51765C0.0644976 8.32383 0.0644976 13.7375 0.166859 15.5437C0.249723 17.2961 0.649419 18.8485 1.93137 20.1275C3.21332 21.4064 4.75849 21.8067 6.50838 21.8946C8.31189 21.9971 13.7175 21.9971 15.521 21.8946C17.2709 21.8116 18.821 21.4113 20.0981 20.1275C21.3751 18.8485 21.7748 17.2961 21.8626 15.5437C21.9649 13.7375 21.9649 8.32871 21.8626 6.52253ZM19.5326 17.4816C19.1524 18.4384 18.4164 19.1756 17.4562 19.5612C16.0182 20.1323 12.6062 20.0005 11.0172 20.0005C9.42812 20.0005 6.0112 20.1275 4.57814 19.5612C3.62277 19.1804 2.88674 18.4433 2.50167 17.4816C1.93137 16.0416 2.06298 12.6245 2.06298 11.0331C2.06298 9.44171 1.93625 6.01973 2.50167 4.58455C2.88187 3.62776 3.6179 2.89064 4.57814 2.505C6.01607 1.93386 9.42812 2.06566 11.0172 2.06566C12.6062 2.06566 16.0231 1.93874 17.4562 2.505C18.4115 2.88576 19.1476 3.62288 19.5326 4.58455C20.1029 6.02461 19.9713 9.44171 19.9713 11.0331C19.9713 12.6245 20.1029 16.0465 19.5326 17.4816Z" fill="#F5F5F5"/>
</svg>
